<svg width="400" height="250" viewBox="0 0 400 250" fill="none" xmlns="http://www.w3.org/2000/svg">
<g clip-path="url(#clip0_217_340)">
<rect width="400" height="250" fill="#F8F8FF"/>
<path opacity="0.38" d="M190.894 12.788C250.928 16.0154 253.511 80.5688 247.055 105.744C240.6 130.92 289.66 136.729 295.47 178.044C301.28 219.358 263.194 236.787 236.081 237.432C208.969 238.078 187.667 221.94 183.148 201.928C178.63 181.917 165.719 172.233 143.125 168.36C120.532 164.487 79.8631 134.147 86.9641 94.7696C86.9641 94.7696 88.6267 52.8704 127.956 25.0526C154.423 6.33317 190.894 12.788 190.894 12.788Z" fill="#E2E7FF"/>
<path d="M152.061 111.712C152.061 111.712 150.425 90.8563 156.559 76.9519C159.012 73.6807 160.648 74.9071 160.648 74.9071C160.648 74.9071 161.466 83.4949 159.421 91.6735C157.377 99.8527 156.15 115.801 156.15 115.801L152.061 111.712Z" fill="#61A27D"/>
<path d="M150.833 110.077C150.833 110.077 150.424 100.262 140.201 91.6741C129.977 83.0863 127.933 83.0863 127.933 83.0863C127.933 83.0863 136.111 82.6771 141.836 86.3581C147.562 90.0385 149.606 100.262 150.016 101.898C150.425 103.534 152.878 110.077 152.878 110.077L150.833 110.077Z" fill="#578B71"/>
<path d="M157.466 111.58C157.466 111.58 159.382 101.946 170.806 95.0355C182.231 88.1253 184.251 88.4403 184.251 88.4403C184.251 88.4403 176.232 86.7759 170.009 89.5305C163.785 92.2851 160.19 102.072 159.533 103.624C158.877 105.178 155.445 111.265 155.445 111.265L157.466 111.58Z" fill="#578B71"/>
<path d="M152.878 110.077C152.878 110.077 142.245 74.9078 132.84 66.7286C133.248 65.5016 144.29 69.182 147.561 78.179C150.833 87.1754 151.651 100.671 152.878 104.352C154.105 108.032 155.741 111.304 155.741 111.304" fill="#7CC97D"/>
<path d="M152.061 111.712C152.061 111.712 156.15 92.492 166.783 85.949C167.601 88.4024 155.742 108.441 156.968 117.438C158.194 126.434 152.061 111.712 152.061 111.712Z" fill="#7CC97D"/>
<path d="M146.222 133.375H161.948C162.916 126.816 163.729 120.918 163.88 118.665C164.189 114.018 162.623 110.08 161.845 108.441H146.325C145.547 110.08 143.981 114.018 144.29 118.665C144.44 120.918 145.253 126.816 146.222 133.375Z" fill="#A9A7E7"/>
<path d="M289.428 94.2104H260.585V133.233H289.428V94.2104Z" fill="#24ADB2"/>
<path d="M286.458 94.2104H257.616V133.233H286.458V94.2104Z" fill="#26C6DA"/>
<path d="M279.247 90.2517H250.405V133.233H279.247V90.2517Z" fill="#E1543C"/>
<path d="M276.279 90.2517H243.195V133.233H276.279V90.2517Z" fill="#FF634D"/>
<path d="M276.279 90.2517H270.623V133.233H276.279V90.2517Z" fill="#EB594D"/>
<path d="M111.142 100.997C111.142 100.997 106.618 103.259 104.638 109.763C102.659 116.266 113.404 133.798 113.404 132.95C113.404 132.102 124.15 127.294 124.15 127.294L118.777 107.5L111.142 100.997Z" fill="#202F7C"/>
<path d="M224.149 135.321L218.175 119.532H203.24L209.214 135.321" fill="#4F57A0"/>
<path d="M169.956 122.661H254.873L256.358 114.696H171.441" fill="#E2E7FF"/>
<path d="M178.957 74.3877L171.442 114.696H256.358L263.699 75.3207C263.991 73.7553 262.789 72.3093 261.197 72.3093H181.458C180.233 72.3093 179.181 73.1829 178.957 74.3877Z" fill="#243FA7"/>
<path d="M220.785 129.627L243.265 112.873L221.209 111.601L200.426 127.719L220.785 129.627Z" fill="white"/>
<path d="M214.494 124.184L220.149 121.074C220.149 121.074 225.61 118.812 225.769 118.812C225.928 118.812 226.405 119.342 225.822 120.455C225.239 121.569 223.701 121.834 223.701 121.834L222.694 124.644L227.925 123.902L229.127 123.619C229.127 123.619 228.279 125.74 227.925 126.234C227.572 126.729 225.592 128.002 225.592 128.002C225.592 128.002 221.845 131.112 220.503 131.466C219.159 131.819 214.494 132.031 214.494 132.031L211.525 131.96L208.768 132.526C208.768 132.526 207.354 129.911 207.566 126.234L214.494 124.184Z" fill="#FF8D68"/>
<path d="M248.002 137.192L264.402 244.078H268.361L257.616 136.626L248.002 137.192Z" fill="#E2E7FF"/>
<path d="M281.369 137.192L297.769 244.078H301.728L290.982 136.626L281.369 137.192Z" fill="#E2E7FF"/>
<path d="M185.227 137.192L168.826 244.078H164.868L175.613 136.626L185.227 137.192Z" fill="#C2D3EB"/>
<path d="M151.86 137.192L135.46 244.078H131.501L142.246 136.626L151.86 137.192Z" fill="#C2D3EB"/>
<path d="M293.244 136.061H145.639V141.15H293.244V136.061Z" fill="#A9A7E7"/>
<path d="M296.072 138.323H150.164C148.602 138.323 147.336 137.057 147.336 135.495C147.336 133.933 148.602 132.667 150.164 132.667H296.072C297.634 132.667 298.9 133.933 298.9 135.495C298.9 137.057 297.634 138.323 296.072 138.323Z" fill="#FFC757"/>
<path d="M155.051 233.333C155.051 233.333 155.978 231.062 159.856 231.466C163.734 231.87 164.214 232.588 164.752 234.491C165.29 236.394 166.724 238.401 167.634 238.801C168.544 239.202 171.909 241.263 174.595 241.577C177.281 241.891 177.657 243.505 177.101 244.274C176.545 245.043 166.508 246.127 164.273 245.94C164.273 245.94 156.716 246.16 154.911 245.655C153.106 245.151 154.939 234.081 155.051 233.333Z" fill="#201360"/>
<path d="M156.079 217.05L154.915 234.775C154.915 234.775 157.678 235.665 159.781 237.206C162.888 239.483 165.433 236.726 165.433 236.726L166.134 225.573L156.079 217.05Z" fill="#FF8D68"/>
<path d="M178.582 185.827L167.129 235.029C167.129 235.029 161.191 235.878 153.98 232.485C153.98 232.485 160.343 186.252 160.767 183.283C161.191 180.313 177.733 183.283 178.582 185.827Z" fill="#202F7C"/>
<path d="M132.159 58.5345C132.159 58.5345 136.861 59.4105 139.951 66.3345C143.041 73.2585 142.297 88.4583 140.669 90.3489C139.042 92.2395 133.693 91.9137 126.178 89.9745C118.238 87.9261 115.076 80.0223 113.333 74.7867C109.996 64.7601 118.171 53.6709 132.159 58.5345Z" fill="#FF8D68"/>
<path d="M119.106 99.0596L121.811 86.1062C121.811 86.1062 128.771 83.5646 133.522 88.0016L135.138 89.9738L135.689 98.255C135.689 98.255 128.393 100.225 119.106 99.0596Z" fill="#FF8D68"/>
<path d="M118.956 178.719C118.956 178.719 134.109 183.153 152.082 182.541C170.055 181.929 172.433 176.833 172.993 171.975C173.554 167.116 159.573 164.16 153.492 162.564C147.41 160.967 126.617 154.987 120.994 161.052C115.371 167.117 114.063 174.574 118.956 178.719Z" fill="#201360"/>
<path d="M197.042 233.333C197.042 233.333 197.97 231.062 201.848 231.466C205.726 231.87 206.206 232.588 206.744 234.491C207.282 236.394 208.715 238.401 209.626 238.801C210.535 239.202 213.901 241.263 216.587 241.577C219.273 241.891 219.649 243.505 219.092 244.274C218.536 245.043 208.499 246.127 206.264 245.94C206.264 245.94 198.708 246.16 196.903 245.655C195.097 245.151 196.93 234.081 197.042 233.333Z" fill="#201360"/>
<path d="M192.579 218.346L196.821 235.595C196.821 235.595 200.213 234.746 202.193 236.443C204.172 238.14 207.848 237.009 207.848 237.009L204.738 223.436L192.579 218.346Z" fill="#FF8D68"/>
<path d="M157.516 160.661C158.364 160.661 187.206 170.275 192.862 174.517C198.517 179.041 207.566 229.445 208.131 230.576C208.697 231.707 199.931 234.817 194.275 233.969C193.993 232.838 180.702 190.352 180.702 187.524C180.702 187.524 158.081 186.393 148.466 184.696C138.853 182.999 132.349 182.717 128.39 172.254C124.431 161.792 147.618 160.944 147.618 160.944L157.516 160.661Z" fill="#202F7C"/>
<path d="M206.858 123.477C206.858 123.477 212.372 123.336 212.797 123.901C213.221 124.467 215.2 129.557 213.362 131.677C211.807 132.808 211.807 132.808 211.807 132.808H207L206.858 123.477Z" fill="#E2E7FF"/>
<path d="M118.14 97.1799L119.625 93.3627C119.625 93.3627 128.532 90.6057 136.167 93.9987C138.075 95.9073 139.136 98.8767 139.136 98.8767L118.14 97.1799Z" fill="#E2E7FF"/>
<path d="M116.231 97.604C116.231 97.604 117.362 95.6246 119.342 95.342C121.321 95.0594 130.37 93.9284 136.308 95.6246C138.57 96.473 139.701 97.604 139.701 97.604C139.701 97.604 148.184 100.432 151.012 102.128C153.839 103.825 154.688 116.832 155.253 121.074C155.818 125.315 154.122 129.84 154.122 129.84C154.122 129.84 160.909 157.551 160.909 161.509C160.909 165.468 158.647 169.992 150.729 172.82C142.811 175.648 121.321 174.517 113.969 169.992C111.707 165.468 108.313 111.742 107.748 106.652C107.183 101.563 116.231 97.604 116.231 97.604Z" fill="#202F7C"/>
<path d="M146.346 100.997C146.346 100.997 148.467 99.7246 153.557 103.118C158.647 106.511 172.644 119.236 174.34 120.084C176.037 120.933 208.697 122.63 208.697 122.63C208.697 122.63 213.363 128.568 208.273 133.233C208.273 133.233 176.744 134.506 170.806 134.082C164.868 133.658 145.074 122.205 145.074 122.205C145.074 122.205 137.015 110.328 146.346 100.997Z" fill="#202F7C"/>
<path d="M139.549 119.713C139.549 119.713 165.991 133.595 169.076 134.035C172.161 134.476 183.84 134.035 183.84 134.035" stroke="#1B2048" stroke-width="0.8263" stroke-miterlimit="10"/>
<path d="M175.246 123.238C175.246 123.238 176.127 128.086 173.042 130.951" stroke="#1B2048" stroke-width="0.8263" stroke-miterlimit="10"/>
<path d="M177.229 121.916C177.229 121.916 179.873 126.103 178.55 129.187" stroke="#1B2048" stroke-width="0.8263" stroke-miterlimit="10"/>
<path d="M139.328 114.203C139.328 114.203 137.124 106.491 144.837 101.423" stroke="#1B2048" stroke-width="0.8263" stroke-miterlimit="10"/>
<path d="M110.903 106.932C110.903 106.932 109.36 120.594 109.36 126.984" stroke="#1B2048" stroke-width="0.8263" stroke-miterlimit="10"/>
<path d="M118.835 97.8973C118.835 97.8973 128.972 97.0159 137.345 97.8973" stroke="#1B2048" stroke-width="0.8263" stroke-miterlimit="10"/>
<path d="M185.161 186.699C185.161 186.699 190.009 185.157 191.772 177.665" stroke="#1B2048" stroke-width="0.8263" stroke-miterlimit="10"/>
<path d="M188.467 187.36C188.467 187.36 191.331 186.479 192.654 182.512" stroke="#1B2048" stroke-width="0.8263" stroke-miterlimit="10"/>
<path d="M170.839 195.954L163.567 232.312" stroke="#1B2048" stroke-width="0.8263" stroke-miterlimit="10"/>
<path d="M138.924 67.7011C138.924 67.7011 139.772 71.5183 136.378 74.0635L136.59 78.3049C136.59 78.3049 137.863 82.1221 137.014 82.5463C136.166 82.9705 135.954 82.3339 135.954 82.3339C135.954 82.3339 133.197 77.8801 132.349 77.6683C131.5 77.4559 134.257 83.6065 134.257 83.6065C134.257 83.6065 131.5 87.8479 126.411 88.4839L127.471 86.9995C127.471 86.9995 125.138 88.4839 121.533 88.2721C117.927 88.0597 115.17 82.5463 115.17 82.5463C115.17 82.5463 115.806 84.0307 115.17 84.6673C114.534 85.3033 110.929 79.7893 110.716 72.7909L109.656 74.9119C109.656 74.9119 109.868 70.0339 111.777 64.5199C113.686 59.0059 122.169 54.9763 126.835 54.9763C131.5 54.9763 136.166 55.4005 137.439 54.9763C138.711 54.5521 138.075 58.1575 138.075 58.1575C138.075 58.1575 138.711 56.6731 138.923 55.4005C139.771 54.7645 141.044 59.8543 140.62 61.7629C140.196 63.6715 140.196 63.6715 140.196 63.6715C140.196 63.6715 141.68 61.7629 141.892 60.7021C142.741 60.4903 142.529 65.1559 138.924 67.7011Z" fill="#201360"/>
<path d="M135.846 78.2672C135.846 78.2672 134.989 75.428 132.637 76.9208C130.286 78.4136 133.626 85.0988 135.593 84.5222C137.56 83.9456 136.363 79.3466 135.846 78.2672Z" fill="#FF634D"/>
<path d="M221.916 127.436L227.925 126.234L229.127 123.618" stroke="#E66657" stroke-width="1.2805" stroke-miterlimit="10"/>
<path d="M227.713 126.375C227.713 126.375 224.673 128.92 224.249 129.132C223.825 129.345 221.916 129.839 221.916 129.839" stroke="#E66657" stroke-width="1.2805" stroke-miterlimit="10"/>
<path d="M134.894 85.4451C134.894 85.4451 134.045 88.4139 139.135 90.1107" stroke="#E66657" stroke-width="1.2805" stroke-miterlimit="10"/>
<path d="M250.829 107.784H205.586L211.241 78.376H256.484L250.829 107.784Z" fill="#2E60BE"/>
<path d="M191.048 88.5559C190.886 89.3989 191.532 90.1807 192.391 90.1807H241.645C242.3 90.1807 242.863 89.7157 242.987 89.0719L243.712 85.3027H191.674L191.048 88.5559Z" fill="#26C6F8"/>
<path d="M247.624 56.3564H198.37C197.715 56.3564 197.151 56.8214 197.028 57.4652L191.674 85.3035H243.712L248.966 57.9818C249.128 57.1382 248.482 56.3564 247.624 56.3564Z" fill="#CAE5FF"/>
<path d="M213.95 90.2019C214.598 88.4133 214.998 87.1347 214.998 87.1347C214.998 87.1347 216.484 79.3695 209.867 81.3615C209.867 81.3615 207.571 83.0835 206.49 86.7297C206.155 87.8619 205.755 89.0715 205.362 90.2019H213.95Z" fill="#387AB6"/>
<path d="M227.656 90.2019C227.534 86.3733 227.296 83.3031 226.883 82.4757C225.667 80.2473 220.705 78.2217 220.705 78.2217L213.919 79.2345C213.919 79.2345 211.082 80.0445 210.171 82.0707C209.865 82.7517 209.124 86.0637 208.333 90.2025L227.656 90.2019Z" fill="#DCE4FF"/>
<path d="M215.077 73.6268C215.077 73.6268 214.667 76.6622 213.764 78.8774C213.764 78.8774 213.518 80.6 217.128 79.862C220.737 79.1234 220.245 77.3186 220.245 77.3186V70.1816L215.077 73.6268Z" fill="#FF8D68"/>
<path d="M210.01 66.1222C210.01 66.1222 210.05 72.9088 211.998 76.1782C213.328 77.5534 217.861 75.3934 219.768 72.4756C221.675 69.5578 221.638 65.1682 220.129 62.7244C218.62 60.2806 213.648 61.0156 212.191 61.8598C210.734 62.7034 209.927 65.0368 210.01 66.1222Z" fill="#FF8D68"/>
<path d="M219.168 69.9556C219.168 69.9556 220.448 67.9834 221.304 69.1576C222.16 70.3318 219.195 72.7336 218.968 71.8198C218.742 70.906 219.168 69.9556 219.168 69.9556Z" fill="#FBA894"/>
<path d="M210.009 66.1221C210.009 66.1221 207.629 64.0287 210.5 61.3215C212.141 60.0909 212.961 60.9933 214.684 60.6651C216.407 60.3369 219.524 60.6651 220.673 62.4699C221.821 64.2747 221.411 68.4585 221.083 68.8689C220.755 69.2793 219.77 69.5253 219.77 70.2633C219.77 71.0019 219.606 71.5761 219.36 71.5761C219.114 71.5761 219.114 70.3455 219.114 69.4431C219.114 68.5407 218.95 66.8181 218.54 65.5875C218.129 64.3569 216.243 64.4391 215.504 64.6029C214.766 64.7667 214.277 66.6567 210.009 66.1221Z" fill="#713336"/>
<path opacity="0.53" d="M218.949 68.1608C218.949 68.1608 219.002 68.1338 219.084 68.0996C219.084 68.0972 219.084 68.093 219.084 68.093L218.949 68.1608Z" fill="#505E83"/>
<path d="M219.084 68.0997C219.099 68.2341 219.529 72.1635 217.97 73.2585C216.349 74.3391 216.282 72.9549 214.998 72.7521C213.716 72.5493 212.669 72.6171 212.095 73.4613C211.589 74.3055 211.69 74.6769 211.217 74.4405C211.116 74.7105 211.825 76.3647 212.906 76.8039C213.986 77.2425 216.552 75.8925 217.7 74.8797C218.847 73.8669 219.557 73.2255 219.759 72.3477C219.962 71.4699 219.86 69.7815 220.097 68.6001C220.232 67.7073 219.416 67.9623 219.084 68.0997ZM213.176 75.3519C211.623 75.0141 211.825 73.7991 213.412 73.2927C213.412 73.2927 215.1 72.5163 215.674 73.6977C215.91 74.4741 214.728 75.6897 213.176 75.3519Z" fill="#713336"/>
<path d="M220.249 76.804C220.249 76.804 218.273 79.2856 215.032 79.5892C214.374 79.336 214.019 78.1204 214.019 78.1204L213.513 78.88C213.513 78.88 213.26 80.3991 213.513 81.0069C213.817 81.0573 214.931 80.2978 214.931 80.2978C214.931 80.2978 215.69 81.3616 216.247 81.5638C216.804 81.766 220.349 79.3864 220.703 78.2212C220.705 78.2218 220.679 77.386 220.249 76.804Z" fill="white"/>
<path d="M228.173 90.2019C227.996 86.4279 227.771 83.5431 227.558 82.9485C226.748 81.0579 223.709 78.6273 220.705 78.2217C220.705 78.2217 219.576 83.4315 218.465 90.2019H228.173Z" fill="#387AB6"/>
<path d="M210.693 90.2019C212.285 83.4471 213.513 79.4373 213.513 79.4373C212.602 79.5387 210.981 80.2473 209.867 81.3615C209.262 82.5711 208.323 86.0451 207.353 90.2019H210.693Z" fill="#387AB6"/>
<path d="M227.565 90.2019C227.676 86.5887 227.473 83.2479 226.883 82.4757C224.959 80.8551 222.933 80.9565 221.921 82.7799C221.367 83.7765 220.632 87.2535 220.079 90.2025L227.565 90.2019Z" fill="#387AB6"/>
<path d="M214.931 80.2976C214.357 82.637 213.881 85.0028 213.451 87.3728" stroke="#87B8EB" stroke-width="0.3595" stroke-miterlimit="10"/>
<path d="M252.11 61.7301C256.884 57.5147 258.089 51.0796 254.802 47.3569C251.515 43.6342 244.98 44.0336 240.206 48.249C235.432 52.4643 234.227 58.8994 237.514 62.6221C240.801 66.3448 247.336 65.9455 252.11 61.7301Z" fill="#6787FF"/>
<path d="M258.406 65.9215C258.022 67.4605 256.463 68.7085 254.924 68.7085C253.385 68.7085 252.449 67.4605 252.832 65.9215C253.216 64.3825 254.775 63.1345 256.314 63.1345C257.853 63.1345 258.789 64.3819 258.406 65.9215Z" fill="#6787FF"/>
<path d="M243.529 60.1574C243.208 60.1574 242.918 60.035 242.735 59.7908L240.103 56.285C239.736 55.796 239.933 55.0034 240.545 54.5144C241.156 54.0254 241.948 54.0254 242.315 54.5144L244.283 57.1346L251.311 51.5096C251.921 51.0206 252.714 51.0206 253.081 51.5096C253.448 51.9986 253.251 52.7912 252.64 53.2802L244.506 59.7908C244.199 60.035 243.848 60.1574 243.529 60.1574Z" fill="white"/>
<path d="M171.329 38.0079H167.998C167.162 38.0079 166.653 37.3299 166.862 36.4941L167.692 33.1635C167.901 32.3271 168.748 31.6497 169.583 31.6497H172.914C173.75 31.6497 174.259 32.3277 174.05 33.1635L173.22 36.4941C173.012 37.3305 172.165 38.0079 171.329 38.0079Z" fill="#BFD9FF"/>
<path d="M168.895 47.7728H165.564C164.728 47.7728 164.219 47.0947 164.428 46.2589L165.258 42.9283C165.467 42.0925 166.313 41.4146 167.149 41.4146H170.48C171.316 41.4146 171.825 42.0925 171.616 42.9283L170.786 46.2589C170.578 47.0947 169.73 47.7728 168.895 47.7728Z" stroke="#A9A7E7" stroke-width="0.75" stroke-miterlimit="10"/>
<path d="M179.492 47.7728H176.161C175.325 47.7728 174.816 47.0947 175.025 46.2589L175.855 42.9283C176.064 42.0925 176.911 41.4146 177.746 41.4146H181.077C181.913 41.4146 182.422 42.0925 182.213 42.9283L181.383 46.2589C181.175 47.0947 180.328 47.7728 179.492 47.7728Z" fill="#26C6DA"/>
<path d="M190.089 47.7728H186.758C185.922 47.7728 185.413 47.0947 185.622 46.2589L186.452 42.9283C186.661 42.0925 187.508 41.4146 188.344 41.4146H191.674C192.51 41.4146 193.019 42.0925 192.811 42.9283L191.98 46.2589C191.772 47.0947 190.925 47.7728 190.089 47.7728Z" fill="white"/>
<path d="M166.403 57.7647H163.073C162.237 57.7647 161.728 57.0867 161.936 56.2509L162.767 52.9203C162.976 52.0839 163.822 51.4065 164.658 51.4065H167.989C168.825 51.4065 169.334 52.0845 169.125 52.9203L168.295 56.2509C168.086 57.0867 167.239 57.7647 166.403 57.7647Z" fill="#26C6DA"/>
<path d="M163.742 68.4375H160.412C159.575 68.4375 159.067 67.7595 159.275 66.9237L160.106 63.5931C160.314 62.7573 161.161 62.0793 161.997 62.0793H165.328C166.163 62.0793 166.673 62.7573 166.464 63.5931L165.634 66.9237C165.425 67.7601 164.578 68.4375 163.742 68.4375Z" fill="white"/>
<path d="M177.001 57.7647H173.67C172.834 57.7647 172.325 57.0867 172.534 56.2509L173.364 52.9203C173.572 52.0839 174.419 51.4065 175.255 51.4065H178.586C179.422 51.4065 179.931 52.0845 179.722 52.9203L178.892 56.2509C178.684 57.0867 177.837 57.7647 177.001 57.7647Z" fill="#EDF4FF"/>
<path d="M172.358 76.3858H169.027C168.191 76.3858 167.682 75.7078 167.891 74.872L168.721 71.5414C168.93 70.7056 169.776 70.0276 170.612 70.0276H173.943C174.779 70.0276 175.288 70.7056 175.079 71.5414L174.249 74.872C174.041 75.7078 173.194 76.3858 172.358 76.3858Z" stroke="#A9A7E7" stroke-width="0.75" stroke-miterlimit="10"/>
<path d="M272.555 63.4473H271.332C271.025 63.4473 270.838 63.1983 270.915 62.8917L271.22 61.6689C271.296 61.3617 271.607 61.1133 271.914 61.1133H273.137C273.444 61.1133 273.63 61.3623 273.554 61.6689L273.249 62.8917C273.172 63.1989 272.861 63.4473 272.555 63.4473Z" fill="#CAE5FF"/>
<path d="M271.66 67.0322H270.438C270.13 67.0322 269.944 66.7832 270.021 66.4766L270.325 65.2538C270.402 64.9466 270.713 64.6982 271.02 64.6982H272.242C272.55 64.6982 272.736 64.9472 272.659 65.2538L272.355 66.4766C272.278 66.7832 271.968 67.0322 271.66 67.0322Z" fill="#CAE5FF"/>
<path d="M275.551 67.0322H274.328C274.021 67.0322 273.835 66.7832 273.911 66.4766L274.216 65.2538C274.293 64.9466 274.604 64.6982 274.91 64.6982H276.133C276.44 64.6982 276.627 64.9472 276.55 65.2538L276.245 66.4766C276.169 66.7832 275.858 67.0322 275.551 67.0322Z" fill="#CAE5FF"/>
<path d="M279.441 67.0322H278.218C277.911 67.0322 277.725 66.7832 277.801 66.4766L278.106 65.2538C278.183 64.9466 278.494 64.6982 278.8 64.6982H280.023C280.33 64.6982 280.517 64.9472 280.44 65.2538L280.135 66.4766C280.059 66.7832 279.748 67.0322 279.441 67.0322Z" fill="#CAE5FF"/>
<path d="M270.746 70.7H269.523C269.216 70.7 269.029 70.451 269.106 70.1444L269.411 68.9216C269.488 68.6144 269.799 68.366 270.105 68.366H271.328C271.635 68.366 271.822 68.615 271.745 68.9216L271.44 70.1444C271.364 70.451 271.053 70.7 270.746 70.7Z" fill="#CAE5FF"/>
<path d="M269.769 74.6179H268.547C268.239 74.6179 268.053 74.3689 268.13 74.0623L268.434 72.8395C268.511 72.5323 268.822 72.2839 269.129 72.2839H270.351C270.659 72.2839 270.845 72.5329 270.768 72.8395L270.464 74.0623C270.387 74.3695 270.076 74.6179 269.769 74.6179Z" fill="#CAE5FF"/>
<path d="M274.637 70.7H273.414C273.107 70.7 272.92 70.451 272.997 70.1444L273.302 68.9216C273.378 68.6144 273.689 68.366 273.996 68.366H275.219C275.526 68.366 275.712 68.615 275.636 68.9216L275.331 70.1444C275.255 70.451 274.943 70.7 274.637 70.7Z" fill="#CAE5FF"/>
<path d="M272.932 77.5357H271.709C271.402 77.5357 271.215 77.2867 271.292 76.9801L271.597 75.7573C271.674 75.4501 271.985 75.2017 272.291 75.2017H273.514C273.821 75.2017 274.008 75.4507 273.931 75.7573L273.626 76.9801C273.55 77.2873 273.239 77.5357 272.932 77.5357Z" fill="#CAE5FF"/>
<path opacity="0.9" d="M272.163 109.774H231.964C231.541 109.774 231.232 109.375 231.339 108.966L235.092 94.5482C235.165 94.2638 235.423 94.0652 235.716 94.0652H275.915C276.337 94.0652 276.646 94.4642 276.54 94.8734L272.787 109.291C272.713 109.576 272.457 109.774 272.163 109.774Z" fill="#BFD9FF"/>
<path d="M237.477 97.1492H251.465" stroke="#A9C2FF" stroke-width="1.076" stroke-miterlimit="10" stroke-linecap="round" stroke-linejoin="round"/>
<path d="M236.401 103.605H250.389" stroke="#A9C2FF" stroke-width="1.076" stroke-miterlimit="10" stroke-linecap="round" stroke-linejoin="round"/>
<path d="M242.283 101.166H256.271" stroke="#A9C2FF" stroke-width="1.076" stroke-miterlimit="10" stroke-linecap="round" stroke-linejoin="round"/>
<path d="M237.119 99.3013H241.315" stroke="#A9C2FF" stroke-width="1.076" stroke-miterlimit="10" stroke-linecap="round" stroke-linejoin="round"/>
<path d="M236.544 101.166H240.741" stroke="#A9C2FF" stroke-width="1.076" stroke-miterlimit="10" stroke-linecap="round" stroke-linejoin="round"/>
<path d="M253.688 97.1492H258.674" stroke="#A9C2FF" stroke-width="1.076" stroke-miterlimit="10" stroke-linecap="round" stroke-linejoin="round"/>
<path d="M256.131 106.634H248.687C248.649 106.634 248.622 106.599 248.631 106.562L248.964 105.282C248.971 105.257 248.994 105.239 249.02 105.239H256.464C256.502 105.239 256.529 105.274 256.52 105.311L256.187 106.591C256.181 106.617 256.158 106.634 256.131 106.634Z" stroke="#84AEE5" stroke-width="0.3587" stroke-miterlimit="10"/>
<path d="M246.878 106.634H239.433C239.395 106.634 239.368 106.599 239.378 106.562L239.711 105.282C239.718 105.257 239.74 105.239 239.766 105.239H247.211C247.249 105.239 247.276 105.274 247.266 105.311L246.933 106.591C246.927 106.617 246.904 106.634 246.878 106.634Z" stroke="#84AEE5" stroke-width="0.3587" stroke-miterlimit="10"/>
<path d="M269.216 104.778C268.835 104.27 267.287 103.9 266.859 103.392C266.64 103.132 266.64 102.65 266.693 102.24C266.845 102.143 266.972 102.046 267.047 101.955C267.175 101.767 267.32 101.505 267.465 101.217C267.509 101.26 267.568 101.293 267.644 101.291C267.847 101.285 268.62 100.232 268.421 99.9883C268.307 99.8485 268.123 99.9697 267.986 100.099C268.191 99.6301 268.335 99.2707 268.335 99.2707H268.327C268.346 99.2113 268.364 99.1519 268.379 99.0919C268.686 97.8607 267.937 96.8623 266.706 96.8623C265.475 96.8623 264.228 97.8607 263.921 99.0919C263.906 99.1525 263.894 99.2119 263.884 99.2707H263.876C263.876 99.2707 263.841 99.6301 263.812 100.099C263.739 99.9703 263.616 99.8491 263.432 99.9883C263.111 100.232 263.36 101.285 263.56 101.291C263.634 101.294 263.71 101.26 263.775 101.217C263.777 101.505 263.79 101.767 263.825 101.955C263.862 102.065 263.97 102.187 264.11 102.305C263.957 102.7 263.724 103.146 263.394 103.392C262.713 103.9 260.98 104.27 260.345 104.778C259.774 105.235 259.265 106.57 259.168 106.834H269.369C269.403 106.57 269.559 105.235 269.216 104.778Z" fill="#387AB6"/>
<path d="M217.656 104.633H184.67C181.775 104.633 180.013 102.285 180.734 99.3892C181.456 96.4936 184.389 94.1458 187.285 94.1458H220.271C223.166 94.1458 224.929 96.4936 224.207 99.3892C223.485 102.285 220.552 104.633 217.656 104.633Z" fill="white"/>
<path d="M188.17 100.758L186.756 101.416C186.622 101.478 186.51 101.378 186.565 101.247L187.151 99.854C187.173 99.8018 187.169 99.749 187.14 99.7118L186.375 98.7254C186.303 98.6324 186.396 98.471 186.532 98.4518L187.981 98.2484C188.035 98.2406 188.088 98.2082 188.124 98.1608L189.064 96.8942C189.153 96.7748 189.323 96.7748 189.352 96.8942L189.662 98.1608C189.673 98.2082 189.711 98.2412 189.761 98.2484L191.109 98.4518C191.235 98.471 191.248 98.6324 191.129 98.7254L189.871 99.7118C189.825 99.7484 189.794 99.8018 189.79 99.854L189.682 101.247C189.672 101.377 189.509 101.478 189.407 101.416L188.32 100.758C188.278 100.734 188.223 100.734 188.17 100.758Z" fill="#FFA402"/>
<path d="M195.134 100.758L193.72 101.416C193.587 101.478 193.474 101.378 193.529 101.247L194.115 99.854C194.138 99.8018 194.133 99.749 194.105 99.7118L193.339 98.7254C193.267 98.6324 193.36 98.471 193.496 98.4518L194.945 98.2484C194.999 98.2406 195.053 98.2082 195.088 98.1608L196.029 96.8942C196.118 96.7748 196.287 96.7748 196.317 96.8942L196.626 98.1608C196.638 98.2082 196.675 98.2412 196.725 98.2484L198.073 98.4518C198.2 98.471 198.212 98.6324 198.094 98.7254L196.836 99.7118C196.79 99.7484 196.759 99.8018 196.755 99.854L196.646 101.247C196.636 101.377 196.473 101.478 196.371 101.416L195.285 100.758C195.243 100.734 195.187 100.734 195.134 100.758Z" fill="#FFA402"/>
<path d="M202.098 100.758L200.684 101.416C200.551 101.478 200.438 101.378 200.493 101.247L201.079 99.854C201.101 99.8018 201.097 99.749 201.068 99.7118L200.303 98.7254C200.231 98.6324 200.324 98.471 200.46 98.4518L201.909 98.2484C201.963 98.2406 202.016 98.2082 202.052 98.1608L202.993 96.8942C203.081 96.7748 203.251 96.7748 203.28 96.8942L203.59 98.1608C203.601 98.2082 203.638 98.2412 203.689 98.2484L205.036 98.4518C205.163 98.471 205.175 98.6324 205.057 98.7254L203.799 99.7118C203.752 99.7484 203.722 99.8018 203.717 99.854L203.609 101.247C203.599 101.377 203.436 101.478 203.334 101.416L202.247 100.758C202.207 100.734 202.151 100.734 202.098 100.758Z" fill="#FFA402"/>
<path d="M209.062 100.758L207.648 101.416C207.515 101.478 207.402 101.378 207.457 101.247L208.044 99.854C208.066 99.8018 208.062 99.749 208.033 99.7118L207.267 98.7254C207.195 98.6324 207.288 98.471 207.424 98.4518L208.873 98.2484C208.927 98.2406 208.981 98.2082 209.016 98.1608L209.957 96.8942C210.046 96.7748 210.216 96.7748 210.244 96.8942L210.554 98.1608C210.565 98.2082 210.603 98.2412 210.653 98.2484L212.001 98.4518C212.127 98.471 212.14 98.6324 212.022 98.7254L210.764 99.7118C210.717 99.7484 210.687 99.8018 210.682 99.854L210.574 101.247C210.564 101.377 210.401 101.478 210.299 101.416L209.212 100.758C209.172 100.734 209.116 100.734 209.062 100.758Z" fill="#FFA402"/>
<path d="M216.027 100.758L214.613 101.416C214.479 101.478 214.367 101.378 214.422 101.247L215.008 99.854C215.03 99.8018 215.026 99.749 214.997 99.7118L214.232 98.7254C214.16 98.6324 214.253 98.471 214.389 98.4518L215.837 98.2484C215.891 98.2406 215.945 98.2082 215.98 98.1608L216.921 96.8942C217.01 96.7748 217.179 96.7748 217.209 96.8942L217.518 98.1608C217.53 98.2082 217.567 98.2412 217.617 98.2484L218.965 98.4518C219.092 98.471 219.104 98.6324 218.985 98.7254L217.728 99.7118C217.681 99.7484 217.65 99.8018 217.646 99.854L217.538 101.247C217.527 101.377 217.365 101.478 217.263 101.416L216.176 100.758C216.136 100.734 216.08 100.734 216.027 100.758Z" fill="#C2D4D9"/>
<path d="M136.546 84.4011C138.052 84.4011 139.273 82.6993 139.273 80.6001C139.273 78.5008 138.052 76.7991 136.546 76.7991C135.04 76.7991 133.819 78.5008 133.819 80.6001C133.819 82.6993 135.04 84.4011 136.546 84.4011Z" fill="#202F7C"/>
<path d="M136.959 80.9307C136.959 80.9307 144.561 89.3589 144.561 90.6813C144.561 92.0031 142.082 91.8381 142.082 91.8381" stroke="#202F7C" stroke-width="1.1018" stroke-miterlimit="10"/>
<path d="M142.661 91.838C142.661 92.3858 142.217 92.8298 141.669 92.8298C141.121 92.8298 140.677 92.3858 140.677 91.838C140.677 91.2902 141.121 90.8462 141.669 90.8462C142.217 90.8462 142.661 91.2902 142.661 91.838Z" fill="#202F7C"/>
<path d="M123.442 190.493C126.142 195.151 134.612 198.552 144.649 198.552C154.687 198.552 163.157 195.151 165.857 190.493H123.442Z" fill="#4F57A0"/>
<path d="M180.703 166.599L175.613 190.069H172.502L175.33 167.165L180.703 166.599Z" fill="#A9A7E7"/>
<path d="M190.034 168.579H144.471V162.923H185.509C188.008 162.923 190.033 164.949 190.033 167.447L190.034 168.579Z" fill="#7A82CC"/>
<path d="M107.183 187.524L96.1553 134.489C95.7173 132.382 97.3259 130.405 99.4775 130.405H135.968C137.978 130.405 139.711 131.815 140.12 133.783L151.294 187.524" fill="#A9A7E7"/>
<path d="M182.121 193.342H112.826C110.487 193.342 108.429 191.799 107.775 189.553L107.183 187.524H182.121V193.342H182.121Z" fill="#A9A7E7"/>
<path d="M148.043 196.007H142.529V245.209H148.043V196.007Z" fill="#E2E7FF"/>
<path d="M148.043 205.126L142.529 209.58V196.007H148.043V205.126Z" fill="#4F57A0"/>
<path d="M147.874 237.876H145.857H145.353H143.337L122.667 246.083H168.544L147.874 237.876Z" fill="#E2E7FF"/>
<path d="M101.016 134.033H133.815" stroke="#4F57A0" stroke-miterlimit="10"/>
<path d="M137.215 137.833L142.815 166.033" stroke="#4F57A0" stroke-miterlimit="10"/>
<path d="M143.815 171.033L145.015 179.233" stroke="#4F57A0" stroke-miterlimit="10"/>
<path d="M296.722 86.6329H270.31C268.948 86.6329 267.908 85.4161 268.12 84.0703L268.32 82.8043C268.491 81.7267 269.419 80.9329 270.51 80.9329H296.922C298.284 80.9329 299.324 82.1503 299.112 83.4955L298.912 84.7615C298.741 85.8391 297.813 86.6329 296.722 86.6329Z" fill="#CAE5FF"/>
<path d="M271.416 83.8328H294.216" stroke="white" stroke-width="2" stroke-miterlimit="10"/>
<path d="M200.519 53.8328H193.319C189.895 53.8328 186.529 56.6084 185.801 60.0326C185.073 63.4568 187.259 66.2324 190.683 66.2324H192.246C193.993 70.3676 198.118 69.8324 198.118 69.8324C197.338 68.2778 197.172 67.0334 197.177 66.2324H197.883C201.307 66.2324 204.673 63.4568 205.401 60.0326C206.129 56.609 203.943 53.8328 200.519 53.8328Z" fill="#FF634D"/>
<path d="M190.256 58.8333H197.056" stroke="white" stroke-width="2" stroke-miterlimit="10"/>
<path d="M189.682 61.5332H200.732" stroke="white" stroke-width="2" stroke-miterlimit="10"/>
</g>
<defs>
<clipPath id="clip0_217_340">
<rect width="400" height="250" fill="white"/>
</clipPath>
</defs>
</svg>
