<svg width="36" height="29" viewBox="0 0 36 29" fill="none" xmlns="http://www.w3.org/2000/svg">
<path d="M31.3556 0H3.82386C1.712 0 1.31644e-08 1.66196 1.31644e-08 3.71209V6.68176C-5.17876e-05 6.95345 0.152773 7.20347 0.398446 7.33361L17.2234 16.2426C17.4517 16.3636 17.7277 16.3636 17.9561 16.2426L34.781 7.33361C35.0267 7.20347 35.1795 6.95345 35.1795 6.68176V3.71209C35.1795 1.66196 33.4675 0 31.3556 0Z" fill="#473BF0"/>
<path d="M18.6887 17.839C18.0045 18.2141 17.178 18.2141 16.4938 17.839L0.0175897 8.79492L0 8.80647V25.0486C0 27.1743 1.712 28.8975 3.82386 28.8975H31.3556C33.4675 28.8975 35.1795 27.1743 35.1795 25.0486V8.80647L35.1619 8.79569L18.6887 17.839Z" fill="#473BF0"/>
</svg>
