<svg width="106" height="106" viewBox="0 0 106 106" fill="none" xmlns="http://www.w3.org/2000/svg">
<g clip-path="url(#clip0_213_154)">
<path d="M52.8835 -0.077601C53.047 -0.0775572 53.2105 -0.0775134 53.379 -0.0774683C56.0833 -0.0702618 58.6565 0.133595 61.2812 0.828161C61.4302 0.866925 61.5791 0.905688 61.7326 0.945627C64.742 1.75401 67.717 2.95388 70.3906 4.55472C70.5721 4.66254 70.7535 4.77036 70.9405 4.88144C72.944 6.11346 74.8965 7.51277 76.5174 9.22506C76.8299 9.55903 76.8299 9.55903 77.3261 9.9246C83.1834 14.7568 86.4675 23.3288 87.3672 30.6407C87.8395 35.8585 87.3189 41.0236 85.5039 45.961C85.453 46.1003 85.4021 46.2397 85.3496 46.3832C83.6961 50.822 81.277 54.5166 78.0507 57.9688C77.8453 57.8839 77.6398 57.7991 77.428 57.7116C77.144 57.5988 76.8598 57.4861 76.5756 57.3736C76.3751 57.2899 76.3751 57.2899 76.1705 57.2045C73.7724 56.2682 71.2241 56.2583 68.689 56.2874C68.0051 56.2942 67.3213 56.2936 66.6374 56.2935C65.3717 56.2935 64.1061 56.2967 62.8405 56.3118C61.9524 56.322 61.0647 56.3231 60.1766 56.3184C59.8416 56.3183 59.5065 56.3214 59.1716 56.3282C57.4615 56.3613 56.1808 56.3289 54.7899 55.1938C54.4655 54.8805 54.1443 54.5638 53.8281 54.2422C50.9928 52.0468 47.5532 50.5696 44.0976 49.6875C43.8406 49.6214 43.5836 49.5552 43.3188 49.487C37.1361 48.0795 30.1073 49.0754 24.5979 52.2237C24.2226 52.3789 24.2226 52.3789 23.6015 52.1719C23.364 51.8497 23.364 51.8497 23.1389 51.4295C23.0129 51.1948 23.0129 51.1948 22.8843 50.9554C22.7965 50.7847 22.7086 50.6139 22.6181 50.438C22.5267 50.2609 22.4352 50.0837 22.341 49.9012C18.3537 42.0005 17.5328 32.3344 20.3064 23.9066C20.4363 23.5281 20.5696 23.1507 20.7031 22.7735C20.7767 22.5546 20.8504 22.3358 20.9263 22.1103C23.7645 14.1553 30.1051 7.14286 37.6724 3.41282C39.7583 2.42812 41.8746 1.64455 44.0976 1.03519C44.3162 0.974077 44.5348 0.912963 44.76 0.849996C47.4621 0.132959 50.1025 -0.0844933 52.8835 -0.077601ZM50.7226 7.24613C50.1714 8.01355 50.0258 8.5292 50.0409 9.46929C50.0429 9.69013 50.0449 9.91097 50.0469 10.1385C50.0521 10.3668 50.0573 10.5951 50.0627 10.8304C50.0655 11.0627 50.0683 11.295 50.0712 11.5343C50.0785 12.1063 50.0887 12.6781 50.1015 13.25C49.9152 13.3074 49.729 13.3648 49.537 13.4239C47.0055 14.3211 45.4681 16.3333 44.3313 18.6749C43.5287 20.6636 43.5977 23.2563 44.3176 25.2578C45.4673 27.852 47.3115 29.5388 49.8945 30.6407C51.0816 31.0936 52.2484 31.2017 53.5054 31.3321C54.4654 31.5102 55.0489 31.788 55.6396 32.5686C56.3089 34.0076 56.0114 35.0879 55.5232 36.5152C55.1705 36.9977 54.805 37.0775 54.2422 37.2657C52.3715 37.5408 51.1866 37.1203 49.6875 36.0235C48.6505 35.2919 47.9984 34.9028 46.6985 35.0918C45.6629 35.5278 45.0132 36.2626 44.5117 37.2657C44.4343 38.1948 44.4105 38.7152 44.8222 39.5559C46.2675 41.2541 47.9017 42.1417 49.8945 43.0625C49.8974 43.2691 49.8974 43.2691 49.9004 43.4799C49.9115 44.1087 49.9288 44.7371 49.9463 45.3658C49.9492 45.5825 49.9521 45.7992 49.9552 46.0224C49.9956 47.3009 50.0748 48.0931 50.9297 49.0664C51.7241 49.7674 52.5101 49.7937 53.5305 49.7603C54.2852 49.6515 54.7165 49.3655 55.2773 48.8594C55.9761 47.9196 56.1191 47.0581 56.1054 45.9092C56.0879 43.3209 56.0879 43.3209 56.6675 42.6541C57.1277 42.4285 57.1277 42.4285 57.6355 42.2425C59.4343 41.5262 60.6707 39.7775 61.4882 38.0938C61.5935 37.8888 61.5935 37.8888 61.7009 37.6797C62.4949 35.8064 62.4145 33.1522 61.7729 31.2488C60.7392 28.8979 59.1344 26.9551 56.7524 25.8919C55.5237 25.4307 54.2947 25.2303 53 25.0508C51.813 24.8579 51.0848 24.5661 50.3086 23.6016C50.0085 22.7014 49.9946 21.851 50.1015 20.9102C50.5239 20.0805 50.9686 19.5346 51.7578 19.0469C52.9 18.8511 54.0787 18.8479 55.0962 19.448C55.9605 20.0768 56.7387 20.8194 57.5134 21.5539C58.2379 22.1768 58.8961 22.2132 59.8344 22.1961C60.7342 22.1006 61.2163 21.5904 61.8635 21.0008C62.4305 20.2813 62.4538 19.6052 62.4005 18.7113C62.1177 17.0552 60.3362 15.627 59.0338 14.6863C58.1497 14.1136 57.3017 13.6183 56.3125 13.25C56.3009 12.8565 56.3009 12.8565 56.289 12.4551C56.2754 12.1033 56.2617 11.7515 56.2478 11.3997C56.2408 11.1417 56.2408 11.1417 56.2336 10.8785C56.1719 9.43698 56.0229 7.97861 54.9538 6.93558C53.5444 6.06827 51.9805 6.11093 50.7226 7.24613Z" fill="#473BF0"/>
<path d="M49.9546 58.5106C50.4265 58.8725 50.8862 59.2454 51.344 59.625C51.7493 59.9572 52.1548 60.2893 52.5603 60.6214C52.7476 60.7764 52.935 60.9315 53.128 61.0912C54.4379 62.1456 55.613 62.1399 57.2462 62.1355C57.4187 62.1359 57.5912 62.1363 57.769 62.1367C58.1421 62.1375 58.5152 62.1379 58.8883 62.138C59.684 62.1387 60.4796 62.1431 61.2753 62.1474C62.7545 62.1552 64.2337 62.1617 65.7129 62.1613C66.744 62.1611 67.775 62.166 68.806 62.1741C69.1972 62.1762 69.5885 62.1766 69.9797 62.175C73.8694 62.1608 73.8694 62.1608 75.5666 63.3516C75.7545 63.4669 75.9424 63.5822 76.1359 63.701C77.5264 65.13 78.1738 66.7505 78.258 68.7344C78.1759 70.464 77.4537 72.0542 76.2031 73.2592C74.689 74.4499 73.3744 74.8311 71.4799 74.818C71.2827 74.8191 71.0856 74.8202 70.8825 74.8213C70.4564 74.8234 70.0303 74.824 69.6042 74.8233C68.9287 74.8224 68.2533 74.8253 67.5778 74.8292C66.1432 74.8368 64.7087 74.8397 63.2741 74.8418C61.6125 74.8443 59.9509 74.8488 58.2893 74.8584C57.6259 74.8612 56.9625 74.8603 56.2991 74.8593C55.8895 74.8613 55.4798 74.8634 55.0702 74.8657C54.8875 74.8644 54.7049 74.8631 54.5166 74.8618C53.0706 74.876 51.6621 75.0412 50.6064 76.097C50.2052 77.0565 50.1505 77.854 50.3088 78.8789C50.6032 79.5829 50.8231 79.9708 51.5228 80.306C52.7348 80.722 53.8156 80.8313 55.0918 80.8226C55.292 80.8237 55.4923 80.8248 55.6986 80.8259C56.3554 80.8286 57.0121 80.8268 57.6689 80.8247C58.1291 80.8251 58.5893 80.8257 59.0495 80.8265C60.0124 80.8274 60.9752 80.8261 61.9381 80.8232C63.1667 80.8197 64.3952 80.8217 65.6238 80.8254C66.5739 80.8277 67.524 80.8269 68.474 80.8253C68.9268 80.8249 69.3795 80.8254 69.8322 80.8269C74.3442 80.8992 74.3442 80.8992 78.258 78.8789C78.7745 78.3566 79.2305 77.802 79.6814 77.2227C79.8673 76.9905 79.8673 76.9905 80.057 76.7536C80.4264 76.2911 80.7919 75.8258 81.1565 75.3594C81.3532 75.1092 81.55 74.859 81.7468 74.6089C82.021 74.2599 82.2948 73.9106 82.5676 73.5604C83.3226 72.5933 84.1004 71.6461 84.883 70.7012C85.7638 69.6376 86.6346 68.5682 87.4838 67.4793C88.7331 65.8774 90.0167 64.3042 91.301 62.7305C91.659 62.2916 92.0169 61.8526 92.3744 61.4133C92.6055 61.1295 92.8371 60.8461 93.069 60.5629C93.6567 59.8431 94.215 59.1131 94.7558 58.357C95.6082 57.2419 96.8127 56.5456 98.133 56.1055C100.444 55.9471 102.191 56.0401 104.085 57.49C105.266 58.5693 105.915 59.9653 106.064 61.5401C106.186 65.0729 104.209 67.3082 102.237 70.066C101.66 70.8785 101.1 71.7017 100.54 72.5257C99.5391 73.9939 98.5281 75.4546 97.5119 76.9121C96.5047 78.357 95.5023 79.8047 94.51 81.2598C93.3786 82.9187 92.234 84.5682 91.0841 86.2143C90.4232 87.1616 89.7664 88.111 89.1231 89.0704C86.5501 92.9063 83.9574 96.0877 79.7072 98.1328C79.4903 98.2461 79.4903 98.2461 79.2689 98.3617C76.1719 99.8868 72.9833 99.9059 69.6133 99.8831C69.1253 99.8829 68.6373 99.883 68.1493 99.8835C66.8342 99.8837 65.5192 99.8789 64.204 99.8731C62.966 99.8684 61.728 99.8676 60.4899 99.8667C58.0404 99.8649 55.5908 99.8594 53.1412 99.8516C50.7639 99.8439 48.3867 99.8381 46.0094 99.8346C45.8624 99.8344 45.7155 99.8341 45.5641 99.8339C44.8269 99.8328 44.0897 99.8318 43.3525 99.8308C37.252 99.8222 31.1515 99.8076 25.051 99.7891C24.9978 94.4425 24.9576 89.0959 24.933 83.749C24.9213 81.2664 24.9052 78.7839 24.8792 76.3014C24.8565 74.1377 24.8418 71.974 24.8367 69.8102C24.8337 68.6643 24.8268 67.5188 24.8102 66.373C24.7947 65.2944 24.79 64.2162 24.7934 63.1374C24.7928 62.7417 24.7883 62.346 24.7795 61.9504C24.7168 58.9607 24.7168 58.9607 25.5475 58.039C26.1313 57.6589 26.6787 57.3881 27.3283 57.1407C27.4687 57.0726 27.609 57.0046 27.7536 56.9344C34.7106 53.5642 43.5932 54.0164 49.9546 58.5106Z" fill="#473BF0"/>
<path d="M4.01303 56.0157C4.3267 56.0141 4.3267 56.0141 4.64671 56.0124C5.08906 56.0111 5.53141 56.0114 5.97376 56.0131C6.64446 56.0149 7.31479 56.009 7.98544 56.0024C8.41676 56.002 8.84808 56.0022 9.27939 56.0028C9.47723 56.0004 9.67507 55.9981 9.87891 55.9957C12.3435 56.0207 14.3141 56.9778 16.1486 58.5899C18.8166 61.4261 19.0786 64.5585 19.0771 68.2947C19.0778 68.603 19.0785 68.9113 19.0792 69.2196C19.0811 70.0525 19.0816 70.8854 19.0817 71.7182C19.0818 72.2398 19.0823 72.7614 19.0828 73.283C19.0847 75.1061 19.0856 76.9292 19.0854 78.7523C19.0853 80.4461 19.0875 82.1399 19.0908 83.8337C19.0935 85.2928 19.0946 86.7518 19.0944 88.2108C19.0944 89.0801 19.095 89.9494 19.0972 90.8187C19.0992 91.6369 19.0992 92.4551 19.0977 93.2734C19.0975 93.5718 19.0979 93.8702 19.0992 94.1686C19.1131 97.6946 18.6749 100.835 16.1874 103.504C15.1892 104.434 14.0912 105.061 12.8361 105.586C12.6662 105.657 12.4962 105.729 12.3211 105.803C11.3332 106.071 10.3998 106.063 9.38048 106.062C9.06283 106.064 9.06283 106.064 8.73877 106.065C8.29244 106.066 7.84611 106.066 7.39978 106.065C6.71734 106.065 6.03509 106.07 5.35267 106.075C4.91826 106.075 4.48384 106.075 4.04942 106.075C3.84582 106.077 3.64222 106.079 3.43245 106.081C1.581 106.068 1.581 106.068 0.82831 105.379C0.0360411 104.229 -0.119717 103.407 -0.104974 102.028C-0.106266 101.841 -0.107558 101.654 -0.108889 101.461C-0.112182 100.837 -0.109579 100.213 -0.10697 99.5881C-0.108093 99.1395 -0.109568 98.6908 -0.111368 98.2422C-0.115141 97.0253 -0.11368 95.8084 -0.111054 94.5914C-0.108956 93.3175 -0.110902 92.0436 -0.112202 90.7696C-0.113708 88.6304 -0.111723 86.4911 -0.107779 84.3518C-0.103272 81.879 -0.104732 79.4062 -0.109291 76.9334C-0.11305 74.8098 -0.11358 72.6861 -0.111413 70.5625C-0.110122 69.2944 -0.109948 68.0263 -0.112685 66.7582C-0.115078 65.5659 -0.113416 64.3737 -0.108632 63.1815C-0.107538 62.7441 -0.107851 62.3067 -0.109678 61.8693C-0.111943 61.2719 -0.1091 60.6747 -0.104974 60.0773C-0.106821 59.9045 -0.108668 59.7317 -0.110572 59.5536C-0.0948456 58.3785 0.159118 57.6972 0.82831 56.7266C1.74515 55.8929 2.83928 56.0122 4.01303 56.0157Z" fill="#473BF0"/>
</g>
<defs>
<clipPath id="clip0_213_154">
<rect width="106" height="106" fill="white"/>
</clipPath>
</defs>
</svg>
