<svg width="96" height="96" viewBox="0 0 96 96" fill="none" xmlns="http://www.w3.org/2000/svg">
<path d="M58.7013 8.17117C59.2417 8.65185 59.7691 9.14361 60.2931 9.64222C60.8244 10.151 60.8244 10.151 61.3833 10.5852C67.3466 15.3717 70.7153 24.2027 71.6661 31.5503C72.7021 41.0463 70.0274 50.2769 64.1742 57.7786C58.2726 64.9916 50.2016 69.6783 40.941 70.9353C39.4182 71.0867 37.8964 71.0876 36.3673 71.0804C36.198 71.0799 36.0288 71.0795 35.8544 71.079C33.369 71.0685 30.9618 70.9975 28.5389 70.3946C28.2818 70.3329 28.2818 70.3329 28.0196 70.2699C25.3714 69.619 22.9086 68.7003 20.4647 67.4961C20.3276 67.4294 20.1905 67.3627 20.0492 67.294C13.9665 64.3028 8.99209 59.4364 5.55843 53.625C5.48107 53.4942 5.40371 53.3633 5.32401 53.2285C3.26972 49.6919 1.91401 45.8492 1.21077 41.8243C1.16434 41.5699 1.1179 41.3156 1.07006 41.0536C-0.303604 32.1059 1.91213 22.6766 7.17182 15.3202C13.1453 7.25343 21.4908 2.12272 31.4351 0.560341C40.9457 -0.696231 51.3505 1.86751 58.7013 8.17117ZM17.3592 16.3594C17.1919 16.5113 17.0246 16.6631 16.8521 16.8196C12.1459 21.2451 9.37581 27.972 9.07796 34.3711C9.06702 34.5796 9.05608 34.788 9.04481 35.0027C8.85308 42.0966 11.5193 48.8642 16.3354 54.0326C16.4683 54.1714 16.6012 54.3102 16.7381 54.4532C16.9047 54.6282 17.0712 54.8033 17.2428 54.9837C17.4178 55.1502 17.5929 55.3167 17.7733 55.4883C17.9097 55.6212 18.046 55.7541 18.1865 55.8911C21.4524 58.9692 25.4479 61.0073 29.7811 62.1133C30.0381 62.1795 30.2951 62.2457 30.5599 62.3139C34.7307 63.2632 39.341 63.0482 43.4452 61.9063C43.5841 61.8686 43.7231 61.831 43.8663 61.7922C50.5819 59.9181 56.4575 55.1836 59.93 49.1795C63.4524 42.8781 64.4915 35.5427 62.5308 28.5532C61.1669 23.9707 58.9485 20.2642 55.66 16.7735C55.5359 16.636 55.4118 16.4986 55.2839 16.357C51.9656 12.8236 47.2805 10.4606 42.617 9.32035C42.3962 9.26601 42.3962 9.26601 42.1708 9.21057C33.2085 7.12391 23.9137 10.0875 17.3592 16.3594Z" fill="#473BF0"/>
<path d="M73.4648 63.7695C74.3136 64.1939 74.9473 64.7153 75.6516 65.3352C75.9129 65.5624 76.1744 65.7894 76.4361 66.0161C76.6291 66.1836 76.6291 66.1836 76.8261 66.3544C77.3156 66.7746 77.8153 67.1813 78.3171 67.5867C79.3742 68.4444 80.4 69.335 81.4258 70.2295C82.1782 70.8841 82.9376 71.5267 83.7129 72.1543C84.7551 72.9986 85.7677 73.8739 86.7791 74.7547C87.6193 75.4859 88.4642 76.2109 89.3157 76.929C89.4235 77.0201 89.5313 77.1113 89.6423 77.2052C90.103 77.5948 90.564 77.984 91.0267 78.3712C91.4148 78.696 91.8016 79.0222 92.1882 79.3486C92.3057 79.4462 92.4231 79.5438 92.5441 79.6443C93.6851 80.6112 94.7508 81.6295 95.2678 83.0623C95.3627 83.3165 95.3627 83.3165 95.4595 83.5758C96.1961 85.8308 95.9404 88.2706 94.9435 90.4135C93.8618 92.3411 92.439 93.684 90.4414 94.6172C90.3146 94.681 90.1879 94.7448 90.0573 94.8105C87.9855 95.7337 85.4872 95.6322 83.387 94.8768C81.485 94.036 80.1641 92.441 78.8994 90.847C78.4508 90.2908 77.984 89.7616 77.502 89.2344C76.8761 88.5471 76.2753 87.8478 75.6904 87.1252C74.6107 85.792 73.4828 84.5028 72.3565 83.209C71.8218 82.5931 71.2909 81.9739 70.7605 81.3542C70.6589 81.2355 70.5572 81.1168 70.4525 80.9945C70.2478 80.7553 70.0431 80.5162 69.8385 80.2769C69.4258 79.7947 69.0127 79.3128 68.5996 78.8311C68.3939 78.591 68.1883 78.3508 67.983 78.1105C67.4438 77.4797 66.9011 76.8524 66.353 76.2294C66.2396 76.0996 66.1262 75.9697 66.0093 75.836C65.7926 75.5881 65.5748 75.3411 65.3559 75.0952C64.7676 74.4196 64.4909 73.942 64.1484 73.0859C67.2229 70.0115 70.2973 66.9371 73.4648 63.7695Z" fill="#473BF0"/>
<path d="M33.511 39.0632C33.7288 39.0618 33.9465 39.0605 34.1708 39.059C34.6302 39.0569 35.0895 39.056 35.5489 39.056C36.2459 39.0551 36.9426 39.0476 37.6395 39.0398C38.0878 39.0385 38.5361 39.0377 38.9844 39.0373C39.19 39.0344 39.3956 39.0314 39.6075 39.0283C41.5806 39.041 43.314 39.5848 44.8945 40.789C45.0611 40.9128 45.2276 41.0367 45.3992 41.1643C46.993 42.5248 47.671 44.3661 48 46.3789C48 47.6769 48 48.975 48 50.3125C40.2798 50.3125 32.5596 50.3125 24.6055 50.3125C24.6055 43.8379 24.6055 43.8379 26.8594 41.402C28.8192 39.5923 30.9028 39.069 33.511 39.0632Z" fill="#473BF0"/>
<path d="M39.0977 21.7422C40.5547 22.7187 41.4338 23.9557 41.7891 25.6758C41.9632 27.427 41.6258 28.9172 40.5081 30.2952C39.5057 31.3613 38.2724 31.9906 36.8115 32.1358C34.9547 32.1764 33.574 31.7125 32.2091 30.4318C31.0977 29.162 30.7394 27.7264 30.7591 26.0721C30.9054 24.534 31.7349 23.1687 32.8868 22.1563C34.8206 20.928 37.0176 20.7021 39.0977 21.7422Z" fill="#473BF0"/>
<path d="M66.6328 57.9727C67.5143 58.3314 68.1651 58.9577 68.8713 59.5771C69.0549 59.7365 69.0549 59.7365 69.2421 59.899C69.4888 60.1132 69.7352 60.3276 69.9814 60.5424C70.5875 61.0695 71.198 61.5914 71.8086 62.1133C71.5047 62.8123 71.1148 63.2766 70.5815 63.8179C70.4142 63.9885 70.247 64.159 70.0747 64.3347C69.8033 64.6078 69.8033 64.6078 69.5264 64.8864C69.2476 65.168 69.2476 65.168 68.9632 65.4552C68.5701 65.8513 68.1765 66.2469 67.7822 66.6418C67.2766 67.1486 66.7744 67.6585 66.273 68.1694C65.7941 68.6559 65.3115 69.1388 64.8294 69.6222C64.6493 69.8063 64.4692 69.9905 64.2836 70.1802C64.1151 70.3475 63.9465 70.5148 63.7729 70.6871C63.6252 70.8359 63.4775 70.9846 63.3253 71.1379C62.9062 71.4297 62.9062 71.4297 62.4645 71.4004C61.8788 71.1309 61.6019 70.7079 61.2112 70.2004C60.4193 69.1932 59.5888 68.2441 58.7139 67.3085C58.3516 66.875 58.3516 66.875 58.1445 66.2539C58.3891 66.073 58.3891 66.073 58.6387 65.8884C61.6747 63.6146 64.4226 61.0756 66.6328 57.9727Z" fill="#473BF0"/>
</svg>
