<svg width="106" height="106" viewBox="0 0 106 106" fill="none" xmlns="http://www.w3.org/2000/svg">
<path d="M106 74.4023C106 76.7448 104.083 78.6614 101.741 78.6614H94.5134V94.5135H81.2301V89.8551C81.2301 86.0884 78.1555 83.0258 74.4022 83.0258C70.6354 83.0258 67.5742 86.0884 67.5742 89.8551V94.5135H54.3042V81.2303H58.9347C58.948 81.2303 58.948 81.2303 58.948 81.2303H58.976C62.728 81.2303 65.804 78.1557 65.804 74.4023C65.804 70.6356 62.728 67.5743 58.976 67.5743H54.3042V54.2777H70.1297V47.0637C70.1297 44.7079 72.045 42.7913 74.4022 42.7913C75.5734 42.7913 76.6382 43.2704 77.4102 44.0424C78.1822 44.8144 78.6613 45.8792 78.6613 47.0637V54.2777H94.5134V70.1298H101.741C104.083 70.1298 106 72.0464 106 74.4023Z" fill="#473BF0"/>
<path d="M63.2089 74.4023C63.2089 76.7448 61.3056 78.6614 58.9498 78.6614H51.7225V94.5135H35.897V101.741C35.897 104.097 33.9804 106 31.6379 106C29.282 106 27.3654 104.083 27.3654 101.741V94.5135H11.5133V78.6614H4.28602C1.94348 78.6614 0.0268555 76.7448 0.0268555 74.4023C0.0268555 72.0451 1.94348 70.1298 4.28602 70.1298H11.5133V54.2777H27.3654V47.0637C27.3654 44.7079 29.2687 42.7913 31.6246 42.7913C33.9671 42.7913 35.8704 44.7079 35.8704 47.0637V54.2777H51.7225V70.1298H58.9498C61.3056 70.1298 63.2089 72.0464 63.2089 74.4023Z" fill="#473BF0"/>
<path d="M40.2358 31.5977C40.2358 35.3644 43.2971 38.4257 47.0638 38.4257H51.7223V51.7223H38.4656V47.0638C38.4656 43.2971 35.391 40.2358 31.6376 40.2358C31.6243 40.2358 31.6243 40.2358 31.6243 40.2358C31.611 40.2358 31.611 40.2358 31.611 40.2358C27.8443 40.2358 24.783 43.2971 24.783 47.0638V51.7223H11.4864V35.8702H4.25917C1.91663 35.8702 0 33.9536 0 31.611C0 29.2552 1.91663 27.3385 4.25917 27.3385H11.4864V11.4864H27.3385V4.25917C27.3385 1.91663 29.2552 0 31.611 0C33.9536 0 35.8702 1.91663 35.8702 4.25917V11.4864H51.7223V24.783H47.0638C43.2971 24.783 40.2358 27.8443 40.2358 31.5977Z" fill="#473BF0"/>
<path d="M83.0137 31.5977C83.0137 35.3644 86.0896 38.4257 89.8416 38.4257H94.5148V51.7223H81.2315V47.0638C81.2315 45.1738 80.4595 43.4701 79.2217 42.2323C77.9825 40.9945 76.2802 40.2358 74.4035 40.2358C70.6368 40.2358 67.5755 43.2971 67.5755 47.0638V51.7223H54.2789V35.8702H47.0516C44.7091 35.8702 42.7925 33.9536 42.7925 31.5977C42.7925 29.2552 44.7091 27.3385 47.0516 27.3385H54.2789V11.4864H70.131V4.25917C70.131 1.91663 72.0463 0 74.4035 0C76.746 0 78.6627 1.91663 78.6627 4.25917V11.4864H94.5148V24.783H89.8416C86.0883 24.783 83.0137 27.8443 83.0137 31.5977Z" fill="#473BF0"/>
</svg>
