<svg width="78" height="78" viewBox="0 0 78 78" fill="none" xmlns="http://www.w3.org/2000/svg">
<circle cx="39" cy="39" r="39" fill="#F8F8FF"/>
<path d="M52.3556 25H24.8239C22.712 25 21 26.662 21 28.7121V31.6818C20.9999 31.9535 21.1528 32.2035 21.3984 32.3336L38.2234 41.2426C38.4517 41.3636 38.7277 41.3636 38.9561 41.2426L55.781 32.3336C56.0267 32.2035 56.1795 31.9535 56.1795 31.6818V28.7121C56.1795 26.662 54.4675 25 52.3556 25Z" fill="#473BF0"/>
<path d="M39.6887 42.839C39.0045 43.2141 38.178 43.2141 37.4938 42.839L21.0176 33.7949L21 33.8065V50.0486C21 52.1743 22.712 53.8975 24.8239 53.8975H52.3556C54.4675 53.8975 56.1795 52.1743 56.1795 50.0486V33.8065L56.1619 33.7957L39.6887 42.839Z" fill="#473BF0"/>
</svg>
