<svg width="113" height="115" viewBox="0 0 113 115" fill="none" xmlns="http://www.w3.org/2000/svg">
<path d="M93.844 36.4655C94.4943 37.9638 93.6706 39.7405 92.0754 40.4328C91.9488 40.4877 91.8193 40.4666 91.6833 40.4998C87.7913 38.3957 82.8766 38.0256 78.2936 40.0146C70.6976 43.3112 67.0487 51.6814 70.1209 58.7603L81.1658 84.2097C84.2286 91.2669 92.8093 94.3295 100.405 91.0328L101.089 90.7361C102 90.3405 102.761 89.8042 103.414 89.1595L103.423 89.1812C104.076 88.5366 104.72 87.8702 105.328 87.1931C107.399 84.8235 109.098 82.151 110.367 79.2519C112.575 74.2167 113.073 68.917 112.316 63.7751C112.282 63.5577 112.263 63.3075 112.229 63.0901C110.502 51.9696 105.877 39.3716 100.425 28.6807C93.9886 16.0688 84.6295 7.53809 72.6286 3.25041C72.6192 3.22869 72.5939 3.23968 72.5591 3.22895C69.8179 2.25108 67.0348 1.52358 64.2006 1.02473C61.2621 0.493717 58.2818 0.213071 55.3039 0.21524C47.6634 0.150818 39.9488 1.7184 32.6567 4.88318C25.3138 8.06994 18.9504 12.6121 13.779 18.2369C11.7529 20.4322 9.92239 22.8008 8.29384 25.2881C6.7224 27.699 5.32763 30.2396 4.1696 32.9098C4.15371 32.9425 4.15371 32.9425 4.13781 32.9752C-1.02183 44.6589 -1.15777 57.3104 3.65812 70.6256C7.75244 81.9315 13.786 93.8925 20.729 102.749C20.8644 102.923 21.0093 103.118 21.1701 103.28C24.4087 107.345 28.6199 110.601 33.8057 112.428C36.7901 113.481 39.9023 114.065 43.0475 114.171C43.9673 114.211 44.8683 114.207 45.801 114.137L45.7916 114.116C46.7084 114.079 47.6447 113.879 48.5309 113.494L49.2146 113.198C56.8106 109.901 60.4248 101.52 57.3714 94.4847L46.3453 69.0788C43.2825 62.0216 34.6671 58.9483 27.0711 62.245C22.5135 64.2229 19.4017 68.0765 18.3057 72.3454C18.1791 72.4003 18.0902 72.5421 17.9636 72.5971C16.3684 73.2894 14.5081 72.6775 13.8579 71.1792C13.8296 71.1141 13.8867 71.0377 13.8679 70.9942C13.4096 69.7997 12.9673 68.5724 12.5343 67.3669C11.2385 63.8263 10.4072 60.3164 9.94876 56.9028C9.08721 50.6192 9.66017 44.5903 11.6358 38.8816C11.9578 37.8903 12.3493 36.9205 12.7661 35.9397C13.256 34.8497 13.7552 33.7815 14.3334 32.7564C14.5972 32.2549 14.8798 31.7968 15.1529 31.317C17.0617 28.0888 19.3745 25.0981 22.0435 22.4431C26.0439 18.4878 30.7916 15.2145 36.1594 12.8848C41.5273 10.5552 47.1514 9.30136 52.7821 9.10264C56.5443 8.9665 60.3084 9.31985 63.97 10.1305C64.5071 10.2587 65.0442 10.3869 65.5559 10.5261C66.6995 10.8039 67.8207 11.1688 68.9514 11.5555C69.9525 11.9209 70.9283 12.2974 71.8723 12.7392C77.3914 15.1952 82.1609 18.9054 86.1622 23.8264C88.3424 26.4928 90.3543 29.4646 92.0647 32.851C92.6495 33.9906 93.0666 35.2288 93.8287 36.2915C93.7875 36.3352 93.8063 36.3786 93.844 36.4655C93.8346 36.4438 93.8346 36.4438 93.844 36.4655Z" fill="#473BF0"/>
</svg>
