<svg width="400" height="250" viewBox="0 0 400 250" fill="none" xmlns="http://www.w3.org/2000/svg">
<g clip-path="url(#clip0_217_186)">
<rect width="400" height="250" fill="#F8F8FF"/>
<path d="M305.734 165.872C283.169 219.003 223.061 248.768 170.935 240.739C162.453 239.433 139.199 235.541 118.611 217.181C78.9787 181.837 70.5029 111.85 102.473 62.5288C125.742 26.6316 167.455 6.28278 207.089 7.3006C215.626 7.51984 248.345 8.87111 277.099 32.5809C281.322 36.0635 290.637 44.3389 299.032 57.4672C318.746 88.295 320.44 131.245 305.734 165.872Z" fill="url(#paint0_linear_217_186)"/>
<g opacity="0.3">
<path d="M169.396 44.5662C168.974 44.5376 168.632 44.1937 168.617 43.7614C168.582 42.8159 168.588 41.8547 168.634 40.9048C168.656 40.4426 169.049 40.0862 169.511 40.1086C169.517 40.109 169.522 40.1094 169.528 40.1097C169.982 40.1405 170.329 40.5294 170.307 40.986C170.263 41.8886 170.258 42.8015 170.291 43.6997C170.308 44.1619 169.947 44.5506 169.484 44.5675C169.455 44.5689 169.425 44.5682 169.396 44.5662ZM169.943 37.2894C169.911 37.2872 169.878 37.283 169.845 37.2768C169.39 37.1916 169.09 36.7538 169.176 36.2991C169.351 35.3652 169.568 34.4295 169.821 33.5182C169.944 33.0723 170.404 32.812 170.851 32.9345C171.297 33.0582 171.558 33.5199 171.435 33.9654C171.195 34.8317 170.989 35.7205 170.822 36.6082C170.743 37.0298 170.361 37.3177 169.943 37.2894ZM172.079 30.314C171.986 30.3077 171.893 30.2856 171.802 30.2464C171.378 30.0619 171.183 29.5686 171.368 29.1442C171.745 28.2745 172.166 27.4103 172.617 26.5758C172.838 26.169 173.346 26.0182 173.753 26.2376C174.159 26.4577 174.311 26.9661 174.091 27.3729C173.662 28.1653 173.263 28.9858 172.904 29.8118C172.759 30.1457 172.423 30.3373 172.079 30.314ZM175.722 23.9902C175.568 23.9798 175.416 23.9268 175.283 23.8285C174.91 23.5541 174.831 23.0295 175.105 22.6572C175.669 21.8936 176.272 21.1451 176.898 20.4325C177.203 20.0856 177.732 20.0512 178.08 20.3563C178.427 20.6615 178.461 21.1908 178.156 21.5384C177.562 22.2151 176.989 22.9258 176.454 23.6518C176.277 23.8907 175.998 24.0088 175.722 23.9902ZM180.684 18.6375C180.468 18.6229 180.258 18.5253 180.106 18.3488C179.804 17.9984 179.843 17.4695 180.193 17.1675C180.91 16.5494 181.664 15.953 182.433 15.3958C182.807 15.124 183.331 15.2074 183.603 15.5823C183.874 15.9569 183.79 16.4806 183.416 16.7523C182.685 17.2818 181.969 17.8486 181.287 18.436C181.113 18.5859 180.896 18.6519 180.684 18.6375ZM186.705 14.516C186.426 14.4971 186.162 14.3388 186.021 14.0735C185.804 13.6648 185.959 13.1579 186.368 12.9406C187.205 12.4955 188.072 12.0808 188.944 11.7083C189.37 11.5266 189.862 11.7243 190.043 12.1498C190.225 12.575 190.027 13.0673 189.602 13.2491C188.773 13.6031 187.95 13.9969 187.154 14.4199C187.011 14.496 186.856 14.5262 186.705 14.516ZM217.464 14.6019C217.348 14.5941 217.233 14.562 217.124 14.5034C216.332 14.0766 215.51 13.6785 214.682 13.3206C214.257 13.137 214.062 12.6441 214.245 12.2196C214.429 11.7948 214.922 11.5994 215.347 11.783C216.219 12.1599 217.084 12.579 217.918 13.0284C218.326 13.2479 218.478 13.756 218.259 14.1632C218.098 14.4618 217.782 14.6235 217.464 14.6019ZM193.486 11.8332C193.139 11.8097 192.83 11.5703 192.734 11.2162C192.613 10.7695 192.877 10.3096 193.324 10.1887C194.239 9.94084 195.176 9.72984 196.109 9.56157C196.565 9.48159 197 9.78165 197.082 10.2372C197.165 10.6924 196.862 11.128 196.407 11.2104C195.521 11.3701 194.631 11.5705 193.762 11.8057C193.669 11.8305 193.576 11.8393 193.486 11.8332ZM210.691 11.8872C210.636 11.8835 210.58 11.8744 210.525 11.8592C209.657 11.6203 208.766 11.416 207.879 11.2512C207.424 11.1666 207.124 10.7294 207.208 10.2747C207.293 9.82 207.73 9.51741 208.185 9.60403C209.118 9.77744 210.055 9.99248 210.969 10.2436C211.415 10.3663 211.677 10.8275 211.554 11.2734C211.447 11.664 211.08 11.9135 210.691 11.8872ZM200.696 10.7323C200.274 10.7037 199.933 10.3608 199.917 9.92907C199.899 9.46679 200.259 9.07767 200.722 9.05942C201.668 9.02293 202.629 9.02671 203.577 9.07128C203.583 9.07136 203.589 9.07179 203.595 9.07212C204.049 9.10282 204.396 9.49076 204.375 9.94682C204.353 10.4091 203.961 10.7662 203.499 10.7444C202.598 10.7023 201.685 10.6988 200.786 10.7337C200.756 10.7347 200.726 10.7343 200.696 10.7323Z" fill="#BDD0FB"/>
<path d="M222.369 17.8487C222.204 17.8375 222.041 17.778 221.903 17.667C221.566 17.3969 221.217 17.1296 220.867 16.8718C220.495 16.5976 220.415 16.0731 220.69 15.7007C220.964 15.3281 221.488 15.2479 221.861 15.523C222.229 15.7939 222.595 16.0752 222.95 16.3594C223.311 16.6485 223.369 17.1759 223.08 17.5367C222.902 17.7593 222.633 17.8667 222.369 17.8487Z" fill="#BDD0FB"/>
</g>
<g opacity="0.3">
<path d="M234.484 40.3298C234.081 40.3025 233.745 39.9859 233.707 39.5704C233.668 39.1404 233.619 38.7039 233.562 38.2734C233.501 37.8147 233.823 37.3935 234.281 37.3324C234.742 37.2711 235.161 37.5937 235.222 38.0521C235.283 38.5055 235.334 38.9652 235.376 39.4179C235.418 39.8786 235.078 40.2863 234.618 40.3285C234.572 40.3325 234.528 40.3328 234.484 40.3298Z" fill="#BDD0FB"/>
<path d="M199.824 75.877C199.44 75.851 199.054 75.8182 198.668 75.779C198.208 75.732 197.873 75.3211 197.919 74.8608C197.966 74.4005 198.379 74.0639 198.837 74.112C199.729 74.2026 200.623 74.257 201.503 74.2734C201.966 74.2828 202.334 74.6638 202.325 75.1263C202.317 75.5891 201.935 75.9571 201.472 75.9484C200.927 75.9382 200.373 75.9142 199.824 75.877ZM194.309 75.0319C194.262 75.0287 194.215 75.0216 194.168 75.0102C193.26 74.7909 192.35 74.5305 191.466 74.2365C191.027 74.0906 190.789 73.6164 190.935 73.1776C191.081 72.7385 191.556 72.4999 191.994 72.6469C192.834 72.9262 193.698 73.1734 194.561 73.3821C195.011 73.4907 195.288 73.9433 195.179 74.3927C195.082 74.7953 194.709 75.059 194.309 75.0319ZM205.875 75.7246C205.481 75.6979 205.149 75.3944 205.1 74.988C205.046 74.5284 205.374 74.1119 205.833 74.0571C206.712 73.9527 207.598 73.8091 208.468 73.63C208.921 73.5374 209.364 73.8284 209.457 74.2814C209.55 74.7347 209.258 75.1777 208.805 75.271C207.89 75.4595 206.956 75.6107 206.031 75.7209C205.978 75.727 205.926 75.7281 205.875 75.7246ZM187.555 72.5871C187.449 72.5799 187.343 72.552 187.242 72.5021C186.404 72.0889 185.575 71.6348 184.775 71.1527C184.379 70.9137 184.252 70.399 184.491 70.003C184.73 69.6067 185.245 69.4792 185.641 69.7186C186.4 70.1763 187.188 70.6075 187.983 70.9999C188.398 71.2044 188.568 71.7069 188.363 72.1217C188.209 72.4353 187.884 72.6094 187.555 72.5871ZM212.863 74.0928C212.54 74.071 212.245 73.8614 212.13 73.5364C211.976 73.1003 212.204 72.6215 212.64 72.4671C213.474 72.1721 214.307 71.837 215.116 71.4714C215.537 71.2809 216.034 71.4681 216.224 71.8899C216.415 72.3114 216.227 72.8074 215.806 72.9979C214.954 73.3829 214.077 73.7357 213.199 74.0465C213.088 74.0858 212.974 74.1003 212.863 74.0928ZM219.325 70.9669C219.066 70.9494 218.82 70.8127 218.671 70.5766C218.425 70.1848 218.544 69.6677 218.935 69.4218C219.687 68.9499 220.427 68.441 221.136 67.9092C221.505 67.6309 222.03 67.7055 222.308 68.0759C222.586 68.446 222.511 68.9709 222.141 69.2488C221.396 69.8086 220.617 70.3441 219.826 70.8405C219.671 70.9383 219.495 70.9785 219.325 70.9669ZM224.951 66.5068C224.755 66.4935 224.562 66.4112 224.413 66.2601C224.087 65.9315 224.09 65.401 224.419 65.0756C225.05 64.451 225.662 63.7933 226.237 63.12C226.538 62.7685 227.066 62.7266 227.418 63.0276C227.77 63.3282 227.811 63.8567 227.511 64.2086C226.905 64.9168 226.261 65.6094 225.597 66.2666C225.419 66.4424 225.183 66.5225 224.951 66.5068ZM229.471 60.9261C229.334 60.9168 229.199 60.8742 229.076 60.7953C228.686 60.5456 228.573 60.0276 228.823 59.6382C229.302 58.8912 229.755 58.1154 230.168 57.3321C230.384 56.9231 230.892 56.7666 231.3 56.9822C231.709 57.1981 231.866 57.705 231.65 58.1141C231.214 58.9391 230.738 59.7562 230.233 60.5426C230.062 60.8091 229.766 60.9461 229.471 60.9261ZM232.656 54.4869C232.579 54.4816 232.502 54.4657 232.427 54.4382C231.992 54.2805 231.767 53.7999 231.925 53.3653C232.227 52.533 232.497 51.6771 232.728 50.8204C232.849 50.3737 233.31 50.1101 233.755 50.2301C234.202 50.3506 234.466 50.8106 234.346 51.2573C234.102 52.159 233.818 53.0603 233.5 53.9364C233.369 54.2955 233.019 54.5115 232.656 54.4869ZM234.348 47.51C234.331 47.5088 234.313 47.507 234.296 47.5049C233.837 47.4456 233.513 47.0255 233.573 46.5668C233.657 45.9191 233.721 45.2614 233.765 44.6111C233.781 44.3757 233.795 44.1405 233.805 43.9061C233.827 43.4438 234.219 43.0863 234.681 43.1079C235.149 43.1202 235.5 43.5209 235.479 43.9828C235.468 44.2297 235.454 44.4766 235.437 44.7244C235.391 45.4082 235.322 46.1005 235.234 46.7816C235.177 47.2231 234.786 47.5397 234.348 47.51Z" fill="#BDD0FB"/>
<path d="M181.49 68.7021C181.324 68.6908 181.16 68.6302 181.021 68.5177C180.668 68.2325 180.315 67.9343 179.971 67.6317C179.624 67.3261 179.59 66.7968 179.895 66.4495C180.201 66.1023 180.73 66.068 181.077 66.3738C181.404 66.6613 181.74 66.9444 182.074 67.2154C182.434 67.5061 182.49 68.0336 182.199 68.3933C182.02 68.6137 181.753 68.7199 181.49 68.7021Z" fill="#BDD0FB"/>
</g>
<path d="M183.275 59.085C183.372 59.2212 183.544 59.2812 183.704 59.2342L188.277 57.8958C189.945 59.3697 191.859 60.5884 193.969 61.4775L194.744 66.1758C194.771 66.3406 194.9 66.47 195.064 66.498L200.699 67.4573C200.863 67.4853 201.028 67.4058 201.108 67.2594L203.394 63.082C205.679 62.9413 207.889 62.4247 209.95 61.5855L213.822 64.3617C213.958 64.459 214.141 64.4595 214.277 64.3629L218.939 61.0571C219.075 60.9603 219.135 60.7879 219.088 60.6277L217.75 56.0547C219.224 54.3876 220.443 52.4733 221.332 50.3631L226.03 49.5883C226.195 49.5612 226.324 49.4325 226.352 49.2678L227.311 43.6334C227.339 43.4687 227.26 43.3044 227.113 43.2244L222.936 40.9385C222.795 38.6528 222.279 36.4433 221.44 34.3825L224.216 30.5098C224.313 30.3742 224.314 30.1916 224.217 30.0554L220.911 25.393C220.815 25.2567 220.642 25.1968 220.482 25.2437L215.909 26.5821C214.242 25.1081 212.328 23.8894 210.217 23.0005L209.442 18.302C209.415 18.1372 209.287 18.0078 209.122 17.9797L203.488 17.0205C203.323 16.9924 203.159 17.0719 203.078 17.2185L200.793 21.3959C198.507 21.5365 196.297 22.0531 194.237 22.8924L190.364 20.1162C190.228 20.0188 190.046 20.0184 189.91 20.115L185.247 23.4209C185.111 23.5174 185.051 23.6899 185.098 23.8502L186.436 28.4232C184.962 30.0903 183.744 32.0046 182.855 34.1148L178.156 34.8896C177.991 34.9168 177.862 35.0455 177.834 35.2102L176.875 40.8444C176.847 41.0091 176.926 41.1734 177.073 41.2536L181.25 43.5394C181.391 45.8251 181.907 48.0345 182.747 50.0954L179.97 53.968C179.873 54.1037 179.873 54.2862 179.969 54.4225L183.275 59.085Z" fill="#BDD0FB"/>
<path d="M201.701 47.971C198.907 47.7816 196.593 45.5635 196.366 42.6904C196.117 39.5322 198.484 36.7607 201.642 36.5117C203.172 36.3907 204.657 36.8735 205.824 37.8698C206.991 38.8662 207.7 40.2575 207.821 41.7874C208.069 44.9457 205.703 47.7172 202.545 47.9662C202.26 47.9886 201.978 47.9897 201.701 47.971ZM202.401 37.844C202.185 37.8294 201.967 37.8304 201.747 37.8476C199.326 38.0384 197.511 40.1638 197.702 42.5849C197.893 45.0063 200.018 46.8219 202.439 46.6301C204.861 46.4394 206.675 44.314 206.485 41.893C206.392 40.7198 205.848 39.6532 204.954 38.8891C204.226 38.2682 203.338 37.9076 202.401 37.844Z" fill="url(#paint1_linear_217_186)"/>
<path d="M201.257 56.2576C200.777 56.225 200.296 56.1682 199.815 56.0864C199.664 56.0608 199.513 56.0325 199.363 56.002C198.621 55.8511 197.893 55.6413 197.189 55.3762C197.179 55.3725 197.17 55.3689 197.16 55.3654C197.133 55.355 197.106 55.3446 197.078 55.3339C197.026 55.3137 196.973 55.2927 196.92 55.2717C196.782 55.2165 196.701 55.0795 196.71 54.9383C196.713 54.9041 196.721 54.8696 196.734 54.836C196.803 54.6642 196.998 54.5814 197.169 54.6497C198.053 55.0038 198.981 55.2648 199.928 55.4257C204.628 56.2267 209.183 54.4733 212.17 51.1771C213.831 49.344 215.006 47.0332 215.451 44.4188C215.529 43.9604 215.584 43.5013 215.615 43.0436C215.823 39.9632 214.973 36.9301 213.163 34.3776C211.084 31.4456 207.988 29.4985 204.445 28.8953C197.127 27.6503 190.166 32.588 188.921 39.9022C188.844 40.3531 188.791 40.8064 188.76 41.2598C188.627 43.2247 188.926 45.197 189.641 47.0337C189.66 47.0812 189.667 47.1302 189.663 47.1779C189.655 47.3033 189.576 47.4189 189.451 47.4674C189.278 47.5341 189.084 47.4498 189.017 47.2767C188.266 45.3483 187.952 43.2776 188.091 41.2148C188.123 40.7388 188.18 40.2632 188.26 39.7899C189.567 32.1106 196.881 26.9278 204.557 28.2346C208.277 28.8678 211.527 30.9118 213.709 33.9899C215.61 36.6695 216.502 39.8538 216.284 43.0876C216.251 43.5681 216.194 44.05 216.112 44.5311C215.479 48.251 213.435 51.5016 210.357 53.684C207.676 55.5845 204.491 56.4768 201.257 56.2576Z" fill="url(#paint2_linear_217_186)"/>
<g opacity="0.3">
<path d="M139.384 64.6568C139.161 64.6417 138.965 64.482 138.914 64.2523C138.819 63.8235 138.736 63.3859 138.667 62.9518C138.622 62.6697 138.814 62.4048 139.096 62.3596C139.379 62.3134 139.644 62.5071 139.688 62.7892C139.754 63.2028 139.834 63.6199 139.924 64.0291C139.986 64.3077 139.81 64.5839 139.531 64.646C139.481 64.6568 139.432 64.6601 139.384 64.6568Z" fill="#BDD0FB"/>
<path d="M138.884 60.7086C138.622 60.6909 138.412 60.4776 138.403 60.2101C138.377 59.4543 138.39 58.6885 138.441 57.9344C138.452 57.7756 138.464 57.6164 138.478 57.4569C138.504 57.1721 138.769 56.9739 139.04 56.9871C139.324 57.0124 139.534 57.2637 139.509 57.5481C139.495 57.7005 139.483 57.8528 139.473 58.0045C139.424 58.7238 139.412 59.4541 139.436 60.1748C139.446 60.4606 139.223 60.6997 138.937 60.7097C138.919 60.71 138.901 60.7098 138.884 60.7086ZM139.361 55.358C139.336 55.3563 139.311 55.3531 139.287 55.348C139.007 55.288 138.829 55.0131 138.889 54.7336C139.08 53.837 139.329 52.9444 139.629 52.0811C139.722 51.811 140.018 51.6689 140.287 51.7616C140.557 51.8554 140.7 52.1496 140.606 52.4198C140.321 53.2436 140.083 54.095 139.901 54.95C139.846 55.2046 139.613 55.3752 139.361 55.358ZM141.12 50.2828C141.055 50.2783 140.989 50.2611 140.927 50.2306C140.671 50.1044 140.565 49.7939 140.692 49.5377C141.097 48.7169 141.557 47.9121 142.062 47.1467C142.219 46.9077 142.539 46.8418 142.778 46.9993C143.017 47.1562 143.083 47.4772 142.926 47.7157C142.445 48.4457 142.006 49.2125 141.62 49.9956C141.524 50.1892 141.323 50.2966 141.12 50.2828ZM144.074 45.7953C143.967 45.7881 143.862 45.7476 143.774 45.6732C143.557 45.4878 143.531 45.161 143.716 44.9436C144.311 44.2456 144.954 43.5788 145.629 42.9611C145.839 42.7683 146.167 42.7834 146.359 42.9934C146.552 43.204 146.538 43.5311 146.327 43.7245C145.685 44.3129 145.071 44.9493 144.504 45.6147C144.393 45.7445 144.232 45.806 144.074 45.7953ZM148.034 42.1655C147.885 42.1555 147.741 42.0809 147.648 41.9494C147.482 41.7169 147.536 41.394 147.769 41.2279C148.515 40.6966 149.301 40.2061 150.104 39.7704C150.356 39.6335 150.67 39.7272 150.806 39.9784C150.942 40.2297 150.849 40.5439 150.598 40.6798C149.831 41.0957 149.081 41.5635 148.37 42.0708C148.268 42.1429 148.15 42.1734 148.034 42.1655ZM152.755 39.6072C152.562 39.5941 152.384 39.4721 152.308 39.2797C152.204 39.0138 152.335 38.7139 152.601 38.6093C153.453 38.2751 154.335 37.9911 155.221 37.7655C155.499 37.6957 155.779 37.8626 155.85 38.1393C155.92 38.416 155.753 38.6979 155.476 38.7683C154.632 38.9835 153.791 39.2541 152.979 39.5728C152.905 39.6017 152.829 39.6123 152.755 39.6072ZM157.956 38.2811C157.714 38.2647 157.51 38.0792 157.478 37.8299C157.443 37.5464 157.644 37.2877 157.927 37.2517C158.833 37.1373 159.757 37.0785 160.675 37.0764C160.962 37.0806 161.194 37.3075 161.194 37.5931C161.195 37.8788 160.963 38.1107 160.678 38.1117C159.802 38.1131 158.92 38.1693 158.057 38.2783C158.023 38.2825 157.989 38.2833 157.956 38.2811ZM165.975 38.7588C165.945 38.7568 165.915 38.7521 165.884 38.7446C165.152 38.5627 164.398 38.4179 163.641 38.314C163.526 38.2976 163.414 38.2829 163.301 38.2697C163.017 38.2353 162.815 37.9779 162.849 37.6942C162.883 37.4099 163.143 37.1996 163.424 37.242C163.544 37.2567 163.664 37.2719 163.784 37.2892C164.575 37.398 165.366 37.5499 166.134 37.7406C166.411 37.8096 166.58 38.09 166.511 38.3673C166.45 38.6142 166.22 38.7754 165.975 38.7588Z" fill="#BDD0FB"/>
</g>
<g opacity="0.3">
<path d="M159.529 81.7369C159.247 81.7178 159.032 81.4753 159.047 81.1923C159.063 80.9072 159.307 80.6883 159.592 80.7041C160.451 80.7512 161.32 80.7462 162.175 80.6893C162.459 80.6731 162.707 80.8858 162.726 81.1713C162.745 81.4566 162.529 81.7027 162.244 81.7219C161.347 81.7811 160.436 81.7868 159.536 81.7374C159.533 81.7372 159.531 81.7371 159.529 81.7369ZM156.899 81.4336C156.881 81.4324 156.862 81.4301 156.844 81.4268C155.957 81.2705 155.07 81.0585 154.209 80.797C153.935 80.7137 153.781 80.4252 153.864 80.1518C153.947 79.8779 154.237 79.7249 154.509 79.8067C155.331 80.0564 156.177 80.2585 157.023 80.408C157.305 80.4574 157.493 80.7259 157.443 81.0071C157.397 81.2703 157.159 81.4513 156.899 81.4336ZM164.799 81.3852C164.571 81.3696 164.372 81.2023 164.326 80.9662C164.273 80.6861 164.456 80.415 164.737 80.3611C165.582 80.1986 166.425 79.9837 167.241 79.7215C167.514 79.6352 167.804 79.784 167.892 80.0563C167.979 80.3281 167.829 80.6197 167.557 80.7071C166.701 80.9818 165.818 81.2071 164.932 81.3769C164.887 81.3856 164.843 81.3881 164.799 81.3852ZM151.843 79.8947C151.784 79.8908 151.725 79.8767 151.668 79.8515C150.844 79.4863 150.034 79.0663 149.262 78.6033C149.017 78.4565 148.937 78.1387 149.084 77.8934C149.231 77.6492 149.548 77.5695 149.794 77.7157C150.53 78.157 151.302 78.5573 152.088 78.9058C152.349 79.0216 152.467 79.3274 152.351 79.5885C152.26 79.7925 152.053 79.909 151.843 79.8947ZM169.828 79.7699C169.646 79.7575 169.475 79.6483 169.393 79.4705C169.273 79.2107 169.387 78.9034 169.646 78.7837C170.426 78.4244 171.191 78.0134 171.922 77.5616C172.166 77.411 172.484 77.4868 172.634 77.7299C172.784 77.973 172.709 78.292 172.466 78.4421C171.7 78.9153 170.897 79.3465 170.08 79.7236C169.998 79.7611 169.912 79.7755 169.828 79.7699ZM174.323 76.9952C174.183 76.9857 174.048 76.9199 173.954 76.8021C173.775 76.5788 173.812 76.2532 174.035 76.0749C174.707 75.5376 175.353 74.9549 175.954 74.3434C176.154 74.1393 176.482 74.1366 176.686 74.3368C176.889 74.5369 176.892 74.8642 176.692 75.068C176.062 75.7094 175.386 76.3204 174.681 76.8833C174.576 76.9672 174.448 77.0036 174.323 76.9952ZM178.024 73.2233C177.926 73.2167 177.829 73.1822 177.745 73.1173C177.518 72.9434 177.475 72.6184 177.65 72.3918C178.174 71.7097 178.661 70.9892 179.097 70.2506C179.242 70.0052 179.559 69.9228 179.805 70.0682C180.051 70.2135 180.133 70.5305 179.988 70.7768C179.531 71.551 179.02 72.3068 178.47 73.0226C178.361 73.165 178.191 73.2346 178.024 73.2233Z" fill="#BDD0FB"/>
<path d="M147.289 77.165C147.19 77.1583 147.091 77.1227 147.006 77.0567C146.657 76.7844 146.315 76.5004 145.988 76.2129C145.773 76.0241 145.752 75.6971 145.941 75.4825C146.13 75.269 146.456 75.2475 146.671 75.4358C146.983 75.7101 147.31 75.9809 147.643 76.241C147.868 76.4168 147.908 76.7421 147.732 76.9671C147.623 77.1076 147.455 77.1762 147.289 77.165Z" fill="#BDD0FB"/>
</g>
<path d="M148.17 70.5263C148.235 70.6174 148.35 70.6575 148.458 70.6262L151.518 69.7306C152.633 70.7168 153.914 71.5323 155.326 72.1273L155.845 75.2712C155.863 75.3814 155.949 75.468 156.059 75.4868L159.829 76.1287C159.94 76.1475 160.05 76.0942 160.103 75.9963L161.633 73.201C163.162 73.1068 164.641 72.7612 166.02 72.1995L168.611 74.0572C168.702 74.1223 168.824 74.1227 168.915 74.058L172.035 71.8459C172.126 71.7812 172.167 71.6659 172.135 71.5586L171.24 68.4986C172.226 67.383 173.041 66.1022 173.636 64.69L176.78 64.1716C176.89 64.1535 176.977 64.0673 176.996 63.9572L177.638 60.1869C177.656 60.0767 177.603 59.9667 177.505 59.9131L174.71 58.3836C174.616 56.8541 174.27 55.3756 173.708 53.9966L175.566 51.4051C175.631 51.3143 175.632 51.1922 175.567 51.101L173.355 47.9811C173.29 47.8899 173.175 47.8498 173.068 47.8812L170.007 48.7768C168.892 47.7905 167.611 46.9751 166.199 46.3801L165.68 43.2362C165.662 43.1259 165.576 43.0393 165.466 43.0206L161.696 42.3787C161.585 42.36 161.475 42.4132 161.422 42.5113L159.892 45.3066C158.363 45.4007 156.884 45.7463 155.505 46.3079L152.914 44.4502C152.823 44.385 152.701 44.3847 152.61 44.4494L149.49 46.6614C149.399 46.7261 149.359 46.8414 149.39 46.9487L150.286 50.0088C149.299 51.1243 148.484 52.4052 147.889 53.8173L144.745 54.3357C144.635 54.3539 144.548 54.44 144.529 54.5503L143.888 58.3205C143.869 58.4307 143.922 58.5406 144.02 58.5943L146.815 60.1239C146.909 61.6533 147.255 63.1318 147.817 64.5109L145.959 67.1022C145.894 67.1931 145.893 67.3152 145.958 67.4064L148.17 70.5263Z" fill="#BDD0FB"/>
<path d="M160.49 63.1579C159.657 63.1015 158.867 62.7811 158.221 62.2294C157.426 61.5506 156.943 60.6028 156.861 59.5607C156.692 57.4102 158.304 55.5222 160.455 55.3521C162.609 55.1862 164.494 56.7951 164.664 58.9461C164.746 59.9883 164.417 61 163.739 61.7946C163.06 62.5897 162.112 63.0729 161.07 63.1546C160.875 63.1698 160.681 63.1709 160.49 63.1579ZM160.959 56.3813C160.82 56.3719 160.679 56.3724 160.536 56.3835C158.954 56.5087 157.768 57.8974 157.893 59.4797C157.953 60.246 158.308 60.9435 158.893 61.4425C159.478 61.9419 160.222 62.1827 160.989 62.1233C161.755 62.0629 162.452 61.7076 162.952 61.1231C163.451 60.5381 163.693 59.7939 163.632 59.0272C163.519 57.5879 162.359 56.4762 160.959 56.3813Z" fill="url(#paint3_linear_217_186)"/>
<path d="M160.173 68.9257C159.846 68.9036 159.518 68.8646 159.189 68.8089C158.535 68.6978 157.891 68.52 157.275 68.2797C157.247 68.2687 157.22 68.2577 157.192 68.2467C156.979 68.1614 156.854 67.9499 156.868 67.7321C156.872 67.6792 156.884 67.6258 156.904 67.574C157.01 67.3088 157.312 67.1813 157.577 67.2864C158.15 67.5162 158.751 67.6851 159.362 67.7887H159.362C159.396 67.7946 159.43 67.7998 159.463 67.8051C160.912 68.0376 162.364 67.9 163.712 67.4242C164.444 67.1658 165.145 66.8073 165.799 66.3528C165.804 66.3491 165.809 66.3454 165.815 66.3417C165.831 66.3301 165.847 66.3191 165.863 66.3075C167.761 64.9615 169.022 62.9571 169.412 60.6633C169.463 60.3664 169.498 60.0695 169.518 59.7731C169.653 57.779 169.102 55.8154 167.931 54.1627C166.585 52.2646 164.58 51.0046 162.287 50.6142C159.994 50.2248 157.684 50.7499 155.786 52.0953C153.888 53.4413 152.628 55.4457 152.237 57.7395C152.187 58.0313 152.153 58.3247 152.133 58.618C152.047 59.8903 152.24 61.1669 152.703 62.3559C152.732 62.4292 152.743 62.5049 152.737 62.5785C152.724 62.7721 152.602 62.9506 152.409 63.0257C152.142 63.1286 151.843 62.9979 151.739 62.7311C151.221 61.4007 151.004 59.9721 151.1 58.5491C151.123 58.2204 151.161 57.8924 151.217 57.5659C151.654 54.9993 153.064 52.7569 155.188 51.2511C157.311 49.7456 159.893 49.1549 162.46 49.5938C165.027 50.0306 167.269 51.4404 168.775 53.5645C170.086 55.4131 170.701 57.61 170.55 59.841C170.528 60.1722 170.489 60.5048 170.432 60.8366C169.586 65.8052 165.097 69.2594 160.173 68.9257Z" fill="url(#paint4_linear_217_186)"/>
<path d="M189.335 186.164L184.572 219.036H239.835L232.637 186.164H189.335Z" fill="url(#paint5_linear_217_186)"/>
<path d="M96.5029 80.9122V178.751C96.5029 186.8 102.917 193.382 110.963 193.589C146.698 194.511 271.684 196.745 305.702 196.244C311.549 196.158 316.285 191.479 316.454 185.634C317.11 162.904 318.175 108.248 314.233 82.8729C313.403 77.5292 308.892 73.5333 303.487 73.3604C273.545 72.4026 141.052 69.361 107.05 70.1246C101.185 70.2563 96.5029 75.0466 96.5029 80.9122Z" fill="url(#paint6_linear_217_186)"/>
<path d="M102.642 80.4358V173.39C102.642 178.089 106.414 181.918 111.113 181.988L300.808 184.332C305.467 184.402 309.285 180.654 309.302 175.995L309.62 83.8713C309.632 80.5401 306.978 77.8106 303.648 77.7296L109.435 73.806C105.711 73.7154 102.642 76.7101 102.642 80.4358Z" fill="url(#paint7_linear_217_186)"/>
<path d="M310.731 188.142H310.726L102.637 184.596C102.492 184.594 102.377 184.474 102.379 184.329C102.381 184.183 102.503 184.072 102.646 184.07L310.735 187.616C310.88 187.618 310.996 187.738 310.993 187.883C310.991 188.027 310.874 188.142 310.731 188.142Z" fill="#91B3FA"/>
<path d="M251.738 227.776H170.857C168.66 227.776 167.01 226.212 167.435 224.532L168.473 220.427C168.785 219.193 170.143 218.287 171.755 218.236L249.728 215.803C251.413 215.751 252.905 216.645 253.272 217.928L255.143 224.465C255.629 226.164 253.971 227.776 251.738 227.776Z" fill="url(#paint8_linear_217_186)"/>
<path d="M214.397 219.348C214.253 219.348 214.136 219.232 214.134 219.089C214.132 218.943 214.248 218.824 214.393 218.822L217.734 218.773C217.874 218.774 217.999 218.887 218.001 219.032C218.003 219.178 217.887 219.297 217.742 219.299L214.401 219.348H214.397Z" fill="#91B3FA"/>
<path d="M170.429 225.513C170.415 225.513 170.401 225.512 170.387 225.509C170.244 225.487 170.146 225.352 170.169 225.208L170.646 222.223C170.902 220.619 172.266 219.438 173.89 219.414L209.329 218.896H209.333C209.476 218.896 209.594 219.011 209.596 219.155C209.598 219.3 209.482 219.42 209.337 219.422L173.898 219.94C172.53 219.96 171.381 220.955 171.165 222.306L170.688 225.291C170.668 225.421 170.556 225.513 170.429 225.513Z" fill="#91B3FA"/>
<g opacity="0.53">
<path d="M212.943 86.9333H207.954V174.936H212.943V86.9333Z" fill="#91B3FA"/>
<path d="M221.28 86.9333H216.291V174.936H221.28V86.9333Z" fill="#91B3FA"/>
<path d="M229.617 86.9333H224.627V174.936H229.617V86.9333Z" fill="#91B3FA"/>
<path d="M237.954 86.9333H232.964V174.936H237.954V86.9333Z" fill="#91B3FA"/>
<path d="M246.29 86.9333H241.301V174.936H246.29V86.9333Z" fill="#91B3FA"/>
<path d="M254.627 86.9333H249.638V174.936H254.627V86.9333Z" fill="#91B3FA"/>
<path d="M262.963 86.9333H257.974V174.936H262.963V86.9333Z" fill="#91B3FA"/>
</g>
<path d="M212.943 128.881H207.954V174.936H212.943V128.881Z" fill="url(#paint9_linear_217_186)"/>
<path d="M221.28 144.709H216.291V174.936H221.28V144.709Z" fill="url(#paint10_linear_217_186)"/>
<path d="M229.617 105.59H224.627V174.936H229.617V105.59Z" fill="url(#paint11_linear_217_186)"/>
<path d="M237.954 158.276H232.964V174.936H237.954V158.276Z" fill="url(#paint12_linear_217_186)"/>
<path d="M246.29 114.861H241.301V174.936H246.29V114.861Z" fill="url(#paint13_linear_217_186)"/>
<path d="M254.627 125.263H249.638V174.936H254.627V125.263Z" fill="url(#paint14_linear_217_186)"/>
<path d="M262.963 136.569H257.974V174.936H262.963V136.569Z" fill="url(#paint15_linear_217_186)"/>
<path d="M194.068 175.423L116.317 174.839C114.783 174.827 113.545 173.581 113.545 172.047V132.1C113.545 130.557 114.796 129.307 116.338 129.307H194.089C195.631 129.307 196.881 130.557 196.881 132.1V172.631C196.881 174.181 195.618 175.435 194.068 175.423Z" fill="#91B3FA"/>
<path opacity="0.44" d="M182.008 147.343L172.01 136.773L157.674 152.365L147.559 141.451L138.072 152.175L130.797 143.336L116.459 158.264V169.058C116.459 170.485 117.61 171.644 119.037 171.655L191.351 172.198C192.793 172.209 193.967 171.043 193.967 169.601V140.236L182.008 147.343Z" fill="white"/>
<path d="M182.332 147.05H182.069V172.198H182.332V147.05Z" fill="white"/>
<path d="M172.141 136.773H171.878V172.053H172.141V136.773Z" fill="white"/>
<path d="M157.806 152.175H157.543V171.945H157.806V152.175Z" fill="white"/>
<path d="M147.959 141.837H147.696V171.945H147.959V141.837Z" fill="white"/>
<path d="M138.203 151.854H137.94V171.945H138.203V151.854Z" fill="white"/>
<path d="M131.082 142.587H130.819V171.752H131.082V142.587Z" fill="white"/>
<path d="M130.951 144.784C132.164 144.784 133.148 143.8 133.148 142.587C133.148 141.374 132.164 140.39 130.951 140.39C129.737 140.39 128.754 141.374 128.754 142.587C128.754 143.8 129.737 144.784 130.951 144.784Z" fill="url(#paint16_linear_217_186)"/>
<path d="M139.519 151.855C139.519 152.654 138.871 153.302 138.072 153.302C137.272 153.302 136.625 152.654 136.625 151.855C136.625 151.055 137.272 150.407 138.072 150.407C138.871 150.407 139.519 151.055 139.519 151.855Z" fill="url(#paint17_linear_217_186)"/>
<path d="M149.275 141.837C149.275 142.637 148.627 143.285 147.828 143.285C147.028 143.285 146.38 142.637 146.38 141.837C146.38 141.038 147.028 140.39 147.828 140.39C148.627 140.39 149.275 141.038 149.275 141.837Z" fill="url(#paint18_linear_217_186)"/>
<path d="M159.121 152.175C159.121 152.974 158.474 153.622 157.674 153.622C156.875 153.622 156.227 152.974 156.227 152.175C156.227 151.376 156.875 150.728 157.674 150.728C158.474 150.728 159.121 151.376 159.121 152.175Z" fill="url(#paint19_linear_217_186)"/>
<path d="M173.457 136.773C173.457 137.572 172.81 138.22 172.01 138.22C171.211 138.22 170.563 137.572 170.563 136.773C170.563 135.974 171.211 135.326 172.01 135.326C172.809 135.326 173.457 135.974 173.457 136.773Z" fill="url(#paint20_linear_217_186)"/>
<path d="M183.648 147.05C183.648 147.849 183 148.497 182.201 148.497C181.401 148.497 180.753 147.849 180.753 147.05C180.753 146.25 181.401 145.602 182.201 145.602C183 145.602 183.648 146.25 183.648 147.05Z" fill="url(#paint21_linear_217_186)"/>
<g opacity="0.48">
<path d="M136.012 122.657H114.698C113.806 122.657 113.083 123.16 113.083 123.781C113.083 124.402 113.806 124.905 114.698 124.905H136.012C136.903 124.905 137.626 124.402 137.626 123.781C137.626 123.16 136.903 122.657 136.012 122.657Z" fill="white"/>
<path d="M136.012 117.678H114.698C113.806 117.678 113.083 118.182 113.083 118.803C113.083 119.424 113.806 119.927 114.698 119.927H136.012C136.903 119.927 137.626 119.424 137.626 118.803C137.626 118.182 136.903 117.678 136.012 117.678Z" fill="#91B3FA"/>
<path d="M136.012 112.7H114.698C113.806 112.7 113.083 113.204 113.083 113.825C113.083 114.446 113.806 114.949 114.698 114.949H136.012C136.903 114.949 137.626 114.446 137.626 113.825C137.626 113.204 136.903 112.7 136.012 112.7Z" fill="#91B3FA"/>
</g>
<g opacity="0.48">
<path d="M165.639 122.657H144.325C143.434 122.657 142.711 123.16 142.711 123.781C142.711 124.402 143.434 124.905 144.325 124.905H165.639C166.531 124.905 167.253 124.402 167.253 123.781C167.253 123.16 166.531 122.657 165.639 122.657Z" fill="#91B3FA"/>
<path d="M165.639 117.678H144.325C143.434 117.678 142.711 118.182 142.711 118.803C142.711 119.424 143.434 119.927 144.325 119.927H165.639C166.531 119.927 167.253 119.424 167.253 118.803C167.253 118.182 166.531 117.678 165.639 117.678Z" fill="#91B3FA"/>
<path d="M165.639 112.7H144.325C143.434 112.7 142.711 113.204 142.711 113.825C142.711 114.446 143.434 114.949 144.325 114.949H165.639C166.531 114.949 167.253 114.446 167.253 113.825C167.253 113.204 166.531 112.7 165.639 112.7Z" fill="#91B3FA"/>
</g>
<g opacity="0.48">
<path d="M195.267 122.657H173.953C173.061 122.657 172.338 123.16 172.338 123.781C172.338 124.402 173.061 124.905 173.953 124.905H195.267C196.158 124.905 196.881 124.402 196.881 123.781C196.881 123.16 196.158 122.657 195.267 122.657Z" fill="#91B3FA"/>
<path d="M195.267 117.678H173.953C173.061 117.678 172.338 118.182 172.338 118.803C172.338 119.424 173.061 119.927 173.953 119.927H195.267C196.158 119.927 196.881 119.424 196.881 118.803C196.881 118.182 196.158 117.678 195.267 117.678Z" fill="#91B3FA"/>
<path d="M195.267 112.7H173.953C173.061 112.7 172.338 113.204 172.338 113.825C172.338 114.446 173.061 114.949 173.953 114.949H195.267C196.158 114.949 196.881 114.446 196.881 113.825C196.881 113.204 196.158 112.7 195.267 112.7Z" fill="#91B3FA"/>
</g>
<path opacity="0.91" d="M285.444 137.197C290.89 137.197 295.306 132.782 295.306 127.335C295.306 121.888 290.89 117.473 285.444 117.473C279.997 117.473 275.582 121.888 275.582 127.335C275.582 132.782 279.997 137.197 285.444 137.197Z" fill="white"/>
<path d="M291.304 125.25C291.609 125.993 291.778 126.805 291.778 127.658C291.778 131.156 288.942 133.992 285.444 133.992C281.945 133.992 279.109 131.156 279.109 127.658C279.109 124.159 281.945 121.323 285.444 121.323C285.551 121.323 285.657 121.326 285.763 121.331V119.725C285.657 119.721 285.551 119.718 285.444 119.718C281.059 119.718 277.504 123.273 277.504 127.658C277.504 132.042 281.059 135.597 285.444 135.597C289.829 135.597 293.383 132.042 293.383 127.658C293.383 126.578 293.167 125.549 292.777 124.611L291.304 125.25Z" fill="url(#paint22_linear_217_186)"/>
<path d="M293.55 141.375H277.478C276.47 141.375 275.652 142.192 275.652 143.201C275.652 144.21 276.47 145.028 277.478 145.028H293.55C294.558 145.028 295.376 144.21 295.376 143.201C295.376 142.192 294.558 141.375 293.55 141.375Z" fill="#91B3FA"/>
<path opacity="0.91" d="M285.402 105.499C290.848 105.499 295.264 101.084 295.264 95.637C295.264 90.1903 290.848 85.7749 285.402 85.7749C279.955 85.7749 275.54 90.1903 275.54 95.637C275.54 101.084 279.955 105.499 285.402 105.499Z" fill="white"/>
<path d="M288.754 101.319C287.777 101.936 286.62 102.295 285.379 102.295C281.88 102.295 279.044 99.4584 279.044 95.9598C279.044 92.4613 281.88 89.6251 285.379 89.6251C285.486 89.6251 285.592 89.6279 285.698 89.6332V88.0274C285.592 88.0232 285.486 88.0205 285.379 88.0205C280.994 88.0205 277.439 91.5751 277.439 95.9599C277.439 100.345 280.994 103.899 285.379 103.899C286.909 103.899 288.338 103.466 289.55 102.716L288.754 101.319Z" fill="url(#paint23_linear_217_186)"/>
<path d="M293.592 109.677H277.521C276.512 109.677 275.694 110.495 275.694 111.503C275.694 112.512 276.512 113.33 277.521 113.33H293.592C294.601 113.33 295.419 112.512 295.419 111.503C295.419 110.495 294.601 109.677 293.592 109.677Z" fill="#91B3FA"/>
<path opacity="0.91" d="M295.332 159.732C295.633 154.293 291.468 149.64 286.03 149.339C280.591 149.038 275.938 153.202 275.637 158.641C275.336 164.079 279.501 168.732 284.939 169.034C290.378 169.335 295.031 165.17 295.332 159.732Z" fill="white"/>
<path d="M290.85 162.755C289.71 164.429 287.789 165.528 285.611 165.528C282.113 165.528 279.276 162.692 279.276 159.194C279.276 155.695 282.113 152.859 285.611 152.859C285.718 152.859 285.825 152.862 285.931 152.867V151.261C285.825 151.257 285.718 151.254 285.611 151.254C281.226 151.254 277.672 154.809 277.672 159.194C277.672 163.579 281.226 167.133 285.611 167.133C288.324 167.133 290.718 165.772 292.15 163.697L290.85 162.755Z" fill="url(#paint24_linear_217_186)"/>
<path d="M277.443 176.564H293.514C294.523 176.564 295.341 175.746 295.341 174.737C295.341 173.728 294.523 172.911 293.514 172.911H277.443C276.434 172.911 275.617 173.728 275.617 174.737C275.617 175.746 276.434 176.564 277.443 176.564Z" fill="#91B3FA"/>
<path d="M308.145 21.9665L214.829 21.5179C213.705 21.5076 212.791 22.7516 212.8 24.2821L213.007 61.2023C213.015 62.7414 213.953 63.9696 215.083 63.9235L307.867 61.9364C308.946 61.8922 309.809 60.6987 309.822 59.2294L310.147 24.745C310.162 23.2235 309.263 21.9767 308.145 21.9665Z" fill="#91B3FA"/>
<path d="M215.024 61.5555C214.851 61.5555 214.717 61.3922 214.716 61.1838L214.509 24.2641C214.509 24.1671 214.535 24.0821 214.586 24.011C214.661 23.9085 214.753 23.887 214.817 23.887L308.134 24.3357C308.197 24.3361 308.288 24.3586 308.362 24.4614C308.413 24.5329 308.439 24.6178 308.438 24.714L308.113 59.1982C308.111 59.4024 307.984 59.5613 307.817 59.568H307.815L215.024 61.5555ZM214.816 24.1263C214.811 24.1263 214.799 24.1263 214.78 24.1522C214.759 24.1814 214.748 24.2176 214.749 24.2627L214.955 61.1825C214.956 61.2642 214.999 61.3164 215.021 61.3164L307.81 59.329C307.834 59.3271 307.873 59.2738 307.874 59.196L308.199 24.712C308.199 24.6671 308.189 24.6311 308.168 24.6015C308.149 24.5753 308.137 24.575 308.132 24.575L214.816 24.1263Z" fill="url(#paint25_linear_217_186)"/>
<g opacity="0.6">
<path d="M223.154 41.0444H218.613V58.3983H223.154V41.0444Z" fill="white"/>
<path d="M230.742 47.0088H226.201V58.3984H230.742V47.0088Z" fill="white"/>
<path d="M238.33 32.2683H233.789V58.3982H238.33V32.2683Z" fill="white"/>
<path d="M245.918 52.1208H241.376V58.3983H245.918V52.1208Z" fill="white"/>
<path d="M253.506 35.7617H248.965V58.3982H253.506V35.7617Z" fill="white"/>
<path d="M261.094 39.6812H256.553V58.3983H261.094V39.6812Z" fill="white"/>
<path d="M268.682 43.9414H264.141V58.3984H268.682V43.9414Z" fill="white"/>
<path d="M276.27 26.9858H271.729V58.3983H276.27V26.9858Z" fill="white"/>
<path d="M283.858 30.3088H279.316V58.3983H283.858V30.3088Z" fill="white"/>
<path d="M291.446 35.3357H286.904V58.3982H291.446V35.3357Z" fill="white"/>
<path d="M299.034 52.7034H294.493V58.3982H299.034V52.7034Z" fill="white"/>
<path d="M306.622 41.6409H302.081V58.3983H306.622V41.6409Z" fill="white"/>
</g>
<path d="M197.386 63.2845L107.431 62.8521C106.347 62.8422 105.466 64.0414 105.475 65.5167L105.674 101.107C105.682 102.591 106.586 103.775 107.676 103.73L197.118 101.815C198.158 101.772 198.989 100.622 199.003 99.2053L199.316 65.9629C199.33 64.4962 198.464 63.2944 197.386 63.2845Z" fill="#91B3FA"/>
<path d="M107.619 101.448C107.452 101.448 107.323 101.29 107.322 101.089L107.123 65.4995C107.122 65.4062 107.147 65.3243 107.197 65.2556C107.27 65.1567 107.358 65.136 107.419 65.136L197.375 65.5686C197.436 65.569 197.523 65.5906 197.595 65.6898C197.645 65.7586 197.669 65.8405 197.669 65.9332L197.355 99.1755C197.353 99.3723 197.231 99.5255 197.07 99.532H197.068L107.619 101.448ZM107.419 65.3665C107.413 65.3665 107.402 65.3665 107.383 65.3915C107.363 65.4194 107.353 65.4546 107.353 65.498L107.552 101.088C107.553 101.167 107.595 101.217 107.616 101.217L197.063 99.3012C197.086 99.2997 197.124 99.2483 197.125 99.1731L197.438 65.931C197.438 65.8878 197.429 65.8531 197.408 65.8245C197.39 65.7993 197.378 65.799 197.373 65.799L107.419 65.3665Z" fill="url(#paint26_linear_217_186)"/>
<path d="M129.964 85.225C133.601 81.588 133.601 75.6913 129.964 72.0543C126.327 68.4172 120.43 68.4172 116.793 72.0543C113.156 75.6913 113.156 81.588 116.793 85.225C120.43 88.8621 126.327 88.8621 129.964 85.225Z" fill="white"/>
<path d="M153.03 85.225C156.667 81.588 156.667 75.6913 153.03 72.0543C149.393 68.4172 143.496 68.4172 139.859 72.0543C136.222 75.6913 136.222 81.588 139.859 85.225C143.496 88.8621 149.393 88.8621 153.03 85.225Z" fill="white"/>
<path d="M176.176 85.53C179.813 81.893 179.813 75.9962 176.176 72.3592C172.539 68.7222 166.642 68.7222 163.005 72.3592C159.368 75.9962 159.368 81.893 163.005 85.53C166.642 89.167 172.539 89.167 176.176 85.53Z" fill="white"/>
<path d="M128.914 76.6714C129.202 77.3723 129.362 78.1396 129.362 78.9445C129.362 82.2484 126.684 84.9267 123.38 84.9267C120.076 84.9267 117.398 82.2484 117.398 78.9445C117.398 75.6407 120.076 72.9624 123.38 72.9624C123.481 72.9624 123.582 72.9651 123.682 72.97V71.4536C123.581 71.4496 123.481 71.447 123.38 71.447C119.239 71.447 115.882 74.8038 115.882 78.9445C115.882 83.0853 119.239 86.442 123.38 86.442C127.521 86.442 130.877 83.0853 130.877 78.9445C130.877 77.9249 130.673 76.9531 130.305 76.067L128.914 76.6714Z" fill="url(#paint27_linear_217_186)"/>
<path d="M149.612 84.0058C148.689 84.5884 147.596 84.9267 146.424 84.9267C143.12 84.9267 140.442 82.2484 140.442 78.9445C140.442 75.6407 143.12 72.9624 146.424 72.9624C146.525 72.9624 146.626 72.9651 146.726 72.97V71.4536C146.626 71.4496 146.525 71.447 146.424 71.447C142.283 71.447 138.927 74.8038 138.927 78.9445C138.927 83.0853 142.283 86.442 146.424 86.442C147.869 86.442 149.219 86.0327 150.364 85.3244L149.612 84.0058Z" fill="url(#paint28_linear_217_186)"/>
<path d="M174.664 82.3079C173.588 83.8885 171.774 84.9267 169.717 84.9267C166.413 84.9267 163.735 82.2484 163.735 78.9445C163.735 75.6407 166.413 72.9624 169.717 72.9624C169.818 72.9624 169.919 72.9651 170.019 72.97V71.4536C169.919 71.4496 169.818 71.447 169.717 71.447C165.576 71.447 162.22 74.8038 162.22 78.9445C162.22 83.0853 165.576 86.442 169.717 86.442C172.279 86.442 174.54 85.1571 175.892 83.1969L174.664 82.3079Z" fill="url(#paint29_linear_217_186)"/>
<path opacity="0.5" d="M131.035 91.8982H115.858C114.905 91.8982 114.133 92.6705 114.133 93.6231C114.133 94.5757 114.905 95.3479 115.858 95.3479H131.035C131.987 95.3479 132.759 94.5757 132.759 93.6231C132.759 92.6705 131.987 91.8982 131.035 91.8982Z" fill="white"/>
<path opacity="0.5" d="M154.181 91.8982H139.004C138.052 91.8982 137.279 92.6705 137.279 93.6231C137.279 94.5757 138.052 95.3479 139.004 95.3479H154.181C155.134 95.3479 155.906 94.5757 155.906 93.6231C155.906 92.6705 155.134 91.8982 154.181 91.8982Z" fill="white"/>
<path opacity="0.5" d="M162.004 95.3479H177.18C178.133 95.3479 178.905 94.5757 178.905 93.6231C178.905 92.6705 178.133 91.8982 177.18 91.8982H162.004C161.051 91.8982 160.279 92.6705 160.279 93.6231C160.279 94.5757 161.051 95.3479 162.004 95.3479Z" fill="white"/>
<path d="M120.223 234.049C120.223 234.049 119.704 236.983 119.45 239.887C119.351 241.023 120.226 242.008 121.364 242.056C125.232 242.217 133.506 242.53 136.475 242.397C136.922 242.378 137.214 241.921 137.048 241.505C136.91 241.158 136.643 240.876 136.303 240.72L122.636 234.439L120.223 234.049Z" fill="url(#paint30_linear_217_186)"/>
<path d="M119.798 232.325L120.214 235.835C120.214 235.835 122.608 236.949 124.243 235.694L123.252 231.783L119.798 232.325Z" fill="url(#paint31_linear_217_186)"/>
<path d="M120.111 166.34C119.931 167.257 119.145 212.078 123.936 232.164C124.014 232.492 123.848 232.83 123.536 232.957C122.801 233.258 121.361 233.692 119.634 233.75C119.1 233.768 118.62 233.421 118.47 232.908C117.1 228.248 110.538 204.898 109.682 182.593C108.725 157.67 109.682 181.745 109.682 181.745L110.243 166.339L120.111 166.34Z" fill="url(#paint32_linear_217_186)"/>
<path d="M104.501 235.58C104.501 235.58 103.676 237.061 102.877 240.997C102.733 241.708 103.229 242.388 103.951 242.459C105.229 242.585 107.195 242.746 108.77 242.736C109.496 242.731 110.063 242.098 109.975 241.378C109.801 239.941 109.257 237.584 107.578 235.746L104.501 235.58Z" fill="url(#paint33_linear_217_186)"/>
<path d="M103.776 231.065L104.749 236.373C104.749 236.373 105.711 237.088 107.615 236.57L107.15 230.859L103.776 231.065Z" fill="url(#paint34_linear_217_186)"/>
<path d="M101.148 167.716C97.2292 191.364 101.998 226.164 103.606 232.976C103.704 233.392 104.041 233.712 104.463 233.782C105.181 233.901 106.363 233.998 107.528 233.66C107.93 233.543 108.212 233.181 108.228 232.763C108.444 227.257 108.056 193.451 111.707 180.091C111.892 179.414 112.305 178.823 112.877 178.417L119.964 173.379L120.507 165.235L101.148 167.716Z" fill="url(#paint35_linear_217_186)"/>
<path d="M126.116 122.907C114.373 122.713 101.416 125.99 101.416 125.99C97.9162 146.415 100.804 169.972 100.804 169.972C109.895 172.357 120.151 168.515 120.151 168.515C121.662 159.978 128.712 135.953 128.712 135.953C134.449 135.241 139.176 133.585 143.068 131.397C140.099 127.955 138.699 123.576 138.091 120.988C133.939 122.278 129.738 122.967 126.116 122.907Z" fill="url(#paint36_linear_217_186)"/>
<path d="M160.803 105.611C159.649 104.217 158.189 104.877 158.189 104.877C156.461 112.176 147.4 118.095 138.091 120.988C138.699 123.576 140.099 127.955 143.068 131.397C158.517 122.711 160.803 105.611 160.803 105.611Z" fill="url(#paint37_linear_217_186)"/>
<path d="M160.522 105.965C160.643 106.349 159.245 106.933 158.422 105.363C158.394 104.611 157.936 101.389 158.386 100.776C160.779 97.5128 165.42 93.4219 165.42 93.4219C166.205 94.1958 165.558 94.9561 165.558 94.9561L163.307 97.3014C163.778 98.1524 164.352 98.8707 164.622 99.9C164.825 100.68 164.701 101.513 164.307 102.222C163.912 102.934 163.373 103.859 162.863 104.584C161.898 105.955 160.522 105.965 160.522 105.965Z" fill="url(#paint38_linear_217_186)"/>
<path d="M162.322 98.8232L160.271 100.562L159.626 102.294L161.456 104.323C161.456 104.323 162.071 100.888 162.528 100.144C162.985 99.4003 162.748 99.0407 162.322 98.8232Z" fill="url(#paint39_linear_217_186)"/>
<path d="M105.92 137.361L101.416 125.99C101.416 125.99 90.4478 133.443 88.644 142.892C90.7165 143.045 94.4878 143.584 98.1791 145.448C98.9903 140.986 105.92 137.361 105.92 137.361Z" fill="url(#paint40_linear_217_186)"/>
<path d="M115.506 148.06C115.506 148.06 103.191 155.02 99.0356 149.077C98.1729 147.843 97.9667 146.617 98.1792 145.448C94.4878 143.584 90.7166 143.045 88.6441 142.892C88.1002 145.741 88.3877 148.77 90.0616 151.832C97.3401 165.147 117.135 151.097 117.135 151.097L115.506 148.06Z" fill="url(#paint41_linear_217_186)"/>
<path d="M114.026 156.865L120.747 133.394C120.823 133.128 121.05 132.933 121.326 132.901C122.544 132.759 126.072 132.36 130.146 132.016C135.053 131.601 140.752 131.264 144.158 131.55C144.642 131.591 144.934 132.103 144.719 132.539C142.782 136.456 134.817 152.393 130.828 157.614C130.696 157.787 130.491 157.888 130.274 157.886L114.68 157.741C114.226 157.737 113.901 157.301 114.026 156.865Z" fill="url(#paint42_linear_217_186)"/>
<path d="M130.843 129.981L135.716 129.169C135.975 129.126 136.188 129.374 136.106 129.623L135.623 131.085C135.581 131.212 135.47 131.304 135.337 131.322L130.648 131.948C130.406 131.981 130.206 131.76 130.261 131.522L130.56 130.246C130.592 130.108 130.704 130.004 130.843 129.981Z" fill="url(#paint43_linear_217_186)"/>
<path d="M127.194 134.106L127.596 132.015C127.636 131.805 127.809 131.647 128.022 131.625L137.864 130.626C138.195 130.593 138.46 130.896 138.382 131.22L137.757 133.826C137.707 134.034 137.525 134.185 137.311 134.196L127.693 134.68C127.38 134.695 127.135 134.414 127.194 134.106Z" fill="url(#paint44_linear_217_186)"/>
<path d="M115.65 151.195C115.65 151.195 114.714 147.345 115.091 145.979C115.469 144.613 116.201 142.857 118.64 143.247C121.079 143.637 123.956 144.665 123.956 144.665C123.956 144.665 123.81 146.444 121.957 145.87L123.106 146.759C123.106 146.759 122.942 148.184 121.376 147.423L122.445 148.602C122.445 148.602 121.773 149.772 120.621 149.022C119.469 148.272 118.917 151.658 115.65 151.195Z" fill="url(#paint45_linear_217_186)"/>
<path d="M114.222 113.374L110.485 124.179C110.423 124.358 110.497 124.556 110.663 124.648C111.681 125.211 115.351 126.839 119.773 124.035C120.233 123.743 120.547 123.267 120.617 122.726L121.827 113.374L114.222 113.374Z" fill="url(#paint46_linear_217_186)"/>
<path d="M122.352 103.368C122.352 103.368 126.454 111.091 125.929 114.211C125.403 117.331 120.318 117.107 115.877 114.573L112.774 106.234L122.352 103.368Z" fill="url(#paint47_linear_217_186)"/>
<path d="M116.074 110.477C116.254 110.398 116.321 110.177 116.213 110.012C115.884 109.509 115.268 108.485 115.071 107.588C115.071 107.588 114.334 107.116 116.948 106.49C119.563 105.864 123.463 104.892 124.282 102.667C125.082 100.497 122.982 95.0393 119.632 99.3875C119.505 99.553 119.255 99.5566 119.128 99.391C118.578 98.6763 117.135 97.1928 115.13 98.0922C113.255 98.9338 113.043 100.308 113.069 101.001C113.077 101.205 112.894 101.363 112.694 101.325C111.746 101.144 109.47 100.989 108.408 103.323C107.533 105.246 108.101 106.335 108.619 106.867C108.787 107.04 108.714 107.324 108.484 107.394C107.86 107.585 107.055 108.114 107.136 109.574C107.247 111.593 109.504 111.415 110.147 111.323C110.252 111.308 110.358 111.344 110.43 111.423C110.981 112.033 113.463 114.622 116.15 114.934C116.383 114.961 116.563 114.731 116.487 114.509L115.324 111.129C115.27 110.972 115.345 110.8 115.497 110.733L116.074 110.477Z" fill="url(#paint48_linear_217_186)"/>
<path d="M116.541 110.957C116.541 110.957 113.62 108.953 113.406 110.641C113.193 112.329 116.037 113.086 117.446 112.457L116.541 110.957Z" fill="url(#paint49_linear_217_186)"/>
</g>
<defs>
<linearGradient id="paint0_linear_217_186" x1="335.407" y1="245.214" x2="160.808" y2="92.4403" gradientUnits="userSpaceOnUse">
<stop stop-color="#DAE3FE"/>
<stop offset="1" stop-color="#E9EFFD"/>
</linearGradient>
<linearGradient id="paint1_linear_217_186" x1="196.348" y1="42.2387" x2="207.839" y2="42.2387" gradientUnits="userSpaceOnUse">
<stop stop-color="#DAE3FE"/>
<stop offset="1" stop-color="#E9EFFD"/>
</linearGradient>
<linearGradient id="paint2_linear_217_186" x1="188.059" y1="42.1616" x2="216.316" y2="42.1616" gradientUnits="userSpaceOnUse">
<stop stop-color="#DAE3FE"/>
<stop offset="1" stop-color="#E9EFFD"/>
</linearGradient>
<linearGradient id="paint3_linear_217_186" x1="156.849" y1="59.2536" x2="164.676" y2="59.2536" gradientUnits="userSpaceOnUse">
<stop stop-color="#DAE3FE"/>
<stop offset="1" stop-color="#E9EFFD"/>
</linearGradient>
<linearGradient id="paint4_linear_217_186" x1="151.078" y1="59.2002" x2="170.573" y2="59.2002" gradientUnits="userSpaceOnUse">
<stop stop-color="#DAE3FE"/>
<stop offset="1" stop-color="#E9EFFD"/>
</linearGradient>
<linearGradient id="paint5_linear_217_186" x1="213.137" y1="158.331" x2="211.436" y2="268.936" gradientUnits="userSpaceOnUse">
<stop stop-color="#09005D"/>
<stop offset="1" stop-color="#1A0F91"/>
</linearGradient>
<linearGradient id="paint6_linear_217_186" x1="206.344" y1="19.7227" x2="206.911" y2="194.423" gradientUnits="userSpaceOnUse">
<stop stop-color="#09005D"/>
<stop offset="1" stop-color="#1A0F91"/>
</linearGradient>
<linearGradient id="paint7_linear_217_186" x1="245.768" y1="61.4802" x2="317.237" y2="-58.7678" gradientUnits="userSpaceOnUse">
<stop stop-color="#4F52FF"/>
<stop offset="1" stop-color="#4042E2"/>
</linearGradient>
<linearGradient id="paint8_linear_217_186" x1="211.298" y1="238.71" x2="211.298" y2="225.665" gradientUnits="userSpaceOnUse">
<stop stop-color="#09005D"/>
<stop offset="1" stop-color="#1A0F91"/>
</linearGradient>
<linearGradient id="paint9_linear_217_186" x1="164.318" y1="221.783" x2="241.458" y2="104.938" gradientUnits="userSpaceOnUse">
<stop stop-color="#FF928E"/>
<stop offset="1" stop-color="#FE7062"/>
</linearGradient>
<linearGradient id="paint10_linear_217_186" x1="173.763" y1="228.018" x2="250.903" y2="111.174" gradientUnits="userSpaceOnUse">
<stop stop-color="#FF928E"/>
<stop offset="1" stop-color="#FE7062"/>
</linearGradient>
<linearGradient id="paint11_linear_217_186" x1="170.576" y1="225.914" x2="247.716" y2="109.069" gradientUnits="userSpaceOnUse">
<stop stop-color="#FF928E"/>
<stop offset="1" stop-color="#FE7062"/>
</linearGradient>
<linearGradient id="paint12_linear_217_186" x1="188.494" y1="237.744" x2="265.635" y2="120.899" gradientUnits="userSpaceOnUse">
<stop stop-color="#FF928E"/>
<stop offset="1" stop-color="#FE7062"/>
</linearGradient>
<linearGradient id="paint13_linear_217_186" x1="184.319" y1="234.988" x2="261.459" y2="118.143" gradientUnits="userSpaceOnUse">
<stop stop-color="#FF928E"/>
<stop offset="1" stop-color="#FE7062"/>
</linearGradient>
<linearGradient id="paint14_linear_217_186" x1="192.517" y1="240.399" x2="269.657" y2="123.555" gradientUnits="userSpaceOnUse">
<stop stop-color="#FF928E"/>
<stop offset="1" stop-color="#FE7062"/>
</linearGradient>
<linearGradient id="paint15_linear_217_186" x1="200.922" y1="245.948" x2="278.062" y2="129.104" gradientUnits="userSpaceOnUse">
<stop stop-color="#FF928E"/>
<stop offset="1" stop-color="#FE7062"/>
</linearGradient>
<linearGradient id="paint16_linear_217_186" x1="132.788" y1="137.032" x2="123.57" y2="164.901" gradientUnits="userSpaceOnUse">
<stop stop-color="#FDF53F"/>
<stop offset="1" stop-color="#D93C65"/>
</linearGradient>
<linearGradient id="paint17_linear_217_186" x1="139.282" y1="148.195" x2="133.21" y2="166.554" gradientUnits="userSpaceOnUse">
<stop stop-color="#4F52FF"/>
<stop offset="1" stop-color="#4042E2"/>
</linearGradient>
<linearGradient id="paint18_linear_217_186" x1="149.038" y1="138.178" x2="142.966" y2="156.537" gradientUnits="userSpaceOnUse">
<stop stop-color="#4F52FF"/>
<stop offset="1" stop-color="#4042E2"/>
</linearGradient>
<linearGradient id="paint19_linear_217_186" x1="158.885" y1="148.516" x2="152.812" y2="166.874" gradientUnits="userSpaceOnUse">
<stop stop-color="#4F52FF"/>
<stop offset="1" stop-color="#4042E2"/>
</linearGradient>
<linearGradient id="paint20_linear_217_186" x1="173.221" y1="133.114" x2="167.148" y2="151.472" gradientUnits="userSpaceOnUse">
<stop stop-color="#4F52FF"/>
<stop offset="1" stop-color="#4042E2"/>
</linearGradient>
<linearGradient id="paint21_linear_217_186" x1="183.411" y1="143.39" x2="177.339" y2="161.749" gradientUnits="userSpaceOnUse">
<stop stop-color="#FF928E"/>
<stop offset="1" stop-color="#FE7062"/>
</linearGradient>
<linearGradient id="paint22_linear_217_186" x1="298.874" y1="114.912" x2="264.49" y2="147.543" gradientUnits="userSpaceOnUse">
<stop stop-color="#FF928E"/>
<stop offset="1" stop-color="#FE7062"/>
</linearGradient>
<linearGradient id="paint23_linear_217_186" x1="296.597" y1="85.198" x2="266.074" y2="114.165" gradientUnits="userSpaceOnUse">
<stop stop-color="#FF928E"/>
<stop offset="1" stop-color="#FE7062"/>
</linearGradient>
<linearGradient id="paint24_linear_217_186" x1="296.887" y1="148.493" x2="266.364" y2="177.46" gradientUnits="userSpaceOnUse">
<stop stop-color="#FF928E"/>
<stop offset="1" stop-color="#FE7062"/>
</linearGradient>
<linearGradient id="paint25_linear_217_186" x1="214.509" y1="42.7213" x2="308.438" y2="42.7213" gradientUnits="userSpaceOnUse">
<stop stop-color="#DAE3FE"/>
<stop offset="1" stop-color="#E9EFFD"/>
</linearGradient>
<linearGradient id="paint26_linear_217_186" x1="107.123" y1="83.2918" x2="197.669" y2="83.2918" gradientUnits="userSpaceOnUse">
<stop stop-color="#DAE3FE"/>
<stop offset="1" stop-color="#E9EFFD"/>
</linearGradient>
<linearGradient id="paint27_linear_217_186" x1="136.063" y1="66.9079" x2="103.592" y2="97.7233" gradientUnits="userSpaceOnUse">
<stop stop-color="#FF928E"/>
<stop offset="1" stop-color="#FE7062"/>
</linearGradient>
<linearGradient id="paint28_linear_217_186" x1="157.018" y1="68.7816" x2="128.194" y2="96.1367" gradientUnits="userSpaceOnUse">
<stop stop-color="#FF928E"/>
<stop offset="1" stop-color="#FE7062"/>
</linearGradient>
<linearGradient id="paint29_linear_217_186" x1="180.365" y1="68.8388" x2="151.541" y2="96.1939" gradientUnits="userSpaceOnUse">
<stop stop-color="#FF928E"/>
<stop offset="1" stop-color="#FE7062"/>
</linearGradient>
<linearGradient id="paint30_linear_217_186" x1="136.043" y1="229.993" x2="85.9946" y2="284.432" gradientUnits="userSpaceOnUse">
<stop stop-color="#4F52FF"/>
<stop offset="1" stop-color="#4042E2"/>
</linearGradient>
<linearGradient id="paint31_linear_217_186" x1="119.798" y1="234.037" x2="124.243" y2="234.037" gradientUnits="userSpaceOnUse">
<stop stop-color="#FEBBBA"/>
<stop offset="1" stop-color="#FF928E"/>
</linearGradient>
<linearGradient id="paint32_linear_217_186" x1="109.256" y1="200.045" x2="123.955" y2="200.045" gradientUnits="userSpaceOnUse">
<stop stop-color="#E1473D"/>
<stop offset="1" stop-color="#E9605A"/>
</linearGradient>
<linearGradient id="paint33_linear_217_186" x1="124.815" y1="219.672" x2="74.7672" y2="274.11" gradientUnits="userSpaceOnUse">
<stop stop-color="#4F52FF"/>
<stop offset="1" stop-color="#4042E2"/>
</linearGradient>
<linearGradient id="paint34_linear_217_186" x1="103.776" y1="233.809" x2="107.615" y2="233.809" gradientUnits="userSpaceOnUse">
<stop stop-color="#FEBBBA"/>
<stop offset="1" stop-color="#FF928E"/>
</linearGradient>
<linearGradient id="paint35_linear_217_186" x1="99.6392" y1="199.564" x2="120.507" y2="199.564" gradientUnits="userSpaceOnUse">
<stop stop-color="#E1473D"/>
<stop offset="1" stop-color="#E9605A"/>
</linearGradient>
<linearGradient id="paint36_linear_217_186" x1="84.3558" y1="166.84" x2="132.569" y2="131.106" gradientUnits="userSpaceOnUse">
<stop stop-color="#FF928E"/>
<stop offset="1" stop-color="#FE7062"/>
</linearGradient>
<linearGradient id="paint37_linear_217_186" x1="138.091" y1="118.059" x2="160.803" y2="118.059" gradientUnits="userSpaceOnUse">
<stop stop-color="#FEBBBA"/>
<stop offset="1" stop-color="#FF928E"/>
</linearGradient>
<linearGradient id="paint38_linear_217_186" x1="155.743" y1="114.252" x2="140.503" y2="148.926" gradientUnits="userSpaceOnUse">
<stop stop-color="#FEBBBA"/>
<stop offset="1" stop-color="#FF928E"/>
</linearGradient>
<linearGradient id="paint39_linear_217_186" x1="160.693" y1="102.704" x2="167.052" y2="92.9271" gradientUnits="userSpaceOnUse">
<stop stop-color="#FEBBBA"/>
<stop offset="1" stop-color="#FF928E"/>
</linearGradient>
<linearGradient id="paint40_linear_217_186" x1="74.9397" y1="154.136" x2="123.152" y2="118.402" gradientUnits="userSpaceOnUse">
<stop stop-color="#FF928E"/>
<stop offset="1" stop-color="#FE7062"/>
</linearGradient>
<linearGradient id="paint41_linear_217_186" x1="88.394" y1="150.229" x2="117.135" y2="150.229" gradientUnits="userSpaceOnUse">
<stop stop-color="#FEBBBA"/>
<stop offset="1" stop-color="#FF928E"/>
</linearGradient>
<linearGradient id="paint42_linear_217_186" x1="199.695" y1="98.6495" x2="154.885" y2="127.01" gradientUnits="userSpaceOnUse">
<stop stop-color="#09005D"/>
<stop offset="1" stop-color="#1A0F91"/>
</linearGradient>
<linearGradient id="paint43_linear_217_186" x1="135.725" y1="119.415" x2="132.359" y2="134.195" gradientUnits="userSpaceOnUse">
<stop stop-color="#4F52FF"/>
<stop offset="1" stop-color="#4042E2"/>
</linearGradient>
<linearGradient id="paint44_linear_217_186" x1="133.964" y1="125.614" x2="132.354" y2="135.273" gradientUnits="userSpaceOnUse">
<stop stop-color="#4F52FF"/>
<stop offset="1" stop-color="#4042E2"/>
</linearGradient>
<linearGradient id="paint45_linear_217_186" x1="115.001" y1="147.215" x2="123.956" y2="147.215" gradientUnits="userSpaceOnUse">
<stop stop-color="#FEBBBA"/>
<stop offset="1" stop-color="#FF928E"/>
</linearGradient>
<linearGradient id="paint46_linear_217_186" x1="110.463" y1="119.502" x2="121.827" y2="119.502" gradientUnits="userSpaceOnUse">
<stop stop-color="#FEBBBA"/>
<stop offset="1" stop-color="#FF928E"/>
</linearGradient>
<linearGradient id="paint47_linear_217_186" x1="124.53" y1="112.273" x2="112.035" y2="104.653" gradientUnits="userSpaceOnUse">
<stop stop-color="#FEBBBA"/>
<stop offset="1" stop-color="#FF928E"/>
</linearGradient>
<linearGradient id="paint48_linear_217_186" x1="105.422" y1="96.62" x2="121.563" y2="109.369" gradientUnits="userSpaceOnUse">
<stop stop-color="#09005D"/>
<stop offset="1" stop-color="#1A0F91"/>
</linearGradient>
<linearGradient id="paint49_linear_217_186" x1="121.248" y1="115.115" x2="110.007" y2="108.259" gradientUnits="userSpaceOnUse">
<stop stop-color="#FEBBBA"/>
<stop offset="1" stop-color="#FF928E"/>
</linearGradient>
<clipPath id="clip0_217_186">
<rect width="400" height="250" fill="white"/>
</clipPath>
</defs>
</svg>
