<svg width="55" height="45" viewBox="0 0 55 45" fill="none" xmlns="http://www.w3.org/2000/svg">
<path d="M0 45V33.7267C0 29.9379 0.617284 25.9938 1.85185 21.8944C3.14815 17.7329 5 13.7578 7.40741 9.96894C9.81481 6.11801 12.716 2.79503 16.1111 0L25.8333 6.80124C22.9938 10.9006 20.8025 15.1242 19.2593 19.472C17.716 23.7578 16.9444 28.4161 16.9444 33.4472V45H0ZM29.1667 45V33.7267C29.1667 29.9379 29.7839 25.9938 31.0185 21.8944C32.3148 17.7329 34.1667 13.7578 36.5741 9.96894C38.9815 6.11801 41.8827 2.79503 45.2778 0L55 6.80124C52.1605 10.9006 49.9691 15.1242 48.4259 19.472C46.8827 23.7578 46.1111 28.4161 46.1111 33.4472V45H29.1667Z" fill="#473BF0"/>
</svg>
