<svg width="106" height="106" viewBox="0 0 106 106" fill="none" xmlns="http://www.w3.org/2000/svg">
<g clip-path="url(#clip0_215_164)">
<path d="M15.8345 -0.104154C16.0631 -0.105959 16.0631 -0.105959 16.2964 -0.107801C16.8074 -0.110825 17.3183 -0.107949 17.8294 -0.1051C18.1993 -0.106054 18.5693 -0.10737 18.9392 -0.109015C19.9562 -0.112477 20.973 -0.110761 21.9899 -0.108198C23.0865 -0.106327 24.183 -0.109215 25.2796 -0.111494C27.4279 -0.11518 29.5761 -0.114379 31.7244 -0.11198C33.47 -0.110112 35.2157 -0.109856 36.9613 -0.110758C37.2096 -0.110885 37.4579 -0.111012 37.7137 -0.111143C38.218 -0.111407 38.7223 -0.111676 39.2266 -0.111948C43.9578 -0.11431 48.689 -0.111593 53.4202 -0.107145C57.4814 -0.103445 61.5426 -0.104087 65.6039 -0.107905C70.3179 -0.112335 75.0319 -0.114083 79.746 -0.111539C80.2485 -0.111275 80.7509 -0.111015 81.2534 -0.110758C81.6243 -0.110566 81.6243 -0.110566 82.0027 -0.110371C83.7466 -0.109655 85.4905 -0.110864 87.2345 -0.112811C89.3592 -0.115132 91.4839 -0.11451 93.6086 -0.110095C94.6931 -0.107915 95.7775 -0.107071 96.862 -0.109804C97.8543 -0.112267 98.8465 -0.110923 99.8387 -0.10651C100.198 -0.105583 100.558 -0.10606 100.917 -0.108063C101.405 -0.110575 101.892 -0.108007 102.38 -0.104154C102.651 -0.10402 102.923 -0.103885 103.202 -0.103747C104.338 0.0583215 104.929 0.539413 105.657 1.4042C106.067 2.2008 106.104 2.72591 106.104 3.61976C106.105 3.77218 106.107 3.92459 106.108 4.08162C106.111 4.5927 106.108 5.10357 106.105 5.61464C106.106 5.9846 106.107 6.35455 106.109 6.7245C106.112 7.74141 106.111 8.75825 106.108 9.77515C106.106 10.8717 106.109 11.9683 106.112 13.0648C106.115 15.2131 106.114 17.3614 106.112 19.5096C106.11 21.2553 106.11 23.0009 106.111 24.7466C106.111 24.9949 106.111 25.2431 106.111 25.4989C106.111 26.0032 106.112 26.5076 106.112 27.0119C106.114 31.7431 106.112 36.4742 106.107 41.2054C106.103 45.2667 106.104 49.3279 106.108 53.3892C106.112 58.1032 106.114 62.8172 106.112 67.5312C106.111 68.0337 106.111 68.5362 106.111 69.0387C106.111 69.4095 106.111 69.4095 106.11 69.7879C106.11 71.5319 106.111 73.2758 106.113 75.0197C106.115 77.1445 106.115 79.2692 106.11 81.3939C106.108 82.4784 106.107 83.5628 106.11 84.6473C106.112 85.6395 106.111 86.6317 106.107 87.624C106.106 87.9834 106.106 88.3428 106.108 88.7023C106.111 89.1901 106.108 89.6777 106.104 90.1655C106.104 90.4367 106.104 90.7079 106.104 90.9873C105.948 92.077 105.442 92.7057 104.65 93.4426C103.601 93.9414 102.657 93.8969 101.509 93.8848C101.263 93.8855 101.018 93.8862 100.765 93.8869C100.086 93.8881 99.4065 93.8855 98.7271 93.8813C97.9938 93.8778 97.2606 93.879 96.5273 93.8796C95.2574 93.88 93.9875 93.8774 92.7177 93.8728C90.8816 93.866 89.0457 93.8639 87.2096 93.8628C84.2307 93.861 81.2518 93.8555 78.2729 93.8477C75.3794 93.8401 72.4859 93.8342 69.5924 93.8307C69.414 93.8305 69.2356 93.8303 69.0518 93.83C68.1569 93.829 67.2619 93.8279 66.367 93.8269C58.9438 93.8183 51.5207 93.8037 44.0976 93.7852C41.8366 67.379 41.8366 67.379 47.3787 60.619C47.9898 59.9133 48.6354 59.2481 49.3001 58.5931C49.4307 58.4644 49.5613 58.3357 49.6959 58.2031C51.285 56.6595 52.9694 55.2522 54.7118 53.8863C56.2059 52.7097 57.6151 51.445 59.0261 50.171C61.4319 48.0008 63.8788 45.8923 66.4089 43.868C67.5841 42.9186 68.6067 41.9543 69.5625 40.7852C70.1585 40.1519 70.7722 39.5372 71.3869 38.9219C71.5448 38.7615 71.7026 38.6011 71.8653 38.4359C72.0162 38.2846 72.1671 38.1333 72.3226 37.9774C72.5267 37.772 72.5267 37.772 72.7349 37.5625C73.082 37.2657 73.082 37.2657 73.4961 37.2657C73.4968 37.4617 73.4976 37.6578 73.4983 37.8597C73.506 39.7117 73.518 41.5635 73.5341 43.4154C73.5423 44.3673 73.549 45.3193 73.5522 46.2712C73.5553 47.1908 73.5625 48.1103 73.5723 49.0298C73.5754 49.3798 73.577 49.7297 73.5772 50.0797C73.5404 52.5986 73.5404 52.5986 74.5312 54.8633C75.3254 55.6094 76.1118 55.7657 77.1959 55.7497C78.1705 55.6209 78.8748 55.1378 79.4741 54.3587C79.8478 53.5074 79.9398 52.6995 79.9431 51.7758C79.9443 51.5765 79.9455 51.3771 79.9467 51.1717C79.9469 50.9554 79.9471 50.7391 79.9474 50.5162C79.9484 50.2865 79.9494 50.0568 79.9505 49.8202C79.9535 49.0608 79.9549 48.3014 79.9561 47.542C79.9573 47.0137 79.9585 46.4853 79.9597 45.957C79.9616 44.9908 79.9629 44.0245 79.9635 43.0583C79.9644 41.6393 79.968 40.2203 79.974 38.8013C79.9791 37.5693 79.9807 36.3374 79.981 35.1054C79.9816 34.5826 79.9833 34.0599 79.986 33.5372C79.9896 32.8053 79.9892 32.0735 79.9878 31.3416C79.9897 31.1265 79.9916 30.9115 79.9936 30.6899C79.9852 29.2324 79.8795 27.9306 78.8142 26.8365C77.4764 26.0276 76.2386 26.0255 74.7186 26.0291C74.3745 26.0275 74.3745 26.0275 74.0234 26.0259C73.2661 26.0231 72.5089 26.0232 71.7517 26.0237C71.2241 26.0229 70.6965 26.022 70.169 26.021C69.0634 26.0195 67.9577 26.0195 66.8521 26.0206C65.5778 26.0219 64.3035 26.0193 63.0291 26.0149C61.7993 26.0108 60.5694 26.0102 59.3395 26.0109C58.8181 26.0108 58.2967 26.0098 57.7753 26.0077C57.0449 26.0051 56.3147 26.0065 55.5844 26.0089C55.3704 26.0073 55.1564 26.0057 54.9359 26.0041C53.426 26.015 51.9372 26.1136 50.8261 27.2247C50.2828 28.1302 50.177 28.9827 50.3086 30.0196C50.5884 30.9038 51.0134 31.3814 51.7691 31.917C53.2007 32.5906 54.8928 32.4223 56.4419 32.4231C56.7969 32.4262 57.1519 32.4297 57.507 32.4335C58.4368 32.4425 59.3666 32.4466 60.2965 32.4498C61.2472 32.4538 62.1979 32.4625 63.1485 32.4708C65.0105 32.4864 66.8724 32.4968 68.7343 32.504C68.3845 33.2484 67.9729 33.7302 67.387 34.3131C67.106 34.5935 67.106 34.5935 66.8193 34.8796C66.6724 35.0246 66.6724 35.0246 66.5225 35.1725C66.2283 35.4629 65.9359 35.7551 65.6434 36.0474C64.1356 37.5456 64.1356 37.5456 63.6185 37.9712C62.3973 38.981 61.4507 40.1441 60.4715 41.384C58.6141 43.7052 56.6739 45.9437 54.6884 48.1559C53.4948 49.4898 52.3376 50.835 51.2434 52.2521C49.9585 53.9076 48.6059 55.478 47.1352 56.9717C47.0134 57.0953 46.8916 57.219 46.7661 57.3465C41.691 62.3855 35.6461 62.6674 28.8766 62.6714C23.3148 62.6474 17.7574 62.3503 12.2148 61.9024C12.1959 54.3013 12.1813 46.7002 12.1725 39.0991C12.1715 38.2019 12.1704 37.3048 12.1693 36.4076C12.1691 36.229 12.1689 36.0504 12.1687 35.8664C12.1651 32.9735 12.1585 30.0806 12.1509 27.1876C12.1432 24.2198 12.1386 21.2519 12.1369 18.284C12.1358 16.4523 12.1322 14.6207 12.1254 12.789C12.1211 11.5333 12.1197 10.2777 12.1208 9.02205C12.1213 8.29733 12.1205 7.57268 12.1161 6.84797C12.112 6.06233 12.113 5.27685 12.1152 4.4912C12.1128 4.26202 12.1104 4.03283 12.1079 3.7967C12.1175 2.56976 12.1687 1.76737 13.0429 0.828183C13.9976 0.0705447 14.6225 -0.103553 15.8345 -0.104154Z" fill="#473BF0"/>
<path d="M3.71463 68.2954C3.97155 68.2951 4.22848 68.2948 4.49319 68.2946C4.77839 68.2953 5.06358 68.296 5.34878 68.2968C5.6487 68.2969 5.94863 68.2968 6.24856 68.2967C7.06336 68.2967 7.87816 68.2979 8.69296 68.2993C9.54427 68.3006 10.3956 68.3007 11.2469 68.301C12.8592 68.3016 14.4715 68.3033 16.0839 68.3054C17.9194 68.3077 19.7548 68.3089 21.5903 68.3099C25.3663 68.3121 29.1422 68.3157 32.9182 68.3203C32.016 69.4005 31.0664 70.4046 30.0657 71.3934C29.9094 71.5488 29.753 71.7042 29.5919 71.8643C29.2546 72.1995 28.9171 72.5344 28.5793 72.8691C28.0444 73.3994 27.5103 73.9306 26.9764 74.4621C25.4593 75.9723 23.9413 77.4817 22.4211 78.9889C21.4894 79.9128 20.5593 80.8382 19.6301 81.7646C19.2765 82.1164 18.9224 82.4677 18.5677 82.8184C18.0718 83.3089 17.5778 83.8012 17.0842 84.2941C16.9381 84.4376 16.7921 84.5811 16.6416 84.729C15.7305 85.6438 14.8761 86.5668 14.5894 87.8654C14.6069 89.0369 14.8121 89.7383 15.5275 90.6797C16.3438 91.2681 17.1298 91.4442 18.1217 91.394C19.7819 91.0914 21.1294 89.5118 22.2629 88.3592C22.4284 88.1934 22.594 88.0277 22.7645 87.8569C23.306 87.3139 23.8453 86.7688 24.3846 86.2237C24.7619 85.8447 25.1394 85.4658 25.517 85.0871C26.4057 84.1952 27.2931 83.302 28.1798 82.4081C29.866 80.7083 31.5552 79.0115 33.2446 77.3148C33.7999 76.7566 34.3544 76.1976 34.9088 75.6385C35.246 75.2992 35.5833 74.96 35.9205 74.6207C36.0756 74.4639 36.2307 74.3071 36.3904 74.1456C36.5309 74.0045 36.6713 73.8635 36.816 73.7182C36.9386 73.5946 37.0611 73.471 37.1874 73.3437C37.4728 73.082 37.4728 73.082 37.6799 73.082C37.6944 77.0286 37.7053 80.9752 37.7121 84.9218C37.7153 86.7543 37.7196 88.5868 37.7267 90.4193C37.7329 92.0166 37.7369 93.6138 37.7383 95.2111C37.7391 96.0568 37.741 96.9024 37.7455 97.7481C37.7498 98.5444 37.7511 99.3406 37.7501 100.137C37.7503 100.429 37.7515 100.721 37.7539 101.013C37.757 101.412 37.7559 101.811 37.7546 102.211C37.7551 102.434 37.7557 102.657 37.7563 102.887C37.6505 103.757 37.3409 104.456 36.741 105.098C35.7579 105.85 35.3291 106.026 34.0957 106.03C33.8923 106.032 33.8923 106.032 33.6848 106.033C33.2283 106.035 32.7719 106.036 32.3155 106.037C31.989 106.038 31.6626 106.039 31.3361 106.041C30.4477 106.044 29.5592 106.047 28.6707 106.048C28.1158 106.049 27.5608 106.051 27.0059 106.052C25.2699 106.056 23.534 106.059 21.798 106.061C19.7935 106.063 17.789 106.068 15.7845 106.076C14.2356 106.083 12.6868 106.086 11.1379 106.086C10.2127 106.087 9.28741 106.089 8.36213 106.094C7.4914 106.099 6.62075 106.1 5.75 106.097C5.43069 106.097 5.11138 106.099 4.79208 106.102C4.35545 106.105 3.91913 106.104 3.4825 106.101C3.23838 106.101 2.99426 106.102 2.74275 106.102C1.64139 105.935 1.04332 105.431 0.343183 104.587C-0.0492685 103.835 -0.103889 103.368 -0.104974 102.523C-0.106265 102.387 -0.107557 102.251 -0.108888 102.11C-0.112176 101.656 -0.109581 101.203 -0.10697 100.749C-0.108093 100.422 -0.109568 100.095 -0.111367 99.7689C-0.115137 98.8839 -0.113681 97.999 -0.111054 97.1139C-0.108954 96.187 -0.110902 95.26 -0.112201 94.333C-0.113707 92.7764 -0.111725 91.2198 -0.107779 89.6632C-0.103272 87.8646 -0.104732 86.0661 -0.109291 84.2674C-0.113051 82.7221 -0.113579 81.1768 -0.111413 79.6314C-0.110123 78.7089 -0.109946 77.7865 -0.112685 76.864C-0.11508 75.9966 -0.113412 75.1294 -0.108632 74.262C-0.107538 73.944 -0.107848 73.6261 -0.109677 73.3081C-0.111947 72.8733 -0.109094 72.4389 -0.104974 72.0041C-0.104661 71.761 -0.104349 71.518 -0.104027 71.2676C0.0595211 70.2162 0.582491 69.5773 1.35883 68.8767C2.15864 68.323 2.76534 68.2946 3.71463 68.2954Z" fill="#473BF0"/>
</g>
<defs>
<clipPath id="clip0_215_164">
<rect width="106" height="106" fill="white"/>
</clipPath>
</defs>
</svg>
