<svg width="75" height="106" viewBox="0 0 75 106" fill="none" xmlns="http://www.w3.org/2000/svg">
<path d="M66.3958 80.3022C66.0511 81.0773 65.7042 81.8547 65.3584 82.6299C65.2763 82.7996 65.1945 82.9696 65.1141 83.1393C64.7354 83.8859 64.3589 84.6318 63.981 85.3788C63.713 85.626 63.5744 85.9421 63.4965 86.2908C62.91 86.8341 62.8682 87.8615 61.9086 88.0755C61.5153 88.0809 61.1227 88.0873 60.728 88.0927C59.5509 88.0855 58.3763 88.0787 57.2018 88.0734C56.8088 88.0787 56.4144 88.0834 56.0197 88.0887C54.8451 88.0834 53.6698 88.0787 52.4945 88.0734C52.1016 88.0787 51.7075 88.0834 51.3124 88.0887C50.1375 88.0834 48.9626 88.0787 47.7883 88.0734C47.3932 88.0787 46.9992 88.0834 46.6056 88.0887C45.4303 88.0834 44.2557 88.0787 43.0815 88.0734C42.6864 88.0787 42.2913 88.0834 41.899 88.0887C40.7241 88.0834 39.5488 88.0787 38.3739 88.0734C37.9795 88.0787 37.5847 88.0834 37.1918 88.0887C36.0168 88.0834 34.8419 88.0787 33.667 88.0734C33.2708 88.0787 32.8782 88.0834 32.4852 88.0887C31.3103 88.0834 30.1336 88.0787 28.9583 88.0734C28.5639 88.0787 28.171 88.0834 27.7784 88.0887C27.5086 88.0716 27.2318 88.0055 26.9685 88.0448C25.855 88.2048 25.2438 87.7476 24.9466 86.6577C24.7244 85.8464 24.3214 85.0866 24.0006 84.3039C23.8913 83.6333 23.6516 83.0082 23.3137 82.4191C22.7021 80.4997 22.0298 78.6035 21.1828 76.7713C21.0974 76.0932 20.8238 75.4817 20.4998 74.8887C19.8914 72.9671 19.2155 71.0702 18.3678 69.2394C18.3849 68.8536 18.3989 68.4696 18.416 68.0834C18.9451 67.6651 19.4759 67.246 20.0075 66.8281C20.3047 66.6895 20.5608 66.5041 20.7316 66.2169C21.4489 65.7725 22.0841 65.2309 22.6374 64.594C22.791 64.4525 22.9446 64.3107 23.1 64.1692C23.8056 63.6791 24.4204 63.09 24.9602 62.4202C25.3427 62.1744 25.6539 61.8586 25.8925 61.4707C26.4662 61.0288 26.9414 60.4944 27.3493 59.8967C27.5762 59.642 27.8048 59.3859 28.0341 59.1301C28.5907 58.6557 29.0326 58.0848 29.4291 57.475C29.7599 57.2343 29.9803 56.9063 30.1597 56.5448C30.7216 55.9922 31.1796 55.362 31.5618 54.6761C31.7904 54.3535 32.0194 54.0288 32.2466 53.7062C32.7246 53.1393 33.1497 52.5381 33.4455 51.8551C33.6555 51.5289 33.8634 51.2024 34.0721 50.8766C34.5568 50.1304 35.0627 49.3959 35.331 48.5335C35.5746 48.3574 35.6728 48.0963 35.7421 47.8198C36.1758 47.0799 36.5673 46.3237 36.7977 45.4938C36.9974 45.357 36.9953 45.1366 37.03 44.9301C37.5354 43.987 37.9009 42.9932 38.1074 41.943C38.3106 41.6632 38.416 41.3553 38.3878 41.0052C38.7654 40.0986 38.9797 39.1555 39.0451 38.177C39.5817 36.1019 39.6928 34.0131 39.2191 31.8697C38.7411 33.7109 38.4092 35.5739 37.479 37.2375C37.0642 37.7687 36.647 38.2999 36.2301 38.8329C35.9215 39.0822 35.6121 39.333 35.3049 39.5824C34.6015 39.8999 33.8977 40.2193 33.1936 40.5372C32.8557 40.5201 32.5313 40.5526 32.2513 40.7641C30.9927 40.7659 29.7338 40.783 28.4875 40.5526C28.0295 40.3972 27.5751 40.2229 27.0768 40.2707C25.6317 39.7395 24.1257 39.5277 22.6053 39.3809C22.2127 39.3687 21.8179 39.3555 21.4253 39.3434C20.3051 39.1333 19.203 39.1966 18.1238 39.5706C17.6598 39.567 17.2582 39.7345 16.9085 40.0318C16.1465 40.3079 15.4599 40.7148 14.8212 41.2085C14.5329 41.2696 14.2904 41.4067 14.111 41.644C13.339 41.9583 12.676 42.4481 12.0191 42.9436C11.7697 43.1211 11.52 43.3004 11.2725 43.478C10.5073 43.8949 9.81745 44.4104 9.19729 45.0202C8.87114 45.1584 8.61501 45.3806 8.41674 45.6707C7.76587 45.9507 7.4465 46.7909 6.60272 46.7449C5.75929 46.2462 5.34062 45.3238 4.58579 44.7347C4.32287 44.3986 4.07173 44.0517 3.79309 43.7273C2.03587 41.6729 0.309363 39.6042 0 36.7624C0.0100025 36.3712 0.0171486 35.9786 0.0271511 35.5874C0.254351 34.6447 0.481193 33.7016 0.706963 32.7592C0.826279 32.5438 0.945951 32.327 1.06562 32.1116C1.4943 31.4593 1.92298 30.807 2.35345 30.1547C2.52421 29.9564 2.69853 29.7585 2.87107 29.5602C3.48408 29.0447 4.09531 28.5303 4.71011 28.0148C5.0309 27.7962 5.35384 27.5776 5.67677 27.359C6.38731 27.0189 7.01568 26.5648 7.57761 26.0133C7.94841 25.8272 8.28814 25.5982 8.53392 25.2549C9.13871 24.8673 9.69528 24.4232 10.1515 23.8631C10.3086 23.7181 10.464 23.5727 10.6194 23.4276C11.3332 22.9511 11.9412 22.3652 12.4828 21.7043C12.8689 21.46 13.1847 21.1456 13.4323 20.7616C13.9699 20.3533 14.435 19.8717 14.8258 19.322C15.0906 19.0301 15.3553 18.7379 15.62 18.4457C16.2448 17.8802 16.8256 17.2739 17.2625 16.5466C17.5376 16.3587 17.763 16.1283 17.8877 15.8122C18.3657 15.3374 18.7879 14.8233 19.0937 14.2189C19.4209 13.956 19.6228 13.6077 19.7731 13.2251C20.2751 12.4481 20.7777 11.6729 21.2778 10.8956C21.351 10.7877 21.4228 10.6819 21.4964 10.5748C22.0476 9.81959 22.6014 9.06476 23.1529 8.31171C23.3733 8.07273 23.5955 7.83374 23.8174 7.59618C24.6286 7.15035 24.6444 6.64666 24.0617 5.93791C22.9875 4.63508 21.809 3.45157 20.4426 2.46597C19.8007 2.00157 19.5495 1.51323 20.04 0.807702C20.2654 0.708391 20.4923 0.609796 20.7198 0.508699C21.7376 0.346516 22.7553 0.184333 23.777 0.0221498C24.1696 0.0153624 24.5643 0.00678741 24.9587 0C26.4377 0.0803772 27.8705 0.363663 29.2455 0.917015C30.2411 1.25889 30.972 2.12625 32.0423 2.31415C32.9786 2.11946 33.9113 1.92477 34.8469 1.73007C35.2381 1.69935 35.6292 1.67042 36.0226 1.6397C37.1221 1.59397 38.2181 1.54931 39.3187 1.50323C39.7835 1.64827 40.2565 1.65005 40.733 1.60183C42.0133 1.77294 43.2944 1.9437 44.5758 2.11446C45.0959 2.20341 45.6178 2.29057 46.1404 2.37917C47.8644 2.93966 49.5892 3.4998 51.316 4.06137C51.9873 4.44754 52.6842 4.78048 53.4344 4.9891C55.2395 6.07366 57.0921 7.07248 58.7947 8.32779C63.4544 11.7604 66.9292 16.1719 69.5991 21.2614C69.901 21.9494 70.2032 22.6396 70.5033 23.3294C71.1017 25.0595 71.6989 26.791 72.2966 28.5214C72.3827 29.0851 72.4338 29.657 72.7121 30.1711C72.9635 31.5818 73.2158 32.9943 73.469 34.4068C73.4222 34.8901 73.4208 35.3681 73.6423 35.8171C73.6291 37.0825 73.758 38.3346 73.9345 39.5845C73.9356 39.9775 73.9356 40.3718 73.9356 40.7662C73.9431 41.9415 73.9495 43.1147 73.9549 44.2896C73.9474 44.684 73.9392 45.0787 73.9324 45.4731C73.8795 46.5677 73.8259 47.6622 73.7723 48.7572C73.7445 49.1515 73.7205 49.5481 73.6934 49.9442C73.568 51.0374 73.3483 52.1233 73.4201 53.2336C73.2093 53.5208 73.2079 53.8484 73.2386 54.1831C73.0986 55.1927 72.9603 56.2015 72.8217 57.2114C72.766 57.6029 72.7099 57.9927 72.6545 58.3828C72.477 59.3262 72.2991 60.2679 72.1216 61.2106C72.0705 61.5257 72.019 61.8397 71.9672 62.1523C71.6572 63.1615 71.3939 64.181 71.3121 65.2405C71.0524 65.5067 71.0645 65.845 71.0659 66.1797C70.7208 67.0935 70.4726 68.0312 70.3486 68.9997C70.0753 69.2469 70.1271 69.5991 70.0557 69.9096C69.7892 70.7841 69.5227 71.6586 69.2562 72.5317C69.2083 72.6988 69.159 72.8667 69.1097 73.0332C68.7629 74.0427 68.4142 75.0537 68.0684 76.0632C67.9555 76.3701 67.8458 76.678 67.7333 76.9835C67.3375 77.7383 67.0292 78.5274 66.8181 79.3523C66.5677 79.6177 66.4541 79.9474 66.3958 80.3022ZM29.7124 23.1365C30.5666 22.7689 31.1263 22.1527 31.321 21.2303C31.6368 20.882 31.5843 20.4651 31.5443 20.0504C31.5461 17.8248 30.1804 16.4537 28.0145 16.5098C27.6765 16.4823 27.3311 16.4348 27.0718 16.7402C25.9715 17.0289 25.391 17.8044 25.0941 18.8461C24.8858 19.1419 24.8976 19.4727 24.9419 19.8078C24.8462 22.1098 26.2262 23.5652 28.4846 23.5427C28.9404 23.5498 29.3573 23.4337 29.7124 23.1365Z" fill="#473BF0"/>
<path d="M17.1892 96.771C16.6705 97.2936 15.7663 97.3568 15.5002 98.1817C15.3941 98.4264 15.2898 98.6704 15.1844 98.9161C14.8375 99.9153 14.4924 100.916 13.9494 101.831C13.9219 102.055 13.9323 102.294 13.7036 102.436C13.4479 103.414 13.0306 104.33 12.5734 105.227C12.5116 105.392 12.4501 105.56 12.3887 105.727C12.498 105.817 12.6073 105.909 12.7166 106C13.1092 105.996 13.5057 105.992 13.8983 105.988C15.0736 105.992 16.2486 105.996 17.4231 106C17.8161 105.996 18.2123 105.992 18.607 105.988C19.7802 105.992 20.9547 105.996 22.13 106C22.5244 105.996 22.9188 105.992 23.3132 105.988C24.4867 105.992 25.6616 105.996 26.8366 106C27.2309 105.996 27.6257 105.992 28.0201 105.988C29.1932 105.992 30.3682 105.996 31.5435 106C31.9378 105.996 32.3322 105.992 32.7284 105.988C33.9015 105.992 35.075 105.996 36.2496 106C36.644 105.996 37.038 105.992 37.4342 105.988C38.6074 105.992 39.7805 105.996 40.9554 106C41.3516 105.996 41.7446 105.992 42.1407 105.988C43.3139 105.992 44.4892 105.996 45.6623 106C46.0581 105.996 46.4515 105.992 46.8473 105.988C48.0222 105.992 49.1953 105.996 50.3681 106C50.764 105.996 51.1591 105.992 51.5531 105.988C52.7273 105.992 53.9005 105.996 55.0743 106C55.4701 105.996 55.8649 105.992 56.2592 105.988C57.4338 105.992 58.6073 105.996 59.7819 106C60.1763 105.996 60.571 105.992 60.9654 105.988C62.1407 105.992 63.3153 105.996 64.4884 106C64.8828 105.996 65.2776 105.992 65.672 105.988C66.8473 105.992 68.0218 105.996 69.195 106C69.5894 105.996 69.9862 105.992 70.3785 105.988C71.5531 105.992 72.7287 105.996 73.904 106C73.999 105.988 74.0948 105.977 74.1923 105.964C73.6664 103.91 72.5719 102.071 71.9349 100.057C71.5613 99.3923 71.2812 98.6907 71.1001 97.9498C70.8572 97.719 70.615 97.4901 70.3724 97.2596C69.365 96.8528 68.4394 96.2994 67.5249 95.7261C66.2732 94.7783 64.8046 94.7065 63.3235 94.689C62.8545 94.8455 62.3861 94.8348 61.9149 94.7047C60.8154 94.7815 59.7155 94.8037 58.6173 94.689C58.1483 94.8455 57.6785 94.8348 57.207 94.7047C56.1092 94.7815 55.0093 94.8037 53.9112 94.689C53.4418 94.8455 52.9717 94.8348 52.5001 94.7047C51.4005 94.7815 50.3028 94.8037 49.2025 94.689C48.7345 94.8455 48.2648 94.8348 47.7943 94.7047C46.6944 94.7815 45.5962 94.8037 44.4967 94.689C44.0284 94.8455 43.5589 94.8348 43.0881 94.7047C41.9882 94.7815 40.8883 94.8037 39.7901 94.689C39.3222 94.8455 38.851 94.8348 38.3802 94.7047C37.2838 94.7815 36.1839 94.8037 35.0868 94.689C34.6171 94.843 34.1459 94.8348 33.6729 94.7047C32.4915 94.7783 31.3112 94.8162 30.131 94.6761C29.7448 94.7897 29.3558 94.8008 28.9624 94.6987C27.7843 94.7855 26.6022 94.8123 25.4237 94.6761C25.0379 94.7897 24.6485 94.8008 24.2559 94.6987C23.0806 94.7376 21.9028 94.7751 20.7258 94.8123C20.6254 94.8623 20.5225 94.9112 20.42 94.9609C19.6308 95.5092 18.8113 96.0065 17.9097 96.3559C17.7239 96.5834 17.4746 96.7077 17.1892 96.771Z" fill="#473BF0"/>
</svg>
