<svg width="400" height="250" viewBox="0 0 400 250" fill="none" xmlns="http://www.w3.org/2000/svg">
<g clip-path="url(#clip0_217_640)">
<rect width="400" height="250" fill="#F8F8FF"/>
<path d="M294.87 217.181C290.11 222.193 285.605 225.425 282.046 227.978C240.212 257.995 190.71 249.245 180.19 247.109C164.655 243.953 134.625 237.854 112.914 212.323C80.0675 173.696 85.1822 112.84 110.66 72.6683C115.321 65.3202 139.938 24.5366 189.972 17.9961C220.253 14.0379 255.55 22.0211 281.111 43.4364C334.766 88.3889 330.947 179.201 294.87 217.181Z" fill="url(#paint0_linear_217_640)"/>
<path d="M254.235 194.957C289.29 159.902 289.29 103.067 254.235 68.0113C219.179 32.9561 162.344 32.9561 127.288 68.0113C92.2333 103.067 92.2333 159.902 127.288 194.957C162.344 230.013 219.179 230.013 254.235 194.957Z" fill="#BDD0FB"/>
<path d="M190.763 208.096C233.074 208.096 267.374 173.796 267.374 131.485C267.374 89.1733 233.074 54.8733 190.763 54.8733C148.452 54.8733 114.152 89.1733 114.152 131.485C114.152 173.796 148.452 208.096 190.763 208.096Z" fill="url(#paint1_linear_217_640)"/>
<path d="M190.763 211.933C146.404 211.933 110.315 175.844 110.315 131.484C110.315 87.1247 146.404 51.0359 190.763 51.0359C235.122 51.0359 271.211 87.1247 271.211 131.484C271.211 175.844 235.122 211.933 190.763 211.933ZM190.763 54.8732C148.52 54.8732 114.152 89.2406 114.152 131.484C114.152 173.728 148.52 208.096 190.763 208.096C233.007 208.096 267.374 173.728 267.374 131.484C267.374 89.2406 233.007 54.8732 190.763 54.8732Z" fill="white"/>
<path d="M190.764 178.191C216.558 178.191 237.469 157.28 237.469 131.485C237.469 105.69 216.558 84.7788 190.764 84.7788C164.969 84.7788 144.058 105.69 144.058 131.485C144.058 157.28 164.969 178.191 190.764 178.191Z" fill="url(#paint2_linear_217_640)"/>
<path d="M190.764 182.028C162.894 182.028 140.221 159.354 140.221 131.485C140.221 103.615 162.894 80.9419 190.764 80.9419C218.633 80.9419 241.307 103.615 241.307 131.485C241.307 159.354 218.633 182.028 190.764 182.028ZM190.764 88.6161C167.126 88.6161 147.895 107.847 147.895 131.485C147.895 155.122 167.126 174.354 190.764 174.354C214.402 174.354 233.632 155.122 233.632 131.485C233.632 107.847 214.402 88.6161 190.764 88.6161Z" fill="white"/>
<path d="M190.763 149.58C200.757 149.58 208.858 141.478 208.858 131.484C208.858 121.491 200.757 113.389 190.763 113.389C180.769 113.389 172.668 121.491 172.668 131.484C172.668 141.478 180.769 149.58 190.763 149.58Z" fill="url(#paint3_linear_217_640)"/>
<path d="M190.763 153.417C178.67 153.417 168.831 143.578 168.831 131.484C168.831 119.39 178.67 109.552 190.763 109.552C202.857 109.552 212.696 119.39 212.696 131.484C212.696 143.578 202.857 153.417 190.763 153.417ZM190.763 117.226C182.901 117.226 176.505 123.622 176.505 131.484C176.505 139.347 182.901 145.743 190.763 145.743C198.625 145.743 205.022 139.347 205.022 131.484C205.022 123.622 198.625 117.226 190.763 117.226Z" fill="white"/>
<path d="M276.416 46.0637L278.322 47.9697L206.149 120.143L204.243 118.237L276.416 46.0637Z" fill="url(#paint4_linear_217_640)"/>
<path d="M205.593 113.638C206.686 112.544 211.841 117.699 210.747 118.793L191.628 133.823C190.922 134.378 190.007 133.463 190.562 132.757L205.593 113.638Z" fill="url(#paint5_linear_217_640)"/>
<path d="M278.28 48.011L287.99 48.976L274.661 62.3053C270.293 66.6725 264.198 68.8506 258.052 68.2397L278.28 48.011Z" fill="#91B3FA"/>
<path d="M276.374 46.105L275.409 36.3955L262.08 49.7248C257.713 54.092 255.535 60.1878 256.146 66.3337L276.374 46.105Z" fill="#91B3FA"/>
<g opacity="0.3">
<path d="M143.128 32.6651C142.856 32.9364 142.416 32.9362 142.145 32.6649C141.618 32.1378 141.061 31.6257 140.488 31.1429C140.198 30.8986 140.158 30.4678 140.396 30.1746C140.399 30.1711 140.402 30.1677 140.404 30.1641C140.652 29.8708 141.09 29.8335 141.383 30.0808C141.986 30.5891 142.573 31.1281 143.128 31.683C143.382 31.9367 143.398 32.338 143.177 32.6107C143.161 32.6295 143.145 32.6478 143.128 32.6651ZM137.538 28.9841C136.905 28.584 136.249 28.2073 135.588 27.864C135.247 27.6874 135.114 27.2682 135.291 26.9276C135.469 26.5865 135.887 26.4544 136.227 26.6311C136.923 26.9921 137.614 27.3887 138.28 27.8095C138.605 28.0144 138.701 28.4435 138.496 28.7678C138.482 28.7914 138.465 28.8138 138.448 28.8348C138.23 29.1045 137.839 29.1741 137.538 28.9841ZM132.235 26.4113C131.531 26.1629 130.808 25.9421 130.084 25.7551C129.713 25.659 129.49 25.28 129.586 24.9087C129.682 24.5378 130.061 24.3144 130.432 24.4102C131.194 24.6072 131.956 24.8398 132.698 25.1014C133.059 25.229 133.249 25.6257 133.122 25.9875C133.094 26.0646 133.055 26.1339 133.006 26.194C132.826 26.4156 132.52 26.5118 132.235 26.4113ZM126.491 25.0892C125.748 25.0043 124.993 24.9509 124.246 24.9299C123.862 24.9191 123.56 24.5994 123.571 24.2162C123.582 23.8328 123.902 23.5309 124.285 23.5413C125.071 23.5634 125.866 23.6198 126.648 23.7088C127.029 23.7523 127.303 24.0965 127.259 24.4776C127.244 24.614 127.19 24.7367 127.109 24.8359C126.965 25.0141 126.735 25.1169 126.491 25.0892ZM120.594 25.0799C119.853 25.162 119.104 25.2769 118.37 25.422C117.993 25.4961 117.628 25.2512 117.554 24.8749C117.48 24.4983 117.725 24.1331 118.101 24.0592C118.874 23.9067 119.661 23.7857 120.441 23.6994C120.823 23.6571 121.166 23.9319 121.208 24.3133C121.229 24.5054 121.17 24.6879 121.057 24.8271C120.946 24.964 120.783 25.0589 120.594 25.0799ZM114.843 26.3755C114.137 26.6198 113.433 26.8975 112.75 27.2009C112.399 27.3567 111.989 27.1988 111.833 26.8484C111.677 26.4978 111.835 26.0874 112.186 25.9315C112.904 25.6121 113.646 25.3199 114.388 25.0628C114.751 24.9374 115.146 25.1295 115.272 25.492C115.354 25.7275 115.301 25.9768 115.155 26.1571C115.076 26.2543 114.97 26.3315 114.843 26.3755ZM97.1262 45.1202C96.755 45.0236 96.5323 44.6443 96.629 44.273C96.8271 43.5125 97.0612 42.7504 97.3246 42.008C97.453 41.6464 97.8501 41.4574 98.2115 41.5858C98.5729 41.7139 98.7619 42.111 98.6337 42.4724C98.3836 43.1773 98.1615 43.901 97.9734 44.6232C97.9476 44.7223 97.9018 44.8106 97.8412 44.8854C97.6749 45.0904 97.3983 45.1911 97.1262 45.1202ZM109.525 28.9121C108.891 29.3071 108.267 29.7343 107.67 30.1824C107.363 30.4124 106.927 30.3502 106.697 30.0433C106.467 29.7363 106.531 29.3024 106.836 29.0709C107.465 28.5992 108.123 28.1492 108.79 27.7333C109.116 27.5304 109.544 27.6297 109.747 27.9553C109.908 28.2134 109.879 28.5365 109.697 28.7602C109.65 28.8186 109.592 28.8701 109.525 28.9121ZM99.1562 39.4172C98.8162 39.24 98.6841 38.8203 98.8614 38.4802C99.2248 37.7836 99.623 37.0933 100.045 36.4285C100.249 36.1034 100.679 36.0088 101.003 36.2141C101.327 36.4196 101.423 36.8487 101.218 37.1728C100.817 37.8045 100.438 38.4604 100.093 39.1226C100.071 39.1649 100.045 39.2037 100.016 39.2393C99.8127 39.4906 99.454 39.5725 99.1562 39.4172ZM104.908 32.5731C104.379 33.0995 103.866 33.6557 103.383 34.2266C103.135 34.5196 102.697 34.556 102.404 34.3082C102.115 34.0636 102.076 33.6336 102.313 33.3409C102.316 33.3371 102.319 33.3332 102.323 33.3296C102.831 32.7285 103.371 32.1428 103.928 31.5887C104.2 31.3182 104.639 31.3191 104.91 31.5909C105.163 31.8448 105.179 32.2454 104.958 32.5177C104.942 32.5366 104.926 32.5552 104.908 32.5731Z" fill="#91B3FA"/>
<path d="M97.044 49.6969C97.1302 49.5907 97.1861 49.458 97.1969 49.3112C97.2231 48.954 97.2575 48.5916 97.2984 48.2335C97.3422 47.8525 97.0686 47.508 96.6877 47.4643C96.3066 47.4205 95.9616 47.6939 95.9185 48.0752C95.8752 48.4517 95.8392 48.833 95.8115 49.2089C95.7832 49.5913 96.0706 49.9245 96.453 49.9526C96.6888 49.9702 96.9057 49.8676 97.044 49.6969Z" fill="#91B3FA"/>
</g>
<g opacity="0.3">
<path d="M103.857 69.7468C104.068 69.4864 104.065 69.1042 103.834 68.8465C103.595 68.5799 103.357 68.3037 103.128 68.0258C102.884 67.7297 102.447 67.6876 102.151 67.9316C101.853 68.1767 101.813 68.6135 102.056 68.9094C102.298 69.2019 102.548 69.4929 102.799 69.7736C103.055 70.0593 103.494 70.0833 103.78 69.8274C103.808 69.8022 103.834 69.7751 103.857 69.7468Z" fill="#91B3FA"/>
<path d="M144.125 69.8083C143.869 70.0941 143.43 70.1184 143.144 69.8623C142.859 69.6064 142.835 69.168 143.09 68.8816C143.577 68.3375 144.049 67.7642 144.497 67.1713C144.727 66.8661 145.165 66.8052 145.47 67.0365C145.776 67.268 145.837 67.7036 145.605 68.0096C145.411 68.2664 145.213 68.5191 145.012 68.7674C144.725 69.1216 144.427 69.4718 144.125 69.8083ZM146.733 65.1081C146.399 64.9203 146.28 64.4968 146.468 64.1625C146.829 63.5203 147.167 62.8563 147.471 62.1883C147.629 61.8392 148.042 61.6854 148.392 61.8446C148.74 62.0038 148.894 62.4158 148.735 62.7646C148.414 63.4679 148.059 64.1672 147.679 64.8427C147.659 64.8777 147.637 64.9105 147.613 64.9407C147.404 65.1988 147.033 65.2764 146.733 65.1081ZM141.413 72.4484C140.824 72.9483 140.205 73.4298 139.574 73.8793C139.261 74.1018 138.828 74.0289 138.605 73.7163C138.382 73.4039 138.456 72.9707 138.768 72.7476C139.367 72.3208 139.955 71.8637 140.514 71.389C140.807 71.1409 141.245 71.1768 141.494 71.4695C141.713 71.7282 141.71 72.1012 141.504 72.3555C141.477 72.3886 141.447 72.4198 141.413 72.4484ZM149.202 59.6869C148.835 59.5771 148.626 59.1899 148.736 58.8225C148.946 58.118 149.129 57.396 149.28 56.6769C149.358 56.301 149.726 56.0605 150.102 56.1392C150.477 56.2176 150.718 56.5854 150.639 56.9609C150.481 57.7183 150.288 58.4786 150.067 59.2204C150.04 59.3099 149.997 59.3903 149.941 59.4587C149.769 59.6709 149.48 59.7699 149.202 59.6869ZM136.349 75.8562C135.665 76.214 134.956 76.5474 134.241 76.8472C133.887 76.9957 133.48 76.8294 133.332 76.4758C133.183 76.122 133.35 75.7149 133.704 75.5665C134.382 75.2815 135.056 74.9649 135.706 74.6251C136.046 74.4474 136.466 74.579 136.643 74.919C136.776 75.1723 136.736 75.4698 136.567 75.6784C136.509 75.7499 136.436 75.811 136.349 75.8562ZM130.661 78.071C129.913 78.2709 129.148 78.4416 128.387 78.5784C128.01 78.6461 127.649 78.3952 127.581 78.0176C127.513 77.6395 127.764 77.2786 128.142 77.2112C128.865 77.0812 129.592 76.919 130.302 76.7291C130.673 76.63 131.054 76.8501 131.153 77.2207C131.212 77.4441 131.156 77.671 131.021 77.8379C130.932 77.9479 130.808 78.0316 130.661 78.071ZM124.625 78.9933C123.851 79.0257 123.067 79.0257 122.295 78.9935C121.911 78.9775 121.614 78.6538 121.63 78.2706C121.646 77.8868 121.97 77.5896 122.353 77.6056C123.086 77.6364 123.831 77.6362 124.567 77.6054C124.95 77.5894 125.274 77.8872 125.29 78.2703C125.297 78.4465 125.239 78.6097 125.136 78.7366C125.014 78.8861 124.832 78.9847 124.625 78.9933ZM118.532 78.5771C117.769 78.4395 117.004 78.2676 116.257 78.0663C115.887 77.9665 115.667 77.5853 115.767 77.2148C115.867 76.8451 116.248 76.6253 116.619 76.7251C117.328 76.9162 118.054 77.0794 118.779 77.2101C119.156 77.2782 119.407 77.6394 119.339 78.0168C119.317 78.136 119.266 78.2425 119.195 78.3304C119.041 78.521 118.79 78.6237 118.532 78.5771ZM112.675 76.8312C111.964 76.5297 111.256 76.1936 110.571 75.8324C110.231 75.6534 110.101 75.2332 110.28 74.894C110.459 74.5558 110.879 74.4246 111.219 74.6035C111.869 74.9468 112.542 75.2658 113.218 75.5523C113.571 75.7019 113.736 76.1097 113.586 76.4628C113.56 76.5243 113.526 76.5802 113.486 76.6296C113.296 76.864 112.967 76.9548 112.675 76.8312ZM107.351 73.8451C106.888 73.5141 106.429 73.1647 105.987 72.8067C105.827 72.677 105.669 72.5461 105.513 72.4136C105.221 72.1657 105.176 71.7262 105.433 71.4348C105.68 71.142 106.119 71.1059 106.411 71.3539C106.56 71.4796 106.71 71.6045 106.862 71.7276C107.282 72.0681 107.718 72.4 108.159 72.7148C108.471 72.9376 108.543 73.3716 108.32 73.6836C108.312 73.6953 108.303 73.7068 108.294 73.7178C108.065 74.0008 107.651 74.0598 107.351 73.8451Z" fill="#91B3FA"/>
<path d="M151.006 53.5822C151.093 53.4749 151.149 53.3409 151.159 53.1929C151.185 52.8177 151.203 52.4349 151.214 52.0551C151.224 51.6716 150.922 51.3523 150.538 51.3418C150.155 51.3315 149.835 51.6333 149.825 52.017C149.815 52.3778 149.798 52.7414 149.773 53.0976C149.747 53.4801 150.036 53.8118 150.418 53.8381C150.653 53.8541 150.868 53.7518 151.006 53.5822Z" fill="#91B3FA"/>
</g>
<path d="M143.193 44.5964C143.164 44.4608 143.053 44.358 142.916 44.3406L138.997 43.8402C138.219 42.167 137.169 40.6058 135.86 39.2299L136.831 35.4026C136.865 35.2683 136.81 35.1272 136.694 35.0513L132.731 32.4529C132.615 32.3768 132.463 32.3828 132.354 32.4675L129.231 34.8834C127.447 34.2319 125.597 33.8912 123.752 33.8451L121.731 30.4505C121.66 30.3315 121.521 30.2706 121.386 30.2988L116.746 31.2638C116.61 31.292 116.507 31.4031 116.49 31.5406L115.99 35.4598C114.316 36.2375 112.755 37.2877 111.379 38.5965L107.552 37.6262C107.418 37.5921 107.277 37.647 107.201 37.7628L104.602 41.7261C104.526 41.8419 104.532 41.9932 104.617 42.1027L107.033 45.2259C106.381 47.0094 106.041 48.8599 105.995 50.7044L102.6 52.726C102.481 52.7969 102.42 52.9354 102.448 53.071L103.413 57.7109C103.441 57.8465 103.553 57.9492 103.69 57.9668L107.609 58.4672C108.387 60.1405 109.437 61.7016 110.746 63.0774L109.776 66.9048C109.742 67.0391 109.796 67.1801 109.912 67.256L113.876 69.8545C113.991 69.9304 114.143 69.9245 114.252 69.8398L117.375 67.4239C119.159 68.0754 121.009 68.416 122.854 68.4622L124.875 71.8568C124.946 71.9758 125.085 72.0367 125.22 72.0085L129.86 71.0434C129.996 71.0152 130.099 70.9042 130.116 70.7668L130.617 66.8476C132.29 66.0698 133.851 65.0197 135.227 63.711L139.054 64.6813C139.188 64.7152 139.329 64.6604 139.405 64.5446L142.004 60.5812C142.08 60.4654 142.074 60.3142 141.989 60.2046L139.573 57.0816C140.225 55.298 140.565 53.4476 140.612 51.603L144.006 49.5814C144.125 49.5106 144.186 49.3719 144.158 49.2364L143.193 44.5964Z" fill="#91B3FA"/>
<path d="M126.526 54.6612C124.592 56.4385 121.573 56.311 119.795 54.3768C118.934 53.44 118.49 52.2238 118.543 50.9525C118.597 49.6814 119.142 48.5069 120.08 47.646C122.014 45.8687 125.033 45.9961 126.811 47.9303C128.428 49.69 128.468 52.3477 127.006 54.1515C126.861 54.3304 126.701 54.5009 126.526 54.6612ZM119.654 50.9995C119.613 51.9743 119.953 52.9066 120.614 53.6252C121.976 55.1079 124.292 55.2058 125.774 53.8431C127.258 52.4804 127.355 50.1652 125.992 48.6822C124.63 47.1995 122.314 47.1015 120.832 48.4643C120.697 48.5879 120.574 48.7197 120.461 48.859C119.97 49.464 119.687 50.2073 119.654 50.9995Z" fill="#BDD0FB"/>
<path d="M132.289 58.5605C132.54 58.2508 132.777 57.9265 132.999 57.5885C133.069 57.4821 133.137 57.3745 133.203 57.266C133.53 56.7304 133.814 56.1696 134.05 55.5924C134.054 55.5845 134.057 55.5767 134.06 55.5688C134.069 55.5465 134.078 55.5241 134.087 55.5016C134.104 55.4579 134.121 55.4142 134.138 55.3704C134.183 55.2552 134.145 55.1286 134.054 55.0547C134.032 55.0367 134.007 55.0219 133.979 55.0112C133.836 54.9559 133.675 55.0276 133.62 55.1705C133.336 55.9072 132.971 56.6181 132.534 57.2837C130.367 60.5906 126.73 62.3669 123.042 62.3196C120.991 62.2935 118.924 61.7028 117.085 60.497C116.763 60.2857 116.453 60.0595 116.158 59.8198C114.169 58.2073 112.807 55.9785 112.279 53.4383C111.672 50.5205 112.238 47.5408 113.872 45.0485C117.247 39.9015 124.176 38.462 129.321 41.8352C129.638 42.0432 129.943 42.2665 130.236 42.504C131.504 43.5326 132.533 44.8275 133.245 46.299C133.264 46.337 133.289 46.3689 133.32 46.3937C133.401 46.4593 133.516 46.4766 133.616 46.4281C133.754 46.3608 133.813 46.1954 133.745 46.0569C132.998 44.512 131.918 43.1524 130.586 42.0725C130.279 41.8233 129.958 41.589 129.625 41.3706C124.224 37.829 116.948 39.344 113.407 44.7437C111.692 47.3603 111.098 50.4882 111.735 53.5514C112.29 56.2182 113.72 58.5579 115.807 60.2509C116.117 60.5024 116.442 60.7398 116.78 60.9617C119.397 62.6773 122.525 63.2712 125.588 62.6341C128.256 62.0792 130.596 60.6486 132.289 58.5605Z" fill="#BDD0FB"/>
<g opacity="0.3">
<path d="M172.322 25.7273C172.439 25.5832 172.452 25.3741 172.341 25.2136C172.135 24.9139 171.916 24.6163 171.691 24.3291C171.545 24.1426 171.276 24.1097 171.089 24.2556C170.902 24.4011 170.87 24.6712 171.016 24.8578C171.23 25.1314 171.438 25.415 171.636 25.701C171.77 25.8959 172.037 25.9448 172.232 25.8105C172.267 25.7866 172.297 25.7584 172.322 25.7273Z" fill="#91B3FA"/>
<path d="M170.177 23.2275C170.01 23.3953 169.738 23.396 169.57 23.2287C169.146 22.8071 168.696 22.4022 168.231 22.0257C168.133 21.9463 168.034 21.8677 167.934 21.7899C167.747 21.6446 167.713 21.3751 167.858 21.1879C168.003 21.0164 168.273 20.9671 168.461 21.1123C168.565 21.1938 168.669 21.2761 168.772 21.3591C169.258 21.7538 169.731 22.1783 170.175 22.6207C170.333 22.7771 170.343 23.0256 170.206 23.1945C170.197 23.2058 170.187 23.2167 170.177 23.2275ZM166.135 20.5609C165.513 20.1891 164.862 19.8526 164.2 19.5609C163.983 19.4651 163.885 19.2123 163.981 18.9953C164.076 18.7798 164.33 18.6802 164.546 18.7759C165.24 19.0816 165.922 19.4344 166.575 19.8243C166.778 19.9458 166.845 20.2093 166.723 20.4128C166.713 20.4306 166.701 20.4475 166.688 20.4633C166.556 20.6263 166.32 20.6716 166.135 20.5609ZM162.156 18.8077C161.462 18.6 160.748 18.4339 160.034 18.3137C159.8 18.2743 159.643 18.053 159.682 17.8195C159.722 17.5851 159.942 17.428 160.176 17.4676C160.926 17.5936 161.674 17.7681 162.402 17.9855C162.629 18.0536 162.758 18.2926 162.69 18.5196C162.673 18.5748 162.646 18.6243 162.612 18.6666C162.506 18.7976 162.327 18.8589 162.156 18.8077ZM157.867 18.0857C157.143 18.0545 156.41 18.0679 155.69 18.1261C155.453 18.145 155.246 17.969 155.227 17.7329C155.209 17.4973 155.384 17.29 155.62 17.2708C156.376 17.21 157.144 17.1958 157.904 17.2286C158.141 17.2387 158.325 17.4392 158.314 17.6759C158.31 17.7712 158.275 17.858 158.219 17.9271C158.136 18.029 158.008 18.0919 157.867 18.0857ZM153.532 18.4328C152.822 18.5786 152.115 18.7697 151.429 19.0006C151.205 19.0763 150.962 18.9556 150.886 18.731C150.81 18.5064 150.931 18.2629 151.156 18.1875C151.874 17.9454 152.616 17.7452 153.359 17.5921C153.592 17.5446 153.818 17.6939 153.866 17.9259C153.893 18.057 153.857 18.1864 153.779 18.2828C153.719 18.357 153.633 18.4119 153.532 18.4328ZM149.413 19.8215C148.761 20.1352 148.122 20.4927 147.514 20.8843C147.315 21.0125 147.05 20.9551 146.921 20.7561C146.793 20.557 146.85 20.2923 147.05 20.1629C147.687 19.7523 148.357 19.3773 149.041 19.0482C149.255 18.9457 149.511 19.0354 149.614 19.2488C149.688 19.4034 149.661 19.5804 149.56 19.7052C149.522 19.7528 149.472 19.7931 149.413 19.8215ZM145.76 22.1745C145.206 22.6373 144.674 23.1411 144.179 23.6723C144.017 23.8452 143.746 23.8547 143.573 23.693C143.399 23.5315 143.392 23.2627 143.551 23.0864C144.071 22.53 144.629 22.0017 145.21 21.5163C145.392 21.3645 145.662 21.3886 145.814 21.5704C145.948 21.7302 145.945 21.9591 145.818 22.1152C145.801 22.1363 145.782 22.1563 145.76 22.1745ZM141.041 27.3592C140.833 27.2444 140.758 26.9836 140.873 26.7762C141.191 26.2023 141.545 25.636 141.926 25.0943C141.983 25.0117 142.041 24.9303 142.1 24.8492C142.233 24.6545 142.508 24.615 142.7 24.7551C142.891 24.8945 142.933 25.1627 142.794 25.3544C142.738 25.4302 142.684 25.507 142.629 25.5858C142.265 26.1041 141.927 26.6443 141.624 27.1915C141.611 27.2141 141.597 27.2352 141.581 27.2544C141.453 27.4131 141.225 27.4614 141.041 27.3592Z" fill="#91B3FA"/>
</g>
<g opacity="0.3">
<path d="M171.318 47.6089C170.839 48.1835 170.322 48.7337 169.779 49.2449C169.607 49.4071 169.335 49.3992 169.173 49.2267C169.01 49.054 169.021 48.7831 169.191 48.6201C169.708 48.133 170.202 47.608 170.658 47.0598C170.81 46.8776 171.08 46.853 171.262 47.0045C171.443 47.1549 171.469 47.4224 171.321 47.6043C171.32 47.6058 171.319 47.6074 171.318 47.6089ZM172.056 45.9257C171.857 45.7971 171.8 45.5314 171.929 45.3327C172.316 44.7343 172.671 44.1064 172.983 43.4663C173.087 43.255 173.344 43.165 173.557 43.2694C173.77 43.3733 173.858 43.6299 173.754 43.8429C173.427 44.5137 173.055 45.1717 172.649 45.7986C172.64 45.8119 172.631 45.8243 172.622 45.8363C172.486 46.0043 172.242 46.046 172.056 45.9257ZM168.052 50.6827C167.449 51.1248 166.813 51.534 166.163 51.8986C165.957 52.0145 165.695 51.9408 165.579 51.7343C165.463 51.5277 165.537 51.2673 165.743 51.1503C166.363 50.8026 166.969 50.4124 167.545 49.9907C167.736 49.8507 168.005 49.8922 168.145 50.083C168.262 50.2437 168.252 50.459 168.132 50.6067C168.109 50.6347 168.083 50.6603 168.052 50.6827ZM174.069 42.0322C173.845 41.9551 173.726 41.7109 173.803 41.4869C174.035 40.8131 174.228 40.1185 174.376 39.4219C174.425 39.1905 174.653 39.0425 174.884 39.0913C175.116 39.1407 175.264 39.3684 175.215 39.6002C175.06 40.3307 174.858 41.0596 174.614 41.7662C174.597 41.815 174.573 41.8589 174.542 41.8967C174.432 42.0327 174.244 42.0923 174.069 42.0322ZM164.142 52.8754C163.451 53.1589 162.736 53.4029 162.016 53.6012C161.788 53.6641 161.552 53.5296 161.489 53.3013C161.426 53.0728 161.56 52.8365 161.789 52.7737C162.476 52.585 163.157 52.3521 163.816 52.0814C164.035 51.9915 164.286 52.096 164.376 52.3155C164.437 52.4656 164.407 52.6309 164.312 52.7489C164.268 52.8027 164.211 52.8471 164.142 52.8754ZM159.819 54.0662C159.079 54.1762 158.326 54.2422 157.581 54.2627C157.345 54.2692 157.147 54.0827 157.141 53.8458C157.134 53.6093 157.321 53.4117 157.558 53.4052C158.269 53.3857 158.987 53.3225 159.693 53.2175C159.927 53.1825 160.145 53.3444 160.18 53.5787C160.199 53.7024 160.162 53.8219 160.089 53.9122C160.024 53.9925 159.929 54.0497 159.819 54.0662ZM155.335 54.1877C154.59 54.1176 153.843 54.0009 153.115 53.8414C152.883 53.7905 152.737 53.5619 152.787 53.3304C152.838 53.0991 153.067 52.9528 153.298 53.0032C153.993 53.1556 154.705 53.2668 155.415 53.3333C155.651 53.3555 155.825 53.5648 155.802 53.8007C155.794 53.8884 155.76 53.967 155.709 54.0304C155.621 54.1379 155.484 54.2015 155.335 54.1877Z" fill="#91B3FA"/>
<path d="M175.455 37.5901C175.507 37.5258 175.541 37.4459 175.549 37.3572C175.581 36.9914 175.602 36.6231 175.611 36.2622C175.618 36.0255 175.431 35.828 175.194 35.8214C174.958 35.8157 174.761 36.0018 174.754 36.2386C174.744 36.5827 174.724 36.9342 174.694 37.2833C174.674 37.5193 174.849 37.7273 175.084 37.7476C175.232 37.7602 175.368 37.697 175.455 37.5901Z" fill="#91B3FA"/>
</g>
<path d="M170.28 31.2721C170.261 31.1813 170.187 31.1126 170.095 31.1009L167.472 30.766C166.952 29.6464 166.249 28.6017 165.373 27.6811L166.023 25.1199C166.045 25.0301 166.009 24.9358 165.931 24.8849L163.279 23.1461C163.202 23.0953 163.1 23.0993 163.027 23.1559L160.937 24.7726C159.744 24.3366 158.505 24.1086 157.271 24.0778L155.918 21.8063C155.871 21.7267 155.778 21.6859 155.687 21.7048L152.583 22.3505C152.492 22.3694 152.423 22.4438 152.411 22.5357L152.077 25.1581C150.957 25.6786 149.912 26.3813 148.992 27.2571L146.431 26.6079C146.341 26.5851 146.246 26.6218 146.196 26.6993L144.457 29.3514C144.406 29.4289 144.41 29.5301 144.467 29.6034L146.083 31.6933C145.647 32.8867 145.419 34.125 145.388 35.3593L143.117 36.712C143.037 36.7594 142.996 36.8521 143.015 36.9429L143.661 40.0477C143.68 40.1384 143.754 40.2072 143.846 40.219L146.469 40.5539C146.989 41.6734 147.692 42.7182 148.568 43.6388L147.918 46.1999C147.896 46.2898 147.932 46.3841 148.01 46.435L150.662 48.1738C150.739 48.2246 150.841 48.2207 150.914 48.164L153.004 46.5474C154.197 46.9834 155.436 47.2113 156.67 47.2422L158.023 49.5137C158.07 49.5933 158.163 49.6341 158.253 49.6152L161.358 48.9695C161.449 48.9506 161.518 48.8762 161.529 48.7843L161.864 46.1618C162.984 45.6414 164.029 44.9386 164.949 44.0629L167.51 44.7121C167.6 44.7348 167.695 44.6982 167.745 44.6206L169.484 41.9686C169.535 41.8911 169.531 41.7898 169.474 41.7166L167.858 39.6267C168.294 38.4332 168.522 37.1949 168.552 35.9607L170.824 34.6079C170.904 34.5605 170.944 34.4677 170.926 34.377L170.28 31.2721Z" fill="#91B3FA"/>
<path d="M159.167 38.0489C158.528 38.6357 157.7 38.9386 156.834 38.9019C155.968 38.8654 155.168 38.4939 154.582 37.8555C153.371 36.5382 153.458 34.485 154.775 33.2704C156.093 32.06 158.15 32.147 159.36 33.4642C159.946 34.1023 160.249 34.9307 160.213 35.7967C160.183 36.5006 159.932 37.1609 159.496 37.6985C159.396 37.822 159.286 37.9392 159.167 38.0489ZM155.213 37.2748C155.645 37.7444 156.233 38.0178 156.87 38.0448C157.507 38.0716 158.116 37.8488 158.586 37.4175C159.055 36.9855 159.329 36.3976 159.356 35.7604C159.383 35.1236 159.159 34.5142 158.728 34.0449C157.838 33.0759 156.325 33.0119 155.356 33.9022C155.268 33.9827 155.188 34.068 155.116 34.1576C154.383 35.0614 154.403 36.3934 155.213 37.2748Z" fill="#BDD0FB"/>
<path d="M163.177 40.7627C163.348 40.5518 163.509 40.3306 163.662 40.0991C163.963 39.6391 164.219 39.1479 164.421 38.6379C164.43 38.6149 164.439 38.5919 164.447 38.5689C164.516 38.3911 164.458 38.1957 164.318 38.0815C164.284 38.0539 164.245 38.031 164.201 38.0144C163.98 37.9291 163.733 38.0401 163.647 38.2604C163.463 38.7383 163.226 39.1985 162.944 39.6283L162.944 39.6285C162.929 39.6521 162.913 39.6756 162.897 39.6989C162.22 40.71 161.317 41.5142 160.267 42.0643C159.697 42.3629 159.083 42.5864 158.438 42.7266C158.433 42.7278 158.428 42.7289 158.423 42.73C158.406 42.7334 158.39 42.737 158.374 42.7402C156.485 43.1329 154.556 42.7668 152.943 41.7089C152.734 41.5721 152.534 41.4258 152.343 41.2706C151.055 40.2267 150.174 38.7838 149.832 37.1391C149.439 35.2501 149.805 33.3214 150.863 31.7081C151.921 30.0961 153.544 28.9897 155.433 28.5965C157.322 28.2037 159.251 28.5698 160.864 29.6277C161.069 29.7622 161.267 29.9069 161.457 30.0604C162.278 30.7265 162.944 31.5645 163.404 32.5172C163.433 32.5758 163.473 32.6251 163.52 32.6635C163.645 32.7648 163.823 32.7914 163.977 32.7165C164.19 32.6128 164.28 32.3571 164.177 32.1433C163.661 31.0775 162.916 30.1395 161.998 29.3944C161.785 29.2224 161.564 29.0607 161.335 28.9101C159.529 27.7265 157.371 27.3169 155.258 27.7565C153.145 28.1961 151.328 29.4305 150.146 31.2373C148.962 33.0424 148.552 35.2002 148.992 37.3138C149.374 39.1537 150.361 40.7679 151.801 41.9358C152.015 42.1091 152.239 42.2731 152.472 42.4261C155.968 44.7175 160.6 43.9415 163.177 40.7627Z" fill="#BDD0FB"/>
<path d="M119.981 243.397C119.981 243.397 119.498 245.987 119.249 248.553C119.151 249.556 119.917 250.435 120.923 250.486C124.342 250.661 131.655 251.008 134.282 250.916C134.676 250.902 134.938 250.501 134.796 250.132C134.676 249.824 134.443 249.573 134.143 249.432L122.111 243.762L119.981 243.397Z" fill="url(#paint6_linear_217_640)"/>
<path d="M119.62 241.869L119.959 244.975C119.959 244.975 122.066 245.981 123.523 244.885L122.679 241.418L119.62 241.869Z" fill="url(#paint7_linear_217_640)"/>
<path d="M120.453 183.526C120.287 184.335 119.214 223.961 123.281 241.762C123.347 242.052 123.197 242.349 122.921 242.46C122.268 242.719 120.991 243.091 119.464 243.128C118.991 243.139 118.57 242.828 118.441 242.373C117.269 238.241 111.663 217.539 111.095 197.81C110.459 175.763 111.102 197.059 111.102 197.059L111.728 183.441L120.453 183.526Z" fill="url(#paint8_linear_217_640)"/>
<path d="M106.067 244.618C106.067 244.618 105.325 245.921 104.585 249.394C104.452 250.022 104.885 250.627 105.523 250.696C106.651 250.818 108.388 250.977 109.781 250.981C110.423 250.983 110.93 250.429 110.858 249.791C110.716 248.519 110.255 246.43 108.786 244.791L106.067 244.618Z" fill="url(#paint9_linear_217_640)"/>
<path d="M105.464 240.62L106.279 245.321C106.279 245.321 107.124 245.962 108.811 245.519L108.449 240.466L105.464 240.62Z" fill="url(#paint10_linear_217_640)"/>
<path d="M103.674 184.583C100.009 205.46 103.932 236.271 105.297 242.308C105.38 242.677 105.675 242.962 106.048 243.028C106.682 243.139 107.726 243.235 108.76 242.946C109.115 242.846 109.368 242.528 109.386 242.159C109.623 237.292 109.565 207.397 112.906 195.614C113.075 195.017 113.446 194.498 113.955 194.143L120.264 189.749L120.813 182.552L103.674 184.583Z" fill="url(#paint11_linear_217_640)"/>
<path d="M126.13 145.172C115.748 144.902 104.264 147.69 104.264 147.69C100.996 165.72 103.351 186.575 103.351 186.575C111.37 188.76 120.47 185.449 120.47 185.449C121.878 177.914 128.315 156.729 128.315 156.729C133.394 156.148 137.587 154.724 141.047 152.822C138.451 149.754 137.25 145.87 136.735 143.576C133.052 144.682 129.332 145.256 126.13 145.172Z" fill="url(#paint12_linear_217_640)"/>
<path d="M156.946 130.171C155.938 128.929 154.641 129.499 154.641 129.499C153.052 135.939 144.99 141.096 136.734 143.576C137.25 145.87 138.451 149.754 141.047 152.822C154.78 145.272 156.946 130.171 156.946 130.171Z" fill="url(#paint13_linear_217_640)"/>
<path d="M156.696 130.482C156.799 130.822 155.558 131.327 154.844 129.932C154.825 129.267 154.447 126.414 154.85 125.876C156.994 123.01 161.132 119.432 161.132 119.432C161.819 120.123 161.242 120.79 161.242 120.79L159.231 122.845C159.64 123.601 160.142 124.241 160.371 125.154C160.545 125.845 160.428 126.58 160.074 127.204C159.718 127.83 159.234 128.644 158.777 129.28C157.912 130.484 156.696 130.482 156.696 130.482Z" fill="url(#paint14_linear_217_640)"/>
<path d="M158.347 124.182L156.519 125.702L155.935 127.228L157.535 129.038C157.535 129.038 158.108 126.005 158.518 125.351C158.929 124.698 158.722 124.378 158.347 124.182Z" fill="url(#paint15_linear_217_640)"/>
<path d="M108.15 157.782L104.263 147.69C104.263 147.69 94.5018 154.187 92.8271 162.527C94.6584 162.68 97.9885 163.188 101.237 164.868C101.992 160.929 108.15 157.782 108.15 157.782Z" fill="url(#paint16_linear_217_640)"/>
<path d="M116.536 167.324C116.536 167.324 105.588 173.374 101.964 168.084C101.211 166.986 101.039 165.9 101.237 164.868C97.9888 163.188 94.6587 162.68 92.8274 162.527C92.3225 165.042 92.5511 167.723 94.0054 170.445C100.329 182.279 117.951 170.022 117.951 170.022L116.536 167.324Z" fill="url(#paint17_linear_217_640)"/>
<path d="M115.693 136.642L112.298 146.165C112.241 146.323 112.305 146.499 112.451 146.581C113.347 147.088 116.577 148.558 120.511 146.116C120.921 145.862 121.202 145.443 121.269 144.965L122.417 136.706L115.693 136.642Z" fill="url(#paint18_linear_217_640)"/>
<path d="M122.966 127.863C122.966 127.863 126.529 134.727 126.038 137.481C125.546 140.235 121.052 139.994 117.147 137.717L114.474 130.316L122.966 127.863Z" fill="url(#paint19_linear_217_640)"/>
<path d="M117.355 134.097C117.515 134.028 117.576 133.833 117.482 133.686C117.195 133.239 116.659 132.328 116.493 131.533C116.493 131.533 115.845 131.109 118.162 130.578C120.479 130.047 123.936 129.221 124.679 127.259C125.404 125.347 123.594 120.504 120.595 124.321C120.481 124.466 120.26 124.467 120.149 124.32C119.669 123.683 118.405 122.359 116.625 123.137C114.96 123.866 114.761 125.079 114.778 125.692C114.783 125.872 114.621 126.011 114.444 125.975C113.607 125.807 111.596 125.651 110.637 127.706C109.847 129.399 110.341 130.367 110.794 130.842C110.941 130.996 110.873 131.246 110.669 131.306C110.117 131.47 109.401 131.93 109.459 133.222C109.541 135.008 111.538 134.87 112.107 134.794C112.2 134.782 112.294 134.815 112.356 134.885C112.838 135.429 115.012 137.739 117.385 138.038C117.59 138.063 117.752 137.862 117.686 137.665L116.686 134.667C116.64 134.527 116.708 134.376 116.843 134.318L117.355 134.097Z" fill="url(#paint20_linear_217_640)"/>
<path d="M117.764 134.525C117.764 134.525 115.198 132.728 114.995 134.219C114.792 135.709 117.3 136.403 118.551 135.858L117.764 134.525Z" fill="url(#paint21_linear_217_640)"/>
<path d="M114.298 176.885L120.262 156.059C120.33 155.822 120.531 155.65 120.776 155.621C121.856 155.495 124.987 155.141 128.602 154.835C132.956 154.467 138.013 154.169 141.035 154.423C141.465 154.459 141.724 154.913 141.533 155.3C139.815 158.776 132.747 172.917 129.207 177.55C129.09 177.703 128.908 177.793 128.715 177.791L114.878 177.662C114.476 177.659 114.187 177.272 114.298 176.885Z" fill="url(#paint22_linear_217_640)"/>
<path d="M115.739 171.854C115.739 171.854 114.909 168.438 115.244 167.226C115.579 166.014 116.228 164.455 118.392 164.802C120.557 165.148 123.109 166.06 123.109 166.06C123.109 166.06 122.98 167.638 121.336 167.129L122.356 167.918C122.356 167.918 122.21 169.182 120.82 168.507L121.769 169.554C121.769 169.554 121.172 170.592 120.15 169.926C119.128 169.26 118.638 172.265 115.739 171.854Z" fill="url(#paint23_linear_217_640)"/>
<path d="M128.205 161.053C128.205 162.019 128.988 162.803 129.955 162.803C130.922 162.803 131.706 162.019 131.706 161.053C131.706 160.086 130.922 159.302 129.955 159.302C128.988 159.302 128.205 160.086 128.205 161.053Z" fill="#91B3FA"/>
<path d="M120.937 162.207L122.151 158.088C122.3 157.582 122.707 157.202 123.212 157.096C127.018 156.303 137.434 156.134 137.539 156.133L137.532 155.667C137.102 155.674 126.966 155.838 123.117 156.641C122.444 156.782 121.902 157.286 121.704 157.956L120.49 162.075L120.937 162.207Z" fill="#BDD0FB"/>
<path d="M275.933 131.234C276.098 130.918 276.567 130.967 276.662 131.311C277.016 132.584 277.872 134.806 279.668 135.594C279.758 135.634 279.844 135.674 279.927 135.715C280.008 135.471 280.009 135.187 279.814 134.889C279.256 134.035 280.264 132.87 280.264 132.87C280.264 132.87 280.331 133.896 281.111 134.543C281.783 135.099 282.106 136.338 281.647 137.355C280.674 141.131 279.219 146.125 284.889 149.773C290.559 153.422 298.545 142.888 298.545 142.888L294.581 155.452C294.581 155.452 288.464 159.966 281.348 153.619C274.233 147.271 278.949 138.034 278.949 138.034C278.949 138.034 273.522 135.844 275.933 131.234Z" fill="url(#paint24_linear_217_640)"/>
<path d="M299.538 124.427C299.538 124.427 297.895 117.058 306.336 119.008C306.336 119.008 310.433 118.339 310.641 122.206C310.641 122.206 313.283 123.946 311.349 127.293C311.349 127.293 319.198 124.261 322.618 131.141C326.038 138.021 322.894 141.807 319.599 142.793C319.599 142.793 322.269 144.134 321.005 147.161C319.741 150.187 313.341 152.321 309.56 148.64C309.56 148.64 298.802 150.062 299.018 142.463C299.018 142.463 294.014 139.232 299.27 132.952C304.525 126.672 299.538 124.427 299.538 124.427Z" fill="url(#paint25_linear_217_640)"/>
<path d="M299.074 141.507C300.77 140.999 305.709 140.06 310.407 144.395C311.203 145.13 311.529 146.247 311.245 147.293C309.983 151.939 306.654 165.662 309.573 171.6C309.573 171.6 304.429 177.271 298.817 172.701C298.817 172.701 296.3 161.727 293.002 156.909C290.725 153.584 296.632 144.42 298.127 142.206C298.353 141.871 298.687 141.623 299.074 141.507Z" fill="url(#paint26_linear_217_640)"/>
<path d="M303.758 132.279C303.758 132.279 306.266 139.374 306.455 142.504C306.455 142.504 303.683 143.765 301.07 141.637C301.07 141.637 300.796 134.55 300.4 133.281L303.758 132.279Z" fill="url(#paint27_linear_217_640)"/>
<path d="M300.273 122.604C300.273 122.604 293.712 131.786 297.634 134.453C301.556 137.12 306.227 130.595 306.227 130.595C306.227 130.595 307.749 125.569 306.157 123.864C304.566 122.159 300.273 122.604 300.273 122.604Z" fill="url(#paint28_linear_217_640)"/>
<path d="M303.31 120.41C303.31 120.41 300.296 121.124 299.873 122.488C299.451 123.851 304.148 125.116 305.464 125.178L306.524 130.681C306.524 130.681 309.659 125.504 308.417 122.514C307.176 119.524 303.31 120.41 303.31 120.41Z" fill="url(#paint29_linear_217_640)"/>
<path d="M304.955 129.919C304.955 129.919 307.509 126.962 308.525 128.89C309.541 130.818 306.226 132.266 305.079 131.319L304.955 129.919Z" fill="url(#paint30_linear_217_640)"/>
<path d="M292.266 195.741C292.286 196.239 291.411 200.191 290.935 202.299C290.743 203.147 290.877 204.034 291.309 204.789L307.794 232.535C307.994 232.871 308.139 233.234 308.227 233.614C308.529 234.916 309.156 238.107 308.829 241.01L307.976 242.782L311.664 241.944L312.467 232.039L311.422 231.402C310.52 230.853 309.818 230.03 309.416 229.053C307.925 225.432 304.223 216.215 303.269 211.723C302.185 206.618 296.516 202.471 296.516 202.471L297.512 200.117L292.266 195.741Z" fill="url(#paint31_linear_217_640)"/>
<path d="M315.763 238.536C315.763 238.536 313.771 235.378 313.537 234.149C313.303 232.92 312.65 230.749 311.422 231.403C311.422 231.403 310.844 237.374 311.043 239.707C311.243 242.04 308.406 241.965 308.406 241.965C308.406 241.965 307.624 242.075 307.051 242.647C306.656 243.042 306.939 243.728 307.496 243.764C308.425 243.824 309.899 243.84 311.448 243.541C311.989 243.436 312.39 242.976 312.423 242.425L312.832 235.553L315.344 238.726L315.763 238.536Z" fill="url(#paint32_linear_217_640)"/>
<path d="M302.115 200.161C302.115 200.161 302.696 224.979 302.775 228.504C302.854 232.029 302.218 239.841 298.685 242.175L300.222 243.314C300.222 243.314 302.144 241.681 304.021 238.537C306.13 235.006 306.768 234.361 306.768 234.361L306.068 232.928C305.761 232.301 305.671 231.591 305.812 230.907C306.575 227.211 309.122 214.919 309.817 212.271C310.638 209.146 310.696 204.973 307.842 201.48C304.989 197.987 302.115 200.161 302.115 200.161Z" fill="url(#paint33_linear_217_640)"/>
<path d="M305.378 244.432C305.487 244.433 305.58 244.355 305.596 244.246C305.714 243.419 306.203 240.102 306.604 239.243C307.063 238.259 308.561 234.119 306.603 233.767C306.603 233.767 301.734 240.881 300.799 241.84C299.864 242.8 298.685 242.176 298.685 242.176C298.685 242.176 297.774 242.445 297.087 243.322C296.76 243.74 297.065 244.353 297.595 244.358L300.875 244.389C301.827 244.399 302.684 243.82 303.038 242.936C303.615 241.494 304.607 239.379 305.763 238.44L305.162 244.191C305.149 244.319 305.249 244.431 305.378 244.432Z" fill="url(#paint34_linear_217_640)"/>
<path d="M298.041 170.025C298.041 170.025 298.78 172.381 297.645 176.261L290.601 200.857C290.491 201.243 290.699 201.648 291.078 201.783C293.185 202.539 300.11 204.677 309.565 204.025C310.041 203.992 310.44 203.655 310.543 203.189C311.166 200.385 313.292 190.818 313.729 188.853C315.397 181.362 317.259 173.285 309.068 168.4C305.293 170.017 301.772 170.97 298.041 170.025Z" fill="url(#paint35_linear_217_640)"/>
<path d="M311.079 145.322C311.079 145.322 319.093 151.982 321.081 161.082C323.07 170.183 309.371 171.15 309.371 171.15C309.371 171.15 307.512 169.073 305.304 169.814C303.096 170.555 305.133 166.19 307.716 166.201C310.299 166.213 309.102 168.255 312.757 166.6C316.317 164.987 318.517 160.001 309.434 152.441C308.908 152.003 308.488 151.444 308.235 150.808C306.47 146.366 307.87 143.454 311.079 145.322Z" fill="url(#paint36_linear_217_640)"/>
<path d="M260.932 213.317H258.074V244.23H260.932V213.317Z" fill="#7D97F4"/>
<path d="M272.021 244.826H246.985V243.171C246.985 243.057 247.077 242.965 247.192 242.965H271.814C271.929 242.965 272.021 243.057 272.021 243.171V244.826Z" fill="#7D97F4"/>
<path d="M276.755 212.176C276.755 213.973 275.285 215.443 273.488 215.443H246.569C244.772 215.443 243.302 213.973 243.302 212.176V209.223C243.302 207.426 244.772 205.956 246.569 205.956H273.488C275.285 205.956 276.755 207.426 276.755 209.223V212.176Z" fill="#7D97F4"/>
<path d="M234.163 234.842C234.163 234.842 224.922 238.822 225.452 242.988C225.452 242.988 235.004 241.156 236.714 238.425C238.423 235.695 237.481 234.113 237.481 234.113L234.163 234.842Z" fill="url(#paint37_linear_217_640)"/>
<path d="M236.427 230.292L236.896 234.348C236.967 234.96 236.627 235.564 236.047 235.773C235.757 235.877 235.376 235.949 234.876 235.952C234.171 235.955 233.547 235.492 233.359 234.812L232.45 231.532L236.427 230.292Z" fill="url(#paint38_linear_217_640)"/>
<path d="M256.615 199.191C256.615 199.191 239.617 198.404 231.16 203.336C222.702 208.269 231.589 231.941 231.589 231.941C231.589 231.941 233.798 232.416 236.979 230.716C236.979 230.716 232.439 213.387 240.325 210.372C249.191 206.982 258.361 207.807 258.361 207.807L256.662 199.726L256.615 199.191Z" fill="url(#paint39_linear_217_640)"/>
<path d="M227.309 241.159C229.242 240.736 234.973 238.361 235.844 238.393C236.714 238.425 237.947 239.729 237.947 239.729C237.947 239.729 238.16 240.442 237.537 241.466C236.06 242.617 232.879 244.731 229.181 244.963C226.46 245.133 224.824 244.051 223.887 243.001C224.707 242.203 226.022 241.442 227.309 241.159Z" fill="url(#paint40_linear_217_640)"/>
<path d="M229.181 244.963C232.879 244.732 236.06 242.617 237.537 241.466C237.116 242.157 236.315 242.991 234.808 243.842C231.07 245.954 224.893 245.646 223.668 245.171C222.687 244.79 222.99 243.874 223.887 243.001C224.823 244.051 226.46 245.133 229.181 244.963Z" fill="url(#paint41_linear_217_640)"/>
<path d="M239.976 237.607C239.85 238.085 238.496 239.523 237.714 240.325C237.342 240.705 236.802 240.869 236.282 240.755C235.952 240.683 235.579 240.571 235.257 240.396C234.773 240.133 234.605 239.518 234.87 239.036L236.849 235.436L239.976 237.607Z" fill="url(#paint42_linear_217_640)"/>
<path d="M273.46 197.765C273.46 197.765 274.943 208.291 270.653 210.442C266.364 212.593 256.955 214.002 253.714 219.461C250.473 224.92 244.653 235.635 239.356 238.713C239.356 238.713 236.331 237.73 235.447 236.242C235.447 236.242 241.734 219.714 244.357 215.697C246.628 212.218 249.95 207.206 254.668 205.038C256.019 204.417 256.125 202.984 255.887 201.517L255.454 198.845L273.46 197.765Z" fill="url(#paint43_linear_217_640)"/>
<path d="M233.701 185.834C239.715 187.551 242.407 170.625 242.383 170.213L251.604 180.994C251.604 180.994 246.11 190.662 237.813 191.691C235.714 191.951 233.929 191.588 232.431 190.902C233.535 189.095 233.787 187.31 233.701 185.834Z" fill="url(#paint44_linear_217_640)"/>
<path d="M222.563 180.294C225.185 179.217 227.408 181.366 227.408 181.366C230.005 184.025 232.065 185.367 233.701 185.834C233.786 187.31 233.534 189.095 232.431 190.902C229.19 189.418 227.301 186.417 226.523 184.919C226.243 184.38 225.586 184.151 225.04 184.416C224.484 184.685 223.911 185.094 223.875 185.651C223.805 186.749 222.498 186.814 222.491 186.408C222.483 186.003 223.502 183.834 223.502 183.834C223.502 183.834 220.491 185.766 219.318 186.505C218.146 187.244 217.147 186.025 217.147 186.025C217.147 186.025 219.942 181.371 222.563 180.294Z" fill="url(#paint45_linear_217_640)"/>
<path d="M271.142 163.248C271.142 163.248 263.061 157.735 243.541 167.706C243.541 167.706 241.531 170.255 242.473 173.127C243.414 176 255.004 191.546 255.454 198.845C255.454 198.845 263.376 203.508 273.661 198.885C273.661 198.885 277.109 179.613 271.142 163.248Z" fill="url(#paint46_linear_217_640)"/>
<path d="M254.313 156.199L257.507 162.458C257.824 163.079 257.758 163.831 257.323 164.376C256.443 165.478 254.607 166.959 251.474 166.005C250.542 165.721 249.829 164.963 249.604 164.014L247.948 157.029L254.313 156.199Z" fill="url(#paint47_linear_217_640)"/>
<path d="M277.127 185.102C277.674 181.298 267.622 173.924 267.622 173.924L271.143 163.248C271.143 163.248 290.326 176.938 286.292 188.118C285.713 189.72 284.851 190.888 283.799 191.716C281.767 187.549 279.012 185.818 277.127 185.102Z" fill="url(#paint48_linear_217_640)"/>
<path d="M263.103 186.158C263.103 186.158 274.474 189.334 276.834 185.873C276.994 185.638 277.088 185.379 277.128 185.102C279.013 185.818 281.767 187.549 283.799 191.716C278.4 195.963 267.989 191.202 265.16 189.775C264.695 189.54 264.16 189.494 263.663 189.649C262.656 189.963 260.913 190.45 259.942 190.397C258.521 190.319 256.996 195.454 254.577 194.154C254.577 194.154 255.676 185.381 263.103 186.158Z" fill="url(#paint49_linear_217_640)"/>
<path d="M250.219 145.971C250.118 146.059 245.905 153.417 243.761 157.168C243.106 158.313 243.596 159.771 244.809 160.291L245.738 160.689C247.007 161.233 249.737 161.688 250.811 160.821L257.584 153.672C257.584 153.672 252.498 143.999 250.219 145.971Z" fill="url(#paint50_linear_217_640)"/>
<path d="M259.492 151.721C260.323 151.255 261.321 150.31 260.544 148.638C259.754 146.94 258.192 146.792 257.186 146.901C256.779 146.944 256.411 146.686 256.293 146.294C256.225 146.071 256.06 145.874 255.704 145.818C255.223 145.742 254.925 145.251 255.05 144.781C255.291 143.878 255.25 142.651 253.797 141.771C251.22 140.211 248.81 142.478 248.139 144.448C247.468 146.419 250.359 147.952 252.205 148.265C253.608 148.503 254.293 150.121 254.541 150.884C254.619 151.125 254.581 151.388 254.442 151.6L252.383 154.729C252.949 155.442 253.451 156.195 253.946 156.956C254.131 156.757 254.293 156.591 254.419 156.475C255.314 155.655 256.904 156.078 257.559 156.303C257.774 156.377 258.007 156.36 258.209 156.256C258.922 155.887 260.362 154.851 259.182 152.893C258.935 152.484 259.075 151.956 259.492 151.721Z" fill="url(#paint51_linear_217_640)"/>
<path d="M253.196 158.294C253.196 158.294 254.513 154.91 256.009 155.099C257.506 155.287 258.625 156.833 256.694 158.437C254.291 160.432 253.196 158.294 253.196 158.294Z" fill="url(#paint52_linear_217_640)"/>
<path d="M248.581 193.399C248.561 193.4 248.541 193.4 248.52 193.4L221.953 193.371C221.296 193.37 220.764 192.837 220.765 192.181C220.766 191.524 221.301 190.981 221.956 190.993L248.523 191.022C249.18 191.022 249.711 191.555 249.711 192.212C249.71 192.848 249.21 193.368 248.581 193.399Z" fill="url(#paint53_linear_217_640)"/>
<path d="M198.07 169.277H220.196C221.828 169.277 223.314 170.219 224.01 171.695L234.238 193.384H206.742C205.691 193.384 204.746 192.742 204.359 191.763L196.427 171.693C195.969 170.534 196.824 169.277 198.07 169.277Z" fill="url(#paint54_linear_217_640)"/>
<path d="M213.658 180.398C214.137 181.887 213.783 183.334 212.867 183.629C211.95 183.924 210.819 182.955 210.339 181.466C209.86 179.976 210.214 178.529 211.13 178.235C212.047 177.94 213.178 178.908 213.658 180.398Z" fill="#91B3FA"/>
<path d="M201.658 250.38C201.511 250.38 201.361 250.352 201.217 250.292C200.651 250.056 200.389 249.42 200.633 248.872L224.047 196.177C224.29 195.628 224.947 195.375 225.513 195.611C226.08 195.847 226.342 196.482 226.098 197.031L202.684 249.726C202.502 250.135 202.09 250.38 201.658 250.38Z" fill="#91B3FA"/>
<path d="M228.035 250.38C227.602 250.38 227.191 250.135 227.009 249.726L203.595 197.03C203.351 196.482 203.613 195.846 204.179 195.61C204.745 195.375 205.402 195.628 205.646 196.176L229.06 248.872C229.303 249.42 229.042 250.056 228.475 250.292C228.332 250.352 228.182 250.38 228.035 250.38Z" fill="#91B3FA"/>
<path d="M274.134 250.38C273.987 250.38 273.838 250.351 273.694 250.292C273.127 250.056 272.866 249.42 273.109 248.872L296.523 196.176C296.767 195.628 297.423 195.375 297.99 195.61C298.556 195.846 298.818 196.482 298.574 197.03L275.16 249.726C274.979 250.135 274.567 250.38 274.134 250.38Z" fill="#91B3FA"/>
<path d="M300.511 250.38C300.079 250.38 299.667 250.135 299.485 249.726L276.071 197.03C275.827 196.482 276.089 195.846 276.655 195.61C277.221 195.375 277.878 195.628 278.122 196.176L301.536 248.872C301.78 249.42 301.518 250.056 300.952 250.292C300.808 250.352 300.658 250.38 300.511 250.38Z" fill="#91B3FA"/>
<path d="M303.257 194.549C303.317 194.204 303.236 193.846 303.036 193.575C302.836 193.303 302.538 193.146 302.223 193.146H195.706C195.292 193.146 194.907 193.382 194.685 193.772C194.462 194.162 194.432 194.652 194.605 195.073L195.76 197.869C196.024 198.51 196.597 198.92 197.227 198.92H301.492C302.078 198.92 302.582 198.455 302.694 197.81L303.257 194.549Z" fill="#91B3FA"/>
</g>
<defs>
<linearGradient id="paint0_linear_217_640" x1="351.889" y1="318.692" x2="144.629" y2="61.2877" gradientUnits="userSpaceOnUse">
<stop stop-color="#DAE3FE"/>
<stop offset="1" stop-color="#E9EFFD"/>
</linearGradient>
<linearGradient id="paint1_linear_217_640" x1="257.506" y1="42.873" x2="85.0061" y2="271.894" gradientUnits="userSpaceOnUse">
<stop stop-color="#4F52FF"/>
<stop offset="1" stop-color="#4042E2"/>
</linearGradient>
<linearGradient id="paint2_linear_217_640" x1="257.506" y1="42.8732" x2="85.0068" y2="271.894" gradientUnits="userSpaceOnUse">
<stop stop-color="#4F52FF"/>
<stop offset="1" stop-color="#4042E2"/>
</linearGradient>
<linearGradient id="paint3_linear_217_640" x1="206.406" y1="8.18189" x2="196.804" y2="83.8705" gradientUnits="userSpaceOnUse">
<stop stop-color="#FF928E"/>
<stop offset="1" stop-color="#FE7062"/>
</linearGradient>
<linearGradient id="paint4_linear_217_640" x1="170.38" y1="125.994" x2="247.571" y2="79.2991" gradientUnits="userSpaceOnUse">
<stop stop-color="#09005D"/>
<stop offset="1" stop-color="#1A0F91"/>
</linearGradient>
<linearGradient id="paint5_linear_217_640" x1="196.402" y1="125.975" x2="251.041" y2="80.6541" gradientUnits="userSpaceOnUse">
<stop stop-color="#09005D"/>
<stop offset="1" stop-color="#1A0F91"/>
</linearGradient>
<linearGradient id="paint6_linear_217_640" x1="134.003" y1="239.944" x2="89.2938" y2="287.658" gradientUnits="userSpaceOnUse">
<stop stop-color="#09005D"/>
<stop offset="1" stop-color="#1A0F91"/>
</linearGradient>
<linearGradient id="paint7_linear_217_640" x1="119.606" y1="243.382" x2="123.536" y2="243.42" gradientUnits="userSpaceOnUse">
<stop stop-color="#FEBBBA"/>
<stop offset="1" stop-color="#FF928E"/>
</linearGradient>
<linearGradient id="paint8_linear_217_640" x1="138.007" y1="185.54" x2="99.8655" y2="236.221" gradientUnits="userSpaceOnUse">
<stop stop-color="#09005D"/>
<stop offset="1" stop-color="#1A0F91"/>
</linearGradient>
<linearGradient id="paint9_linear_217_640" x1="124.163" y1="230.722" x2="79.4517" y2="278.437" gradientUnits="userSpaceOnUse">
<stop stop-color="#09005D"/>
<stop offset="1" stop-color="#1A0F91"/>
</linearGradient>
<linearGradient id="paint10_linear_217_640" x1="105.441" y1="243.046" x2="108.835" y2="243.078" gradientUnits="userSpaceOnUse">
<stop stop-color="#FEBBBA"/>
<stop offset="1" stop-color="#FF928E"/>
</linearGradient>
<linearGradient id="paint11_linear_217_640" x1="131.342" y1="180.524" x2="93.2012" y2="231.205" gradientUnits="userSpaceOnUse">
<stop stop-color="#09005D"/>
<stop offset="1" stop-color="#1A0F91"/>
</linearGradient>
<linearGradient id="paint12_linear_217_640" x1="-1066.5" y1="-712.297" x2="-1026.39" y2="-682.643" gradientUnits="userSpaceOnUse">
<stop stop-color="#FF928E"/>
<stop offset="1" stop-color="#FE7062"/>
</linearGradient>
<linearGradient id="paint13_linear_217_640" x1="136.759" y1="140.987" x2="156.841" y2="141.177" gradientUnits="userSpaceOnUse">
<stop stop-color="#FEBBBA"/>
<stop offset="1" stop-color="#FF928E"/>
</linearGradient>
<linearGradient id="paint14_linear_217_640" x1="152.4" y1="137.769" x2="138.633" y2="168.301" gradientUnits="userSpaceOnUse">
<stop stop-color="#FEBBBA"/>
<stop offset="1" stop-color="#FF928E"/>
</linearGradient>
<linearGradient id="paint15_linear_217_640" x1="156.874" y1="127.6" x2="162.579" y2="119.008" gradientUnits="userSpaceOnUse">
<stop stop-color="#FEBBBA"/>
<stop offset="1" stop-color="#FF928E"/>
</linearGradient>
<linearGradient id="paint16_linear_217_640" x1="-1069.33" y1="-708.464" x2="-1029.23" y2="-678.81" gradientUnits="userSpaceOnUse">
<stop stop-color="#FF928E"/>
<stop offset="1" stop-color="#FE7062"/>
</linearGradient>
<linearGradient id="paint17_linear_217_640" x1="92.5446" y1="169.013" x2="117.958" y2="169.254" gradientUnits="userSpaceOnUse">
<stop stop-color="#FEBBBA"/>
<stop offset="1" stop-color="#FF928E"/>
</linearGradient>
<linearGradient id="paint18_linear_217_640" x1="111.228" y1="154.979" x2="120.831" y2="136.339" gradientUnits="userSpaceOnUse">
<stop stop-color="#FEBBBA"/>
<stop offset="1" stop-color="#FF928E"/>
</linearGradient>
<linearGradient id="paint19_linear_217_640" x1="124.817" y1="135.756" x2="113.833" y2="128.913" gradientUnits="userSpaceOnUse">
<stop stop-color="#FEBBBA"/>
<stop offset="1" stop-color="#FF928E"/>
</linearGradient>
<linearGradient id="paint20_linear_217_640" x1="108.053" y1="121.754" x2="122.218" y2="133.162" gradientUnits="userSpaceOnUse">
<stop stop-color="#09005D"/>
<stop offset="1" stop-color="#1A0F91"/>
</linearGradient>
<linearGradient id="paint21_linear_217_640" x1="121.891" y1="138.241" x2="112.009" y2="132.084" gradientUnits="userSpaceOnUse">
<stop stop-color="#FEBBBA"/>
<stop offset="1" stop-color="#FF928E"/>
</linearGradient>
<linearGradient id="paint22_linear_217_640" x1="124.773" y1="152.865" x2="138.796" y2="211.295" gradientUnits="userSpaceOnUse">
<stop stop-color="#09005D"/>
<stop offset="1" stop-color="#1A0F91"/>
</linearGradient>
<linearGradient id="paint23_linear_217_640" x1="115.164" y1="168.323" x2="123.109" y2="168.323" gradientUnits="userSpaceOnUse">
<stop stop-color="#FEBBBA"/>
<stop offset="1" stop-color="#FF928E"/>
</linearGradient>
<linearGradient id="paint24_linear_217_640" x1="273.512" y1="122.388" x2="294.83" y2="156.553" gradientUnits="userSpaceOnUse">
<stop stop-color="#FEBBBA"/>
<stop offset="1" stop-color="#FF928E"/>
</linearGradient>
<linearGradient id="paint25_linear_217_640" x1="332.69" y1="119.243" x2="311.157" y2="133.6" gradientUnits="userSpaceOnUse">
<stop stop-color="#09005D"/>
<stop offset="1" stop-color="#1A0F91"/>
</linearGradient>
<linearGradient id="paint26_linear_217_640" x1="326.653" y1="121.653" x2="311.12" y2="145.659" gradientUnits="userSpaceOnUse">
<stop stop-color="#FF928E"/>
<stop offset="1" stop-color="#FE7062"/>
</linearGradient>
<linearGradient id="paint27_linear_217_640" x1="299.767" y1="146.022" x2="303.764" y2="137.145" gradientUnits="userSpaceOnUse">
<stop stop-color="#FEBBBA"/>
<stop offset="1" stop-color="#FF928E"/>
</linearGradient>
<linearGradient id="paint28_linear_217_640" x1="299.561" y1="124.451" x2="307.673" y2="142.011" gradientUnits="userSpaceOnUse">
<stop stop-color="#FEBBBA"/>
<stop offset="1" stop-color="#FF928E"/>
</linearGradient>
<linearGradient id="paint29_linear_217_640" x1="326.903" y1="110.564" x2="305.37" y2="124.921" gradientUnits="userSpaceOnUse">
<stop stop-color="#09005D"/>
<stop offset="1" stop-color="#1A0F91"/>
</linearGradient>
<linearGradient id="paint30_linear_217_640" x1="303.378" y1="122.688" x2="311.489" y2="140.248" gradientUnits="userSpaceOnUse">
<stop stop-color="#FEBBBA"/>
<stop offset="1" stop-color="#FF928E"/>
</linearGradient>
<linearGradient id="paint31_linear_217_640" x1="322.195" y1="256.558" x2="292.417" y2="202.81" gradientUnits="userSpaceOnUse">
<stop stop-color="#FEBBBA"/>
<stop offset="1" stop-color="#FF928E"/>
</linearGradient>
<linearGradient id="paint32_linear_217_640" x1="315.772" y1="237.594" x2="306.92" y2="237.51" gradientUnits="userSpaceOnUse">
<stop stop-color="#09005D"/>
<stop offset="1" stop-color="#1A0F91"/>
</linearGradient>
<linearGradient id="paint33_linear_217_640" x1="288.25" y1="216.683" x2="333.405" y2="231.597" gradientUnits="userSpaceOnUse">
<stop stop-color="#FEBBBA"/>
<stop offset="1" stop-color="#FF928E"/>
</linearGradient>
<linearGradient id="paint34_linear_217_640" x1="307.55" y1="239.115" x2="296.997" y2="239.014" gradientUnits="userSpaceOnUse">
<stop stop-color="#09005D"/>
<stop offset="1" stop-color="#1A0F91"/>
</linearGradient>
<linearGradient id="paint35_linear_217_640" x1="339.001" y1="160.154" x2="313.583" y2="179.641" gradientUnits="userSpaceOnUse">
<stop stop-color="#09005D"/>
<stop offset="1" stop-color="#1A0F91"/>
</linearGradient>
<linearGradient id="paint36_linear_217_640" x1="319.335" y1="173.637" x2="276.653" y2="110.353" gradientUnits="userSpaceOnUse">
<stop stop-color="#FEBBBA"/>
<stop offset="1" stop-color="#FF928E"/>
</linearGradient>
<linearGradient id="paint37_linear_217_640" x1="228.652" y1="227.548" x2="231.434" y2="238.328" gradientUnits="userSpaceOnUse">
<stop stop-color="#09005D"/>
<stop offset="1" stop-color="#1A0F91"/>
</linearGradient>
<linearGradient id="paint38_linear_217_640" x1="237.167" y1="233.478" x2="232.26" y2="232.391" gradientUnits="userSpaceOnUse">
<stop stop-color="#FEBBBA"/>
<stop offset="1" stop-color="#FF928E"/>
</linearGradient>
<linearGradient id="paint39_linear_217_640" x1="246.834" y1="221.994" x2="232.447" y2="188.146" gradientUnits="userSpaceOnUse">
<stop stop-color="#09005D"/>
<stop offset="1" stop-color="#1A0F91"/>
</linearGradient>
<linearGradient id="paint40_linear_217_640" x1="229.343" y1="237.977" x2="241.48" y2="264.093" gradientUnits="userSpaceOnUse">
<stop stop-color="#09005D"/>
<stop offset="1" stop-color="#1A0F91"/>
</linearGradient>
<linearGradient id="paint41_linear_217_640" x1="236.82" y1="244.707" x2="223.622" y2="241.786" gradientUnits="userSpaceOnUse">
<stop stop-color="#4F52FF"/>
<stop offset="1" stop-color="#4042E2"/>
</linearGradient>
<linearGradient id="paint42_linear_217_640" x1="239.714" y1="238.793" x2="235.108" y2="237.773" gradientUnits="userSpaceOnUse">
<stop stop-color="#FEBBBA"/>
<stop offset="1" stop-color="#FF928E"/>
</linearGradient>
<linearGradient id="paint43_linear_217_640" x1="251.128" y1="238.225" x2="258.629" y2="198.886" gradientUnits="userSpaceOnUse">
<stop stop-color="#09005D"/>
<stop offset="1" stop-color="#1A0F91"/>
</linearGradient>
<linearGradient id="paint44_linear_217_640" x1="265.789" y1="162.225" x2="220.463" y2="197.384" gradientUnits="userSpaceOnUse">
<stop stop-color="#FF928E"/>
<stop offset="1" stop-color="#FE7062"/>
</linearGradient>
<linearGradient id="paint45_linear_217_640" x1="233.867" y1="186.639" x2="217.799" y2="183.083" gradientUnits="userSpaceOnUse">
<stop stop-color="#FEBBBA"/>
<stop offset="1" stop-color="#FF928E"/>
</linearGradient>
<linearGradient id="paint46_linear_217_640" x1="213.679" y1="211.042" x2="256.887" y2="184.354" gradientUnits="userSpaceOnUse">
<stop stop-color="#FF928E"/>
<stop offset="1" stop-color="#FE7062"/>
</linearGradient>
<linearGradient id="paint47_linear_217_640" x1="257.978" y1="162.24" x2="247.317" y2="159.88" gradientUnits="userSpaceOnUse">
<stop stop-color="#FEBBBA"/>
<stop offset="1" stop-color="#FF928E"/>
</linearGradient>
<linearGradient id="paint48_linear_217_640" x1="216.291" y1="215.27" x2="259.499" y2="188.582" gradientUnits="userSpaceOnUse">
<stop stop-color="#FF928E"/>
<stop offset="1" stop-color="#FE7062"/>
</linearGradient>
<linearGradient id="paint49_linear_217_640" x1="266.444" y1="188.888" x2="308.784" y2="248.176" gradientUnits="userSpaceOnUse">
<stop stop-color="#FEBBBA"/>
<stop offset="1" stop-color="#FF928E"/>
</linearGradient>
<linearGradient id="paint50_linear_217_640" x1="252.077" y1="148.575" x2="246.721" y2="173.7" gradientUnits="userSpaceOnUse">
<stop stop-color="#FEBBBA"/>
<stop offset="1" stop-color="#FF928E"/>
</linearGradient>
<linearGradient id="paint51_linear_217_640" x1="259.484" y1="155.283" x2="248.813" y2="142.954" gradientUnits="userSpaceOnUse">
<stop stop-color="#09005D"/>
<stop offset="1" stop-color="#1A0F91"/>
</linearGradient>
<linearGradient id="paint52_linear_217_640" x1="254.185" y1="172.524" x2="255.512" y2="156.894" gradientUnits="userSpaceOnUse">
<stop stop-color="#FEBBBA"/>
<stop offset="1" stop-color="#FF928E"/>
</linearGradient>
<linearGradient id="paint53_linear_217_640" x1="253.089" y1="186.34" x2="231.999" y2="193.257" gradientUnits="userSpaceOnUse">
<stop stop-color="#09005D"/>
<stop offset="1" stop-color="#1A0F91"/>
</linearGradient>
<linearGradient id="paint54_linear_217_640" x1="224.118" y1="172.512" x2="208.93" y2="188.564" gradientUnits="userSpaceOnUse">
<stop stop-color="#09005D"/>
<stop offset="1" stop-color="#1A0F91"/>
</linearGradient>
<clipPath id="clip0_217_640">
<rect width="400" height="250" fill="white"/>
</clipPath>
</defs>
</svg>
